<?xml version="1.0" encoding="iso-8859-1"?>
<!-- Generator: Adobe Illustrator 21.1.0, SVG Export Plug-In . SVG Version: 6.00 Build 0)  -->
<svg version="1.1" id="Layer_1" xmlns="http://www.w3.org/2000/svg" xmlns:xlink="http://www.w3.org/1999/xlink" x="0px" y="0px"
	 viewBox="0 0 39.199 25.657" style="enable-background:new 0 0 39.199 25.657;" xml:space="preserve">
<g>
	<path d="M36.77,8.192c-0.028-0.031-0.051-0.059-0.082-0.09l-1.372-1.324c1.137-0.258,2.364-1.215,2.364-2.192
		c0-1.144-1.582-1.547-2.934-1.547c-1.41,0-1.574,0.969-1.594,1.653l-3.543-3.418C28.891,0.563,27.523,0,26.504,0H12.695
		c-1.019,0-2.386,0.563-3.105,1.274L6.047,4.692c-0.02-0.684-0.184-1.653-1.594-1.653c-1.355,0-2.937,0.403-2.937,1.547
		c0,0.977,1.226,1.934,2.367,2.192L2.508,8.102C2.477,8.133,2.457,8.161,2.43,8.192C0.961,9.45,0,11.778,0,13.469v5.024
		c0,1.218,0.48,2.324,1.258,3.148v1.949c0,1.141,0.953,2.067,2.125,2.067h2.574c1.172,0,2.125-0.926,2.125-2.067v-0.5h23.035v0.5
		c0,1.141,0.953,2.067,2.125,2.067h2.57c1.176,0,2.129-0.926,2.129-2.067v-1.949c0.778-0.824,1.258-1.93,1.258-3.148v-5.024
		C39.199,11.778,38.238,9.45,36.77,8.192L36.77,8.192z M10.891,2.793c0.5-0.418,1.371-0.73,1.804-0.73h13.809
		c0.434,0,1.305,0.312,1.805,0.73l4.648,4.504H6.242L10.891,2.793z M1.594,12.707c0-1.238,0.968-2.242,2.164-2.242
		c1.195,0,5.097,2.293,5.097,3.531c0,1.235-3.902,0.95-5.097,0.95C2.562,14.946,1.594,13.946,1.594,12.707L1.594,12.707z
		 M8.082,20.887H7.258l-2.446,0.004c-0.675-0.211-1.156-0.457-1.492-0.723c-0.172-0.132-0.304-0.269-0.406-0.41
		c-0.105-0.137-0.18-0.277-0.226-0.414c-0.305-0.859,0.324-1.648,0.324-1.648H7.18l2.781,3.191H8.082z M25.598,20.891H13.602
		c-1.25,0-2.266-1.016-2.266-2.266h16.527C27.863,19.875,26.848,20.891,25.598,20.891L25.598,20.891z M26.125,17.079H13.074
		c-1.359,0-2.465-1.676-2.465-3.743h17.977C28.586,15.403,27.484,17.079,26.125,17.079L26.125,17.079z M36.512,19.344
		c-0.047,0.137-0.125,0.277-0.227,0.414c-0.101,0.141-0.234,0.278-0.406,0.414c-0.336,0.262-0.817,0.512-1.492,0.723l-2.446-0.004
		h-2.707l2.782-3.195h4.172C36.188,17.696,36.816,18.485,36.512,19.344L36.512,19.344z M35.441,14.946
		c-1.195,0-5.097,0.285-5.097-0.95c0-1.238,3.902-3.531,5.097-3.531c1.196,0,2.164,1.004,2.164,2.242
		C37.605,13.946,36.637,14.946,35.441,14.946L35.441,14.946z M35.441,14.946"/>
</g>
</svg>
