<?xml version="1.0" encoding="iso-8859-1"?>
<!-- Generator: Adobe Illustrator 21.1.0, SVG Export Plug-In . SVG Version: 6.00 Build 0)  -->
<svg version="1.1" id="Layer_1" xmlns="http://www.w3.org/2000/svg" xmlns:xlink="http://www.w3.org/1999/xlink" x="0px" y="0px"
	 viewBox="-49 141 512 512" style="enable-background:new -49 141 512 512;" xml:space="preserve">
<path d="M-27.667,578.333c0,17.643,14.379,32,32,32H175c17.643,0,32-14.357,32-32v-74.667H-27.667V578.333z M452.333,247.667h-78.72
	l-12.48-24.981C355.672,211.784,344.685,205,332.504,205h-49.088l-36.075-12.011c-18.517-6.187-37.803-9.323-57.344-9.323H-17
	c-17.621,0-32,14.357-32,32V301c0,17.643,14.379,32,32,32h51.563L15.768,455.069l-36.331,27.264h219.072l-65.045-27.883
	l7.232-47.061c0.789,0.171,1.557,0.277,2.325,0.277c4.779,0,9.131-3.221,10.325-8.085l10.667-42.667
	c1.429-5.717-2.048-11.499-7.765-12.928c-2.027-0.512-4.032-0.235-5.867,0.384L152.152,333h37.824
	c19.541,0,38.827-3.136,57.344-9.323l36.075-12.011h49.088c12.203,0,23.168-6.784,28.629-17.685L373.592,269h78.741
	c5.888,0,10.667-4.779,10.667-10.667S458.221,247.667,452.333,247.667z M68.333,290.333h-64c-5.888,0-10.667-4.779-10.667-10.667
	S-1.555,269,4.333,269h64C74.221,269,79,273.779,79,279.667S74.221,290.333,68.333,290.333z M68.333,247.667h-64
	c-5.888,0-10.667-4.779-10.667-10.667s4.779-10.667,10.667-10.667h64C74.221,226.333,79,231.112,79,237
	S74.221,247.667,68.333,247.667z M292.333,279.667c0,5.888-4.779,10.667-10.667,10.667S271,285.555,271,279.667V237
	c0-5.888,4.779-10.667,10.667-10.667s10.667,4.779,10.667,10.667V279.667z"/>
</svg>
