<?xml version="1.0" encoding="iso-8859-1"?>
<!-- Generator: Adobe Illustrator 21.1.0, SVG Export Plug-In . SVG Version: 6.00 Build 0)  -->
<svg version="1.1" id="Layer_1" xmlns="http://www.w3.org/2000/svg" xmlns:xlink="http://www.w3.org/1999/xlink" x="0px" y="0px"
	 viewBox="0 0 512 420" style="enable-background:new 0 0 512 420;" xml:space="preserve">
<g>
	<g>
		<defs>
			<rect id="SVGID_1_" width="512" height="420"/>
		</defs>
		<clipPath id="SVGID_2_">
			<use xlink:href="#SVGID_1_"  style="overflow:visible;"/>
		</clipPath>
		<path style="clip-path:url(#SVGID_2_);" d="M15,30h49.691L121,227.117v48.41c34.844,12.426,60,45.414,60,84.473
			c0,10.57-2.164,20.57-5.527,30h192.058c-3.363-9.43-5.531-19.43-5.531-30c0-38.648,24.613-71.398,58.887-84.125
			c-2.774-20.145-18.188-36.445-38.922-38.746l-234.305-25.93L90.43,10.883C88.582,4.438,82.695,0,76,0H15C6.711,0,0,6.711,0,15
			C0,23.289,6.711,30,15,30L15,30z M226,300h91c8.289,0,15,6.711,15,15s-6.711,15-15,15h-91c-8.289,0-15-6.711-15-15
			S217.711,300,226,300L226,300z M226,300"/>
	</g>
	<path d="M91,300c-33.137,0-60,26.863-60,60s26.863,60,60,60s60-26.863,60-60S124.137,300,91,300L91,300z M91,375
		c-8.285,0-15-6.715-15-15c0-8.285,6.715-15,15-15s15,6.715,15,15C106,368.285,99.285,375,91,375L91,375z M91,375"/>
	<path d="M230.949,133.418c-12.652-1.363-25.457,2.695-34.976,11.223C186.465,153.148,181,165.383,181,178.152v6.567l181,20.011
		v-19.914c0-22.953-17.211-42.171-40.574-44.777L230.949,133.418z M230.949,133.418"/>
	<path d="M452,300c-33.137,0-60,26.863-60,60s26.863,60,60,60c33.137,0,60-26.863,60-60S485.137,300,452,300L452,300z M452,375
		c-8.285,0-15-6.715-15-15c0-8.285,6.715-15,15-15c8.285,0,15,6.715,15,15C467,368.285,460.285,375,452,375L452,375z M452,375"/>
</g>
</svg>
