<?xml version="1.0" encoding="iso-8859-1"?>
<!-- Generator: Adobe Illustrator 21.1.0, SVG Export Plug-In . SVG Version: 6.00 Build 0)  -->
<svg version="1.1" id="Layer_1" xmlns="http://www.w3.org/2000/svg" xmlns:xlink="http://www.w3.org/1999/xlink" x="0px" y="0px"
	 viewBox="0 0 384 384" style="enable-background:new 0 0 384 384;" xml:space="preserve">
<g>
	<path d="M135.531,350.117c0,18.715-15.172,33.883-33.883,33.883c-18.714,0-33.882-15.168-33.882-33.883
		c0-18.711,15.168-33.883,33.882-33.883C120.359,316.234,135.531,331.406,135.531,350.117L135.531,350.117z M135.531,350.117"/>
	<path d="M22.59,45.176v90.355h45.176V79.059h22.586v56.472h45.179V79.059h180.703v56.472h45.176c0-4.769,0-129.308,0-135.531
		h-22.586v43.008c-8.359-5.75-18.472-9.125-29.367-9.125H74.543c-10.918,0-21.051,3.39-29.422,9.164C44.004,19.121,24.195,0,0,0
		v22.59C12.457,22.59,22.59,32.723,22.59,45.176L22.59,45.176z M22.59,45.176"/>
	<rect x="158.117" y="101.648" width="135.531" height="33.883"/>
	<path d="M0,180.707h67.766v22.586H0v22.59h67.766v22.586H0v44.051c0,25.152,20.164,45.671,45.176,46.273v0.031
		c0.078,0,1.211,0,1.136,0c5.247-25.746,28.063-45.176,55.336-45.176c27.27,0,50.086,19.43,55.332,45.176h23.727V158.117H0V180.707z
		 M0,180.707"/>
	<path d="M384,292.52V158.117H203.293v180.707h56.473v22.586h-22.59V384h135.531v-22.59h-22.59v-24.293
		C369.633,331.672,384,313.746,384,292.52L384,292.52z M237.176,192h112.941v112.941H237.176V192z M282.352,361.41v-22.586h45.179
		v22.586H282.352z M282.352,361.41"/>
	<rect x="259.766" y="214.59" width="67.766" height="67.762"/>
</g>
</svg>
