<?xml version="1.0" encoding="iso-8859-1"?>
<!-- Generator: Adobe Illustrator 21.1.0, SVG Export Plug-In . SVG Version: 6.00 Build 0)  -->
<svg version="1.1" id="Layer_1" xmlns="http://www.w3.org/2000/svg" xmlns:xlink="http://www.w3.org/1999/xlink" x="0px" y="0px"
	 viewBox="0 0 233.76 235" style="enable-background:new 0 0 233.76 235;" xml:space="preserve">
<g>
	<g>
		<defs>
			<rect id="SVGID_1_" width="233.76" height="235"/>
		</defs>
		<clipPath id="SVGID_2_">
			<use xlink:href="#SVGID_1_"  style="overflow:visible;"/>
		</clipPath>
		<path style="clip-path:url(#SVGID_2_);" d="M129.445,112.411c2.703-1.383,5.711-2.114,8.832-2.114
			c5.176,0,10.039,2.012,13.707,5.656l7.895-7.89c19.535,6.848,42.133,2.461,57.75-13.152
			c13.141-13.141,18.324-31.223,15.555-48.266c-0.305-1.875-1.633-3.426-3.442-4.008c-1.808-0.586-3.793-0.109-5.137,1.234
			l-11.722,11.723c-9.547,9.547-25.024,9.547-34.571,0c-9.542-9.547-9.542-25.023,0-34.57l11.723-11.719
			c1.344-1.348,1.824-3.332,1.238-5.141c-0.585-1.812-2.132-3.136-4.011-3.441C170.219-2.043,152.141,3.137,139,16.278
			c-15.852,15.851-20.117,38.883-12.828,58.617l-17.121,17.121L129.445,112.411z M129.445,112.411"/>
		<path style="clip-path:url(#SVGID_2_);" d="M98.246,143.438l-20.308-20.309L6.926,194.141c-9.235,9.23-9.235,24.203,0,33.437
			c9.234,9.231,24.203,9.231,33.437,0l61.215-61.218C95.406,160.153,94.293,150.782,98.246,143.438L98.246,143.438z M98.246,143.438
			"/>
		<path style="clip-path:url(#SVGID_2_);" d="M143.539,124.477c-1.453-1.453-3.355-2.18-5.262-2.18c-1.902,0-3.804,0.727-5.257,2.18
			l-4.239,4.238L53.266,53.203l3.531-3.531c3.215-3.215,2.816-8.547-0.848-11.246L25.137,15.735c-2.961-2.18-7.067-1.871-9.668,0.73
			L2.387,29.547c-2.602,2.598-2.91,6.707-0.731,9.668l22.692,30.809c2.699,3.668,8.027,4.07,11.246,0.851l3.531-3.531l75.512,75.512
			l-4.535,4.539c-2.907,2.906-2.907,7.613,0,10.519l69.66,69.664c9.234,9.231,24.207,9.231,33.441,0
			c9.231-9.234,9.231-24.207,0-33.437L143.539,124.477z M143.539,124.477"/>
	</g>
</g>
</svg>
