<?xml version="1.0" encoding="iso-8859-1"?>
<!-- Generator: Adobe Illustrator 21.1.0, SVG Export Plug-In . SVG Version: 6.00 Build 0)  -->
<svg version="1.1" id="Layer_1" xmlns="http://www.w3.org/2000/svg" xmlns:xlink="http://www.w3.org/1999/xlink" x="0px" y="0px"
	 viewBox="0 0 384 384" style="enable-background:new 0 0 384 384;" xml:space="preserve">
<g>
	<rect x="67.5" y="204" width="142.5" height="22.5"/>
	<rect x="67.5" y="159" width="142.5" height="22.5"/>
	<rect x="67.5" y="114" width="142.5" height="22.5"/>
	<path d="M138.75,294c-6.203,0-11.25,5.047-11.25,11.25V339H150v-33.75C150,299.047,144.953,294,138.75,294L138.75,294z M138.75,294
		"/>
	<path d="M198.75,372.75c0,6.215,5.035,11.25,11.25,11.25h22.5c6.215,0,11.25-5.035,11.25-11.25V361.5h-45V372.75z M198.75,372.75"
		/>
	<path d="M33.75,372.75c0,6.215,5.035,11.25,11.25,11.25h22.5c6.215,0,11.25-5.035,11.25-11.25V361.5h-45V372.75z M33.75,372.75"/>
	<path d="M372.75,136.5H369v-18.75c0-6.215-5.035-11.25-11.25-11.25c-6.215,0-11.25,5.035-11.25,11.25v18.75h-3.75
		c-6.215,0-11.25,5.035-11.25,11.25v30c0,10.473,6.133,19.508,15,23.719v66.281c0,10.34-8.41,18.75-18.75,18.75H300V309h27.75
		c22.746,0,41.25-18.504,41.25-41.25v-66.281c8.867-4.211,15-13.246,15-23.719v-30C384,141.535,378.965,136.5,372.75,136.5
		L372.75,136.5z M372.75,136.5"/>
	<path d="M236.25,0h-195C18.504,0,0,18.504,0,41.25v286.5C0,333.965,5.035,339,11.25,339H105v-33.75
		c0-18.609,15.141-33.75,33.75-33.75s33.75,15.141,33.75,33.75V339h93.75c6.215,0,11.25-5.035,11.25-11.25V41.25
		C277.5,18.504,258.996,0,236.25,0L236.25,0z M138.75,45c6.215,0,11.25,5.035,11.25,11.25s-5.035,11.25-11.25,11.25
		s-11.25-5.035-11.25-11.25S132.535,45,138.75,45L138.75,45z M56.25,45h37.5C99.965,45,105,50.035,105,56.25S99.965,67.5,93.75,67.5
		h-37.5C50.035,67.5,45,62.465,45,56.25S50.035,45,56.25,45L56.25,45z M78.75,294h-22.5C50.035,294,45,288.965,45,282.75
		s5.035-11.25,11.25-11.25h22.5c6.215,0,11.25,5.035,11.25,11.25S84.965,294,78.75,294L78.75,294z M221.25,294h-22.5
		c-6.215,0-11.25-5.035-11.25-11.25s5.035-11.25,11.25-11.25h22.5c6.215,0,11.25,5.035,11.25,11.25S227.465,294,221.25,294
		L221.25,294z M232.5,237.75c0,6.215-5.035,11.25-11.25,11.25h-165C50.035,249,45,243.965,45,237.75v-135
		c0-6.215,5.035-11.25,11.25-11.25h165c6.215,0,11.25,5.035,11.25,11.25V237.75z M232.5,237.75"/>
</g>
</svg>
