<?xml version="1.0" encoding="iso-8859-1"?>
<!-- Generator: Adobe Illustrator 21.1.0, SVG Export Plug-In . SVG Version: 6.00 Build 0)  -->
<svg version="1.1" id="Layer_1" xmlns="http://www.w3.org/2000/svg" xmlns:xlink="http://www.w3.org/1999/xlink" x="0px" y="0px"
	 viewBox="0 0 384 384" style="enable-background:new 0 0 384 384;" xml:space="preserve">
<g>
	<path d="M113.25,316.5c0-37.223,30.277-67.5,67.5-67.5c7.93,0,15.426,1.625,22.5,4.145V158.25h-22.5v-45H68.25v45h-22.5V361.5H0
		V384h113.25V316.5z M113.25,316.5"/>
	<path d="M248.25,339h56.25v-45h-60.395c2.52,7.074,4.145,14.57,4.145,22.5V339z M248.25,339"/>
	<path d="M361.5,294H327v45h34.5c12.426,0,22.5-10.074,22.5-22.5S373.926,294,361.5,294L361.5,294z M361.5,294"/>
	<path d="M135.75,316.5V384c4.07,0,115.863,0,112.5,0v-22.5h-22.5v-45c0-24.852-20.148-45-45-45
		C155.898,271.5,135.75,291.648,135.75,316.5L135.75,316.5z M192,327.75h-22.5v-22.5H192V327.75z M192,327.75"/>
	<path d="M90.75,90.75h67.5V45h22.5V0H68.25v45h22.5V90.75z M90.75,90.75"/>
</g>
</svg>
