<?xml version="1.0" encoding="iso-8859-1"?>
<!-- Generator: Adobe Illustrator 21.1.0, SVG Export Plug-In . SVG Version: 6.00 Build 0)  -->
<svg version="1.1" id="Capa_1" xmlns="http://www.w3.org/2000/svg" xmlns:xlink="http://www.w3.org/1999/xlink" x="0px" y="0px"
	 viewBox="-49 141 512 512" style="enable-background:new -49 141 512 512;" xml:space="preserve">
<path d="M394.704,320.419l59.999-30c7.412-3.706,10.415-12.715,6.709-20.127c-3.706-7.412-12.729-10.386-20.127-6.709l-59.999,30
	c-7.412,3.706-10.415,12.715-6.709,20.127C378.278,321.092,387.242,324.125,394.704,320.419z"/>
<path d="M454.703,443.581l-59.999-30c-7.412-3.691-16.406-0.718-20.127,6.709c-3.706,7.412-0.703,16.421,6.709,20.127l59.999,30
	c7.484,3.717,16.438,0.649,20.127-6.709C465.118,456.296,462.115,447.287,454.703,443.581z"/>
<path d="M295.996,383H70.999v-76.999c0-41.353,33.647-74.999,74.999-74.999s74.999,33.647,74.999,74.999v30c0,8.291,6.709,15,15,15
	h59.999c8.291,0,15-6.709,15-15v-30c0-90.98-74.018-164.998-164.998-164.998S-19,215.021-19,306.001v79.762
	C-36.422,391.976-49,408.47-49,428v179.998c0,24.814,20.186,44.999,44.999,44.999h299.996c24.814,0,44.999-20.186,44.999-44.999V428
	C340.995,403.185,320.81,383,295.996,383z M160.998,530.235v47.762c0,8.291-6.709,15-15,15c-8.291,0-15-6.709-15-15v-47.762
	c-17.422-6.213-30-22.707-30-42.236c0-24.814,20.186-44.999,44.999-44.999s44.999,20.186,44.999,44.999
	C190.997,507.529,178.419,524.023,160.998,530.235z"/>
<path d="M387.995,382h59.999c8.291,0,15-6.709,15-15s-6.709-15-15-15h-59.999c-8.291,0-15,6.709-15,15S379.704,382,387.995,382z"/>
</svg>
