<?xml version="1.0" encoding="iso-8859-1"?>
<!-- Generator: Adobe Illustrator 21.1.0, SVG Export Plug-In . SVG Version: 6.00 Build 0)  -->
<svg version="1.1" id="Layer_1" xmlns="http://www.w3.org/2000/svg" xmlns:xlink="http://www.w3.org/1999/xlink" x="0px" y="0px"
	 viewBox="0 0 384 346.5" style="enable-background:new 0 0 384 346.5;" xml:space="preserve">
<g>
	<path d="M69.301,114.75c10.941,32.805,57.469,32.785,68.398,0H114.75v-22.5h22.949c-10.941-32.805-57.469-32.785-68.398,0H92.25
		v22.5H69.301z M69.301,114.75"/>
	<path d="M69.301,254.25c10.941,32.805,57.469,32.785,68.398,0H114.75v-22.5h22.949c-10.941-32.805-57.469-32.785-68.398,0H92.25
		v22.5H69.301z M69.301,254.25"/>
	<path d="M361.5,70.5v-48H339v48h-42.75v-48h-22.5v48h-22.5v36.375c0,32.766,23.863,60.059,55.125,65.422v115.515
		c0,10.856-8.832,19.688-19.687,19.688c-10.856,0-19.688-8.832-19.688-19.688v-16.874c0-23.262-18.926-42.188-42.188-42.188H207V0H0
		v346.5h207v-95.25h17.812c10.856,0,19.688,8.832,19.688,19.688v16.874c2.309,55.958,82.062,55.961,84.375,0V172.297
		C360.137,166.934,384,139.641,384,106.875V70.5H361.5z M103.5,184.5c32.258,0,58.5,26.242,58.5,58.5
		c-3.215,77.609-113.801,77.586-117,0C45,210.742,71.242,184.5,103.5,184.5L103.5,184.5z M45,103.5C45,71.242,71.242,45,103.5,45
		c77.609,3.215,77.586,113.801,0,117C71.242,162,45,135.758,45,103.5L45,103.5z M45,103.5"/>
</g>
</svg>
