<?xml version="1.0" encoding="iso-8859-1"?>
<!-- Generator: Adobe Illustrator 21.1.0, SVG Export Plug-In . SVG Version: 6.00 Build 0)  -->
<svg version="1.1" id="Layer_1" xmlns="http://www.w3.org/2000/svg" xmlns:xlink="http://www.w3.org/1999/xlink" x="0px" y="0px"
	 viewBox="0 0 384 354.734" style="enable-background:new 0 0 384 354.734;" xml:space="preserve">
<g>
	<path d="M136.012,66.687c0-19.945,13.23-40.613,35.359-40.613h132.906c6.746,0,10.407-7.922,6.012-13.039
		C303.445,5.058,293.309,0,282.016,0H91.422C62.043,0,38.145,26.308,38.145,58.648l-0.129,26.293h97.933L136.012,66.687z
		 M136.012,66.687"/>
	<path d="M305.672,227.004h54.566c4.157,0,7.528-3.371,7.528-7.528v-29.839h-69.625v29.839
		C298.141,223.633,301.512,227.004,305.672,227.004L305.672,227.004z M305.672,227.004"/>
	<path d="M333.672,107.527c-14.77,0-285.828,0-296.152,0c-0.297,8.953-6.04,178.735-6.29,186.082h117.454l-3.411-86.301
		c-0.765-22.16,16.864-40.261,38.778-40.261H384v-9.071C384,130.16,361.426,107.527,333.672,107.527L333.672,107.527z
		 M333.672,107.527"/>
	<path d="M306.34,304.125c0,14.726,11.914,26.664,26.613,26.664s26.617-11.938,26.617-26.664c0-11.613-16.558-36.07-23.554-45.887
		c-1.5-2.105-4.621-2.105-6.125,0C322.895,268.055,306.34,292.512,306.34,304.125L306.34,304.125z M306.34,304.125"/>
	<path d="M160.887,316.199H19.168C8.629,316.199,0,324.773,0,335.367v11.836c0,4.16,3.371,7.531,7.531,7.531h164.996
		c4.161,0,7.532-3.371,7.532-7.531v-11.836C180.059,324.785,171.441,316.199,160.887,316.199L160.887,316.199z M160.887,316.199"/>
</g>
</svg>
