<?xml version="1.0" encoding="iso-8859-1"?>
<!-- Generator: Adobe Illustrator 21.1.0, SVG Export Plug-In . SVG Version: 6.00 Build 0)  -->
<svg version="1.1" id="Layer_1" xmlns="http://www.w3.org/2000/svg" xmlns:xlink="http://www.w3.org/1999/xlink" x="0px" y="0px"
	 viewBox="0 0 222 512" style="enable-background:new 0 0 222 512;" xml:space="preserve">
<g>
	<g>
		<defs>
			<rect id="SVGID_1_" width="222" height="512"/>
		</defs>
		<clipPath id="SVGID_2_">
			<use xlink:href="#SVGID_1_"  style="overflow:visible;"/>
		</clipPath>
		<path style="clip-path:url(#SVGID_2_);" d="M124.414,510.293c33.613-6.777,60.41-32.137,69.035-65.324
			c8.621-33.184-2.441-68.383-28.5-90.664c-12.387-10.512-22.219-23.7-28.758-38.571H90.879c8.148,27.7,24.262,52.391,46.336,70.996
			c12.996,11.18,18.906,28.524,15.445,45.313c-3.695,18.328-18.019,32.656-36.351,36.352c-13.848,2.906-28.27-0.59-39.25-9.516
			c-10.977-8.926-17.344-22.328-17.325-36.481v-8.531c0-11.781-9.55-21.332-21.336-21.332c-11.781,0-21.332,9.551-21.332,21.332
			v8.531c0.004,23.778,9.457,46.579,26.278,63.383c16.82,16.805,39.633,26.239,63.41,26.219
			C112.68,511.98,118.594,511.41,124.414,510.293L124.414,510.293z M124.414,510.293"/>
	</g>
	<path d="M136.535,298.668c14.137,0,25.598-11.461,25.598-25.602v-8.531H59.734v8.531c0,14.141,11.461,25.602,25.598,25.602H136.535
		z M136.535,298.668"/>
	<path d="M136.535,8.535v51.199h42.664V8.535c0-4.715-3.82-8.535-8.531-8.535h-25.602C140.355,0,136.535,3.82,136.535,8.535
		L136.535,8.535z M136.535,8.535"/>
	<path d="M51.199,0c-4.711,0-8.531,3.82-8.531,8.535v51.199h42.664V8.535C85.332,3.82,81.512,0,76.801,0H51.199z M51.199,0"/>
	<path d="M128,128c0,9.426-7.641,17.066-17.066,17.066c-9.426,0-17.067-7.64-17.067-17.066c0-9.426,7.641-17.066,17.067-17.066
		C120.359,110.934,128,118.574,128,128L128,128z M128,128"/>
	<path d="M221.867,159.742v-74.41c-0.015-4.707-3.828-8.52-8.535-8.531H8.535C3.824,76.812,0.012,80.625,0,85.332v74.41
		c0.012,1.559,0.422,3.086,1.195,4.438l47.532,79.105c1.507,2.621,4.316,4.219,7.335,4.18h109.739
		c3.023,0.039,5.832-1.559,7.34-4.18l47.531-79.105C221.441,162.828,221.855,161.301,221.867,159.742L221.867,159.742z
		 M72.535,229.289c-4.109,2.309-9.308,0.906-11.691-3.156l-34.133-59.735c-0.707-1.312-1.086-2.773-1.109-4.265v-59.735
		c0-4.71,3.82-8.531,8.531-8.531c4.715,0,8.535,3.821,8.535,8.531v57.43l33.023,57.774
		C78.016,221.703,76.605,226.914,72.535,229.289L72.535,229.289z M110.934,162.133c-18.852,0-34.133-15.281-34.133-34.133
		c0-18.852,15.281-34.133,34.133-34.133c18.851,0,34.132,15.281,34.132,34.133c0.004,9.055-3.593,17.738-9.996,24.137
		C128.672,158.539,119.988,162.137,110.934,162.133L110.934,162.133z M110.934,162.133"/>
</g>
</svg>
