<?xml version="1.0" encoding="iso-8859-1"?>
<!-- Generator: Adobe Illustrator 21.1.0, SVG Export Plug-In . SVG Version: 6.00 Build 0)  -->
<svg version="1.1" id="Capa_1" xmlns="http://www.w3.org/2000/svg" xmlns:xlink="http://www.w3.org/1999/xlink" x="0px" y="0px"
	 viewBox="-49 184.729 512 424.541" style="enable-background:new -49 184.729 512 424.541;" xml:space="preserve">
<path d="M388,409.152h-50.118c-6.821,0-13.425,0.932-19.71,2.646c-12.398-24.372-37.71-41.118-66.877-41.118h-88.59
	c-29.167,0-54.479,16.746-66.877,41.118c-6.285-1.714-12.889-2.646-19.71-2.646H26c-41.355,0-75,33.645-75,75v80.118
	c0,24.813,20.187,45,45,45h422c24.813,0,45-20.187,45-45v-80.118C463,442.797,429.355,409.152,388,409.152z M433,564.271
	c0,8.271-6.729,15-15,15h-91.705v-133.59c0-1.667-0.074-3.317-0.182-4.957c3.754-1.018,7.697-1.572,11.769-1.572H388
	c24.813,0,45,20.187,45,45V564.271z M-4,579.271c-8.271,0-15-6.729-15-15v-80.118c0-24.813,20.187-45,45-45h50.118
	c4.072,0,8.015,0.553,11.769,1.572c-0.108,1.641-0.182,3.29-0.182,4.957v133.589H-4z M162.705,400.681h88.59
	c24.813,0,45,20.187,45,45V579.27h-178.59V445.681C117.705,420.868,137.892,400.681,162.705,400.681z"/>
<path d="M51.06,400.796c36.748,0,66.646-29.897,66.646-66.646s-29.897-66.646-66.646-66.646s-66.646,29.897-66.646,66.646
	C-15.587,370.899,14.311,400.796,51.06,400.796z M87.705,334.15c0,20.207-16.439,36.646-36.646,36.646s-36.646-16.439-36.646-36.646
	s16.439-36.646,36.646-36.646S87.705,313.943,87.705,334.15z"/>
<path d="M207,362.805c49.096,0,89.038-39.942,89.038-89.038S256.096,184.729,207,184.729s-89.038,39.942-89.038,89.038
	S157.904,362.805,207,362.805z M207,214.729c32.554,0,59.038,26.484,59.038,59.038S239.554,332.805,207,332.805
	s-59.038-26.484-59.038-59.038C147.962,241.214,174.446,214.729,207,214.729z"/>
<path d="M362.94,400.796c36.749,0,66.646-29.897,66.646-66.646s-29.897-66.646-66.646-66.646c-36.748,0-66.646,29.897-66.646,66.646
	C296.295,370.899,326.192,400.796,362.94,400.796z M362.94,297.504c20.207,0,36.646,16.439,36.646,36.646
	s-16.439,36.646-36.646,36.646c-20.206,0-36.646-16.439-36.646-36.646C326.295,313.943,342.734,297.504,362.94,297.504z"/>
</svg>
