<?xml version="1.0" encoding="iso-8859-1"?>
<!-- Generator: Adobe Illustrator 21.1.0, SVG Export Plug-In . SVG Version: 6.00 Build 0)  -->
<svg version="1.1" id="Layer_1" xmlns="http://www.w3.org/2000/svg" xmlns:xlink="http://www.w3.org/1999/xlink" x="0px" y="0px"
	 viewBox="0 0 368 240" style="enable-background:new 0 0 368 240;" xml:space="preserve">
<g>
	<g>
		<path style="fill:#FFFFFF;" d="M240,56c0,30.93-25.07,56-56,56s-56-25.07-56-56s25.07-56,56-56S240,25.07,240,56L240,56z M240,56"
			/>
	</g>
	<path style="fill:#FFFFFF;" d="M336,104c0,22.09-17.91,40-40,40s-40-17.91-40-40c0-22.09,17.91-40,40-40S336,81.91,336,104L336,104
		z M336,104"/>
	<path style="fill:#FFFFFF;" d="M113.137,104c0,22.09-17.91,40-40,40s-40-17.91-40-40c0-22.09,17.91-40,40-40
		c10.609,0,20.781,4.215,28.285,11.715C108.922,83.219,113.137,93.391,113.137,104L113.137,104z M113.137,104"/>
	<path style="fill:#FFFFFF;" d="M184,128c-57.344,0-104,46.656-104,104c0,4.418,3.582,8,8,8h192c4.414,0,8-3.582,8-8
		C288,174.656,241.344,128,184,128L184,128z M184,128"/>
	<path style="fill:#FFFFFF;" d="M86.93,161.727C82.031,160.688,77.055,160,72,160c-39.695,0-72,32.305-72,72c0,4.418,3.586,8,8,8
		h57.473c-0.899-2.512-1.473-5.184-1.473-8C64,205.746,72.574,181.504,86.93,161.727L86.93,161.727z M86.93,161.727"/>
	<path style="fill:#FFFFFF;" d="M296,160c-5.055,0-10.031,0.688-14.93,1.727C295.426,181.504,304,205.746,304,232
		c0,2.816-0.574,5.488-1.473,8H360c4.414,0,8-3.582,8-8C368,192.305,335.695,160,296,160L296,160z M296,160"/>
</g>
</svg>
