<svg width="17" height="14" viewBox="0 0 17 14" fill="none" xmlns="http://www.w3.org/2000/svg">
<path d="M16.5175 2.50597C16.4855 2.50476 15.8289 2.48238 14.8651 2.50387V0.505567C14.8651 0.211034 14.6163 -0.0225698 14.3235 0.00173965C12.4017 0.164026 9.95678 1.02265 8.5 2.58906C7.04322 1.02265 4.59828 0.164026 2.67648 0.00173965C2.38421 -0.0222116 2.13487 0.210362 2.13487 0.505567V2.5579C1.58733 2.53708 1.06941 2.52222 0.514826 2.50579C0.235167 2.49688 0 2.72476 0 3.01119V12.2192C0 12.4854 0.203867 12.7059 0.466393 12.7238C2.4553 12.8591 5.78704 12.8743 8.30388 13.96C8.5282 14.0569 8.7295 13.9456 8.6963 13.96C11.213 12.8745 14.544 12.8593 16.5336 12.7238C16.7961 12.7059 17 12.4854 17 12.2192V3.01119C17 2.7389 16.7866 2.51542 16.5175 2.50597ZM13.8651 1.07427V9.74034C12.4231 10.0665 10.596 10.7625 8.99995 12.2383C8.99995 11.7932 8.99995 3.78783 8.99995 3.54702C10.0939 2.16671 12.1658 1.33464 13.8651 1.07427ZM3.13491 1.07427C4.83415 1.33464 6.90607 2.16671 8.00005 3.54702V12.2383C6.40404 10.7625 4.57685 10.0665 3.13491 9.74034V1.07427ZM1.00008 11.7436V3.53198C1.35805 3.54264 1.74091 3.55472 2.13487 3.56994V10.1523C2.13487 10.3958 2.30624 10.6044 2.54265 10.6494C3.68435 10.866 5.16897 11.3364 6.55279 12.3491C4.57858 11.9015 2.51219 11.8294 1.00008 11.7436ZM15.9999 11.7436C14.4902 11.8294 12.4221 11.9013 10.4472 12.3491C11.8308 11.3364 13.3156 10.866 14.4573 10.6494C14.6938 10.6044 14.8651 10.3958 14.8651 10.1523V3.51555C15.3253 3.50507 15.7172 3.5049 15.9999 3.50749V11.7436Z" fill="#ABABAB"/>
<path d="M6.70357 4.7117C6.31638 4.43888 5.64869 4.10397 4.93619 3.98229C4.66401 3.93559 4.40583 4.12129 4.35979 4.39658C4.31379 4.67181 4.49729 4.93273 4.76947 4.97924C5.31958 5.07335 5.8472 5.34088 6.13186 5.54149C6.35839 5.70096 6.67001 5.64482 6.82806 5.41556C6.9858 5.18648 6.9301 4.87135 6.70357 4.7117Z" fill="#ABABAB"/>
<path d="M6.65341 7.55932C6.29716 7.33933 5.60025 6.9532 4.93619 6.83971C4.66401 6.79301 4.40583 6.97876 4.35979 7.254C4.31379 7.52942 4.49729 7.79033 4.76947 7.83689C5.2869 7.92517 5.89492 8.2758 6.13221 8.42238C6.36826 8.56805 6.6759 8.49248 6.8196 8.25449C6.96348 8.0161 6.88911 7.705 6.65341 7.55932Z" fill="#ABABAB"/>
<path d="M10.8682 5.54154C11.1528 5.34094 11.6804 5.0734 12.2305 4.97929C12.5027 4.93278 12.6862 4.67187 12.6402 4.39663C12.5942 4.12116 12.336 3.93546 12.0638 3.98234C11.3513 4.10402 10.6836 4.43893 10.2964 4.71175C10.0699 4.8714 10.0142 5.18653 10.172 5.41561C10.33 5.64487 10.6418 5.70101 10.8682 5.54154Z" fill="#ABABAB"/>
<path d="M12.0638 6.83971C11.3998 6.9532 10.7028 7.33933 10.3466 7.55932C10.1109 7.705 10.0365 8.0161 10.1804 8.25449C10.3243 8.49266 10.6321 8.56787 10.8678 8.42238C11.1051 8.2758 11.7131 7.92535 12.2305 7.83689C12.5027 7.79033 12.6862 7.52942 12.6402 7.254C12.5942 6.97876 12.336 6.79301 12.0638 6.83971Z" fill="#ABABAB"/>
</svg>