<?xml version="1.0" encoding="iso-8859-1"?>
<!-- Generator: Adobe Illustrator 21.1.0, SVG Export Plug-In . SVG Version: 6.00 Build 0)  -->
<svg version="1.1" id="Capa_1" xmlns="http://www.w3.org/2000/svg" xmlns:xlink="http://www.w3.org/1999/xlink" x="0px" y="0px"
	 viewBox="-49 141 512 512" style="enable-background:new -49 141 512 512;" xml:space="preserve">
<path d="M53.788,531.465c-4.965,0-9.93-1.894-13.712-5.682c-7.577-7.57-7.577-19.853,0-27.423l172.606-172.606
	c7.577-7.577,19.846-7.57,27.423,0l42.557,42.557L429.92,221.646c7.596-7.557,19.859-7.538,27.43,0.052
	c7.557,7.589,7.531,19.872-0.058,27.429l-160.97,160.323c-7.59,7.544-19.827,7.538-27.397-0.032l-42.531-42.524L67.499,525.782
	C63.718,529.57,58.746,531.465,53.788,531.465z"/>
<path d="M442.96,629.727H-29.606c-10.712,0-19.394-8.682-19.394-19.394V183.667c0-10.712,8.682-19.394,19.394-19.394
	s19.394,8.682,19.394,19.394v407.273H442.96c10.712,0,19.394,8.682,19.394,19.394C462.354,621.045,453.672,629.727,442.96,629.727z"
	/>
<path d="M443.606,399.592c-10.712,0-19.394-8.689-19.394-19.394V254.131H298.152c-10.712,0-19.394-8.682-19.394-19.394
	s8.682-19.394,19.394-19.394h145.455c10.712,0,19.394,8.682,19.394,19.394v145.455C463,390.904,454.318,399.592,443.606,399.592z"/>
</svg>
