<?xml version="1.0" encoding="iso-8859-1"?>
<!-- Generator: Adobe Illustrator 21.1.0, SVG Export Plug-In . SVG Version: 6.00 Build 0)  -->
<svg version="1.1" id="Capa_1" xmlns="http://www.w3.org/2000/svg" xmlns:xlink="http://www.w3.org/1999/xlink" x="0px" y="0px"
	 viewBox="-49 141 512 512" style="enable-background:new -49 141 512 512;" xml:space="preserve">
<path d="M5.236,353.409l-51.313,117.519v86.961c0,29.524,24.019,53.543,53.543,53.543H140.08V474.852h-39.067
	c-0.225,0-0.824,0-1.289-0.681c-0.409-0.598-0.289-1.102-0.198-1.356l23.773-57.351h29.887l23.472-58.949h89.838
	c17.714,0,32.449-12.976,35.212-29.921h20.415c22.113,0,40.103-17.991,40.103-40.103v-1.989H463V254.58H362.227v-1.988
	c0-22.113-17.991-40.103-40.103-40.103h-20.415c-2.764-16.945-17.498-29.921-35.212-29.921h-55.138h-14.961H26.738
	c-41.763,0-75.738,33.977-75.738,75.738v22.473C-49,315.074-26.084,344.119,5.236,353.409z M302.386,242.411h19.739
	c5.614,0,10.182,4.568,10.182,10.182v33.898c0,5.614-4.568,10.182-10.182,10.182h-19.739V242.411z M266.496,326.594h-55.138V212.49
	h55.138c3.179,0,5.764,2.584,5.764,5.763v102.579C272.26,324.009,269.675,326.594,266.496,326.594L266.496,326.594z
	 M-16.154,557.889v-1.254h126.313v24.875H7.467C-5.558,581.51-16.154,570.914-16.154,557.889z M-19.079,280.778v-22.472
	c0-25.263,20.554-45.816,45.816-45.816h154.7v114.105h-53.689L71.691,461.837c-3.789,9.694-2.546,20.614,3.324,29.209
	c5.869,8.596,15.588,13.729,25.998,13.729h9.146v21.939H-16.154v-49.54l65.749-150.581H26.738
	C1.474,326.594-19.079,306.04-19.079,280.778L-19.079,280.778z"/>
<path d="M119,258H54.333c-8.1,0-14.667-6.566-14.667-14.667v0c0-8.1,6.566-14.667,14.667-14.667H119
	c8.1,0,14.667,6.566,14.667,14.667v0C133.667,251.434,127.1,258,119,258z"/>
<path d="M119,303.667H54.333c-8.1,0-14.667-6.566-14.667-14.667l0,0c0-8.1,6.566-14.667,14.667-14.667H119
	c8.1,0,14.667,6.566,14.667,14.667l0,0C133.667,297.1,127.1,303.667,119,303.667z"/>
</svg>
