<?xml version="1.0" encoding="iso-8859-1"?>
<!-- Generator: Adobe Illustrator 21.1.0, SVG Export Plug-In . SVG Version: 6.00 Build 0)  -->
<svg version="1.1" id="Layer_1" xmlns="http://www.w3.org/2000/svg" xmlns:xlink="http://www.w3.org/1999/xlink" x="0px" y="0px"
	 viewBox="0 0 424.962 72.511" style="enable-background:new 0 0 424.962 72.511;" xml:space="preserve">
<g>
	<polygon style="fill-rule:evenodd;clip-rule:evenodd;fill:#C4161C;" points="206.002,51.742 206.002,20.771 210.271,20.771 
		214.053,20.771 223.571,20.771 231.622,20.771 241.038,20.771 249.192,28.925 249.192,51.742 241.141,51.742 241.141,28.015 
		231.622,28.015 231.622,51.742 223.571,51.742 223.571,28.015 214.053,28.015 214.053,51.742 206.002,51.742 	"/>
	<path style="fill-rule:evenodd;clip-rule:evenodd;fill:#C4161C;" d="M261.491,32.554h18.12v-4.539h-26.274v-7.244h26.17
		l8.154,8.154v22.817h-5.621h-2.429h-18.223h-6.209h-1.842V40.709L261.491,32.554L261.491,32.554z M279.611,44.494v-4.696h-18.223
		v4.696H279.611L279.611,44.494z"/>
	<polygon style="fill-rule:evenodd;clip-rule:evenodd;fill:#C4161C;" points="300.773,28.015 300.773,32.42 327.092,32.42 
		327.092,33.103 327.092,39.664 327.092,43.588 318.938,51.742 292.754,51.742 292.754,44.494 319.042,44.494 319.042,39.664 
		300.773,39.664 300.234,39.664 292.754,39.664 292.754,28.925 300.907,20.771 327.092,20.771 327.092,28.015 300.773,28.015 	"/>
	<polygon style="fill-rule:evenodd;clip-rule:evenodd;fill:#C4161C;" points="331.684,43.588 331.684,13.55 339.735,13.55 
		339.735,20.771 355.876,20.771 355.876,27.988 339.735,27.988 339.735,44.525 355.876,44.525 355.876,51.742 339.838,51.742 
		331.684,43.588 	"/>
	<path style="fill-rule:evenodd;clip-rule:evenodd;fill:#C4161C;" d="M385.747,39.959h-18.105v4.535H393.9v7.248h-26.258h-0.601
		h-7.451V28.925l8.153-8.154h18.135h6.193h1.829v11.033L385.747,39.959L385.747,39.959z M367.642,28.015v4.696h18.236v-4.696
		H367.642L367.642,28.015z"/>
	<polygon style="fill-rule:evenodd;clip-rule:evenodd;fill:#C4161C;" points="406.693,27.988 406.693,51.742 398.639,51.742 
		398.639,28.925 400.037,27.527 402.718,24.845 406.793,20.771 424.962,20.771 424.962,27.988 406.693,27.988 	"/>
	<path style="fill-rule:evenodd;clip-rule:evenodd;fill:#004282;" d="M165.888,28.925v-0.134V28.925L165.888,28.925z
		 M193.475,20.771h4.894h3.159v22.817l-8.154,8.154h-19.435h-2.429h-5.622V28.925l8.154-8.154H193.475L193.475,20.771z
		 M173.939,28.015v16.479h19.536V28.015H173.939L173.939,28.015z"/>
	<polygon style="fill-rule:evenodd;clip-rule:evenodd;fill:#004282;" points="113.726,20.769 113.726,44.494 130.775,44.494 
		130.775,20.769 138.828,20.769 138.828,51.74 136.833,51.74 130.775,51.74 113.829,51.74 105.674,43.588 105.674,20.769 
		113.726,20.769 	"/>
	<path style="fill-rule:evenodd;clip-rule:evenodd;fill:#004282;" d="M143.571,28.925v-0.134V28.925L143.571,28.925z
		 M151.622,27.988v23.754h-8.051V28.925l8.155-8.154h18.057l-7.219,7.217H151.622L151.622,27.988z"/>
	<path style="fill-rule:evenodd;clip-rule:evenodd;fill:#004282;" d="M93.684,39.959H75.577v4.535h26.26v7.248h-26.26h-0.6h-7.451
		V28.925l8.155-8.154h18.135h6.192h1.829v11.033L93.684,39.959L93.684,39.959z M75.577,28.015v4.696h18.239v-4.696H75.577
		L75.577,28.015z"/>
	<polygon style="fill-rule:evenodd;clip-rule:evenodd;fill:#004282;" points="37.951,56.418 17.337,51.541 17.337,48.062 
		37.951,43.185 37.951,40.902 37.951,36.255 37.951,31.609 37.951,29.328 17.337,24.447 17.337,20.97 37.951,16.093 59.059,21.086 
		59.054,51.423 37.951,56.418 	"/>
	<polygon style="fill-rule:evenodd;clip-rule:evenodd;fill:#004282;" points="0,8.976 37.951,0 37.951,9.164 10.146,15.744 
		10.146,18.062 10.146,27.357 10.146,29.675 30.763,34.554 30.763,37.957 10.146,42.834 10.146,45.152 10.146,54.447 10.146,56.767 
		37.951,63.345 37.951,72.511 0.009,63.533 0,8.976 	"/>
</g>
</svg>
