<?xml version="1.0" encoding="iso-8859-1"?>
<!-- Generator: Adobe Illustrator 21.1.0, SVG Export Plug-In . SVG Version: 6.00 Build 0)  -->
<svg version="1.1" id="Layer_1" xmlns="http://www.w3.org/2000/svg" xmlns:xlink="http://www.w3.org/1999/xlink" x="0px" y="0px"
	 viewBox="0 0 11 11" style="enable-background:new 0 0 11 11;" xml:space="preserve">
<path style="fill:#FFFFFF;" d="M9.899,0H1.101C0.494,0,0,0.494,0,1.101v8.797C0,10.506,0.494,11,1.101,11h8.797
	C10.506,11,11,10.506,11,9.899V1.101C11,0.494,10.506,0,9.899,0z M3.301,9.351H1.649V4.399h1.652V9.351z M2.476,3.464
	c-0.551,0-0.991-0.441-0.991-0.988c0-0.551,0.441-0.991,0.991-0.991c0.547,0,0.988,0.441,0.988,0.991
	C3.464,3.024,3.024,3.464,2.476,3.464z M9.351,9.351H7.699V6.434c0-0.44-0.384-0.824-0.824-0.824S6.051,5.994,6.051,6.434v2.917
	H4.399V4.399h1.652v0.661c0.274-0.44,0.878-0.771,1.375-0.771c1.044,0,1.926,0.881,1.926,1.926V9.351z"/>
</svg>
