<?xml version="1.0" encoding="iso-8859-1"?>
<!-- Generator: Adobe Illustrator 21.1.0, SVG Export Plug-In . SVG Version: 6.00 Build 0)  -->
<svg version="1.1" id="Layer_1" xmlns="http://www.w3.org/2000/svg" xmlns:xlink="http://www.w3.org/1999/xlink" x="0px" y="0px"
	 viewBox="0 0 320.015 96.232" style="enable-background:new 0 0 320.015 96.232;" xml:space="preserve">
<g>
	<path style="fill-rule:evenodd;clip-rule:evenodd;fill:#fff;" d="M290.759,53.024c5.068,0,9.176-4.442,9.176-9.921
		c0-5.478-4.108-9.92-9.176-9.92c-5.07,0-9.178,4.442-9.178,9.92C281.581,48.582,285.689,53.024,290.759,53.024L290.759,53.024z
		 M266.189,43.578c0-13.13,10.93-23.773,24.518-23.773c13.588,0,24.519,10.643,24.519,23.773c0,13.129-10.931,23.771-24.519,23.771
		S266.189,56.707,266.189,43.578L266.189,43.578z"/>
	<path style="fill-rule:evenodd;clip-rule:evenodd;fill:#fff;" d="M19.287,21.663H0.018v12.875h4.171v18.224H0.018v13.147
		l19.649-0.002V38.239c-0.019-2.45,0.777-4.916,4.396-4.916c3.668,0,4.459,2.466,4.446,4.946v27.64l15.129-0.002l-0.001-27.638
		c0.007-2.48,0.798-4.946,4.367-4.946c3.618,0,4.41,2.466,4.429,4.946l-0.002,27.638l19.697,0.002V52.762h-4.171V34.538
		c0-9.973-5.21-14.734-12.531-14.734c-5.116,0-9.426,1.981-12.804,5.757c-2.076-3.437-4.47-5.756-11.106-5.757
		c-5.471,0.059-9.089,1.94-12.227,5.595V21.663L19.287,21.663z"/>
	<polygon style="fill-rule:evenodd;clip-rule:evenodd;fill:#fff;" points="146.47,7.457 131.472,7.457 131.472,21.697 
		127.351,21.697 127.351,34.536 131.472,34.536 131.472,52.762 127.239,52.762 127.239,65.909 150.785,65.909 150.785,52.762 
		146.601,52.762 146.601,34.536 150.564,34.536 150.564,21.697 146.47,21.697 146.47,7.457 	"/>
	<path style="fill-rule:evenodd;clip-rule:evenodd;fill:#fff;" d="M177.974,52.907c5.039,0,9.123-4.416,9.123-9.862
		c0-5.447-4.084-9.862-9.123-9.862c-5.039,0-9.123,4.415-9.123,9.862C168.851,48.491,172.935,52.907,177.974,52.907L177.974,52.907z
		 M186.71,24.743v-3.092h19.2v12.885h-3.651v18.226h3.596v13.145l-19.504,0.008l0.014-3.094c-3.417,2.927-7.569,4.528-12.163,4.528
		c-11.313,0-20.482-10.503-20.482-23.459c0-12.955,9.169-23.457,20.482-23.457C178.893,20.433,183.256,21.703,186.71,24.743
		L186.71,24.743z"/>
	<path style="fill-rule:evenodd;clip-rule:evenodd;fill:#fff;" d="M239.191,52.878c5.031,0,9.11-4.408,9.11-9.847
		c0-5.438-4.079-9.847-9.11-9.847c-5.031,0-9.109,4.409-9.109,9.847C230.082,48.469,234.16,52.878,239.191,52.878L239.191,52.878z
		 M242.931,20.5c11.296,0,20.454,10.488,20.454,23.425c0,12.937-9.158,23.424-20.454,23.424c-4.588,0-8.773-1.595-12.185-4.518
		v3.075h-19.478V52.762h3.646V17.398h-3.646V4.647h19.173v20.157C233.889,21.768,238.247,20.5,242.931,20.5L242.931,20.5z"/>
	<path style="fill-rule:evenodd;clip-rule:evenodd;fill:#fff;" d="M107.054,38.717c0-4.163-3.533-7.598-7.832-7.598
		c-3.753,0-7.682,3.455-7.682,7.598H107.054L107.054,38.717z M106.809,53.165h15.842c-1.737,6.906-10.695,14.708-23.295,14.758
		c-12.68,0.051-24.361-8.752-24.36-23.924c0-12.715,8.954-23.716,24.36-23.925c14.876-0.202,24.304,11.283,24.361,23.925
		c0.005,1.326-0.129,2.379-0.348,3.647H91.587c0.112,5.624,3.141,7.848,7.572,8.156C101.392,55.957,104.864,55.378,106.809,53.165
		L106.809,53.165z"/>
	<path style="fill-rule:evenodd;clip-rule:evenodd;fill:#fff;" d="M314.064,5.157c1.013-0.031,1.246-0.452,1.246-0.981
		c0-0.514-0.233-0.779-1.09-0.779h-1.294v1.76H314.064L314.064,5.157z M312.926,6.232v2.976h-1.074V2.321h2.229
		c1.261,0,2.57,0.343,2.57,1.901c0,0.794-0.482,1.417-1.403,1.604l0,0.031c0.951,0.188,1.06,0.608,1.17,1.356
		c0.092,0.654,0.17,1.371,0.405,1.994h-1.371c-0.079-0.39-0.188-0.826-0.234-1.231c-0.079-0.592-0.079-1.137-0.39-1.464
		c-0.266-0.28-0.622-0.249-0.997-0.28H312.926L312.926,6.232z M318.988,5.843c0-2.649-2.15-4.814-4.815-4.814
		c-2.679,0-4.845,2.166-4.845,4.814c0,2.68,2.166,4.845,4.845,4.845C316.838,10.688,318.988,8.522,318.988,5.843L318.988,5.843z
		 M308.3,5.843c0-3.225,2.618-5.843,5.873-5.843c3.241,0,5.842,2.617,5.842,5.843c0,3.256-2.601,5.874-5.842,5.874
		C310.918,11.716,308.3,9.098,308.3,5.843L308.3,5.843z"/>
	<line style="fill:none;stroke:#fff;stroke-width:0.9998;stroke-miterlimit:10;" x1="0" y1="79.532" x2="315.35" y2="79.532"/>
	<path style="fill-rule:evenodd;clip-rule:evenodd;fill:#fff;" d="M2.013,90.849h0.806c0.65,0,1.859,0,1.859-1.43
		c0-1.273-1.079-1.273-1.651-1.273H2.013V90.849L2.013,90.849z M0.024,86.624h2.899c1.352,0,2.483,0.091,3.263,1.027
		c0.494,0.598,0.572,1.274,0.572,1.754c0,1.093-0.455,2.016-1.196,2.496c-0.689,0.443-1.638,0.443-2.132,0.443H2.065v3.653H0.024
		V86.624L0.024,86.624z"/>
	<path style="fill-rule:evenodd;clip-rule:evenodd;fill:#fff;" d="M11.411,90.706h1.625c0.234,0,0.702,0,1.027-0.26
		c0.143-0.104,0.52-0.429,0.52-1.091c0-0.638-0.312-0.937-0.494-1.054c-0.312-0.222-0.689-0.222-1.326-0.222h-1.352V90.706
		L11.411,90.706z M9.423,86.598h3.601c1.04-0.013,2.093-0.013,2.847,0.637c0.585,0.506,0.819,1.196,0.819,1.807
		c0,1.755-1.508,2.171-1.964,2.301c1.418,0.131,1.522,0.935,1.691,2.158c0.143,1.105,0.221,1.561,0.286,1.82
		c0.103,0.416,0.182,0.52,0.286,0.676h-2.223c-0.091-0.519-0.377-2.898-0.507-3.263C14.077,92.2,13.583,92.2,13.244,92.2h-1.768
		v3.797H9.423V86.598L9.423,86.598z"/>
	<path style="fill-rule:evenodd;clip-rule:evenodd;fill:#fff;" d="M22.059,93.995c0.286,0.391,0.767,0.754,1.703,0.754
		c0.819,0,1.378-0.286,1.755-0.871c0.313-0.468,0.637-1.195,0.637-2.691c0-0.455-0.039-1.105-0.234-1.677
		c-0.39-1.157-1.183-1.664-2.145-1.664c-0.754,0-1.352,0.311-1.729,0.793c-0.533,0.649-0.689,1.664-0.689,2.729
		C21.356,92.267,21.499,93.267,22.059,93.995L22.059,93.995z M23.762,86.403c1.001,0,2.379,0.234,3.302,1.274
		c1.001,1.144,1.196,2.613,1.196,3.536c0,1.365-0.416,2.821-1.183,3.679c-1.04,1.17-2.562,1.341-3.341,1.341
		c-1.235,0-2.47-0.391-3.328-1.288c-1.027-1.091-1.157-2.652-1.157-3.509C19.25,88.939,20.382,86.403,23.762,86.403L23.762,86.403z"
		/>
	<polygon style="fill-rule:evenodd;clip-rule:evenodd;fill:#fff;" points="31.236,86.61 37.294,86.61 37.294,88.118 
		33.252,88.118 33.252,90.433 37.021,90.433 37.021,91.993 33.252,91.993 33.252,95.997 31.236,95.997 31.236,86.61 	"/>
	<polygon style="fill-rule:evenodd;clip-rule:evenodd;fill:#fff;" points="40.05,86.598 46.342,86.598 46.342,88.132 
		42.065,88.132 42.065,90.368 46.07,90.368 46.07,91.901 42.065,91.901 42.065,94.437 46.486,94.437 46.486,95.997 40.05,95.997 
		40.05,86.598 	"/>
	<path style="fill-rule:evenodd;clip-rule:evenodd;fill:#fff;" d="M51.061,92.994c0,0.443-0.026,1.781,1.703,1.781
		c1.092,0,1.781-0.52,1.781-1.313c0-0.832-0.585-0.975-1.781-1.262c-2.236-0.558-3.458-1.22-3.458-2.845
		c0-1.548,1.105-2.913,3.718-2.913c0.975,0,2.132,0.221,2.834,1.105c0.533,0.676,0.533,1.431,0.533,1.741h-1.937
		c-0.026-0.324-0.13-1.429-1.521-1.429c-0.936,0-1.547,0.507-1.547,1.274c0,0.871,0.689,1.026,2.041,1.365
		c1.626,0.39,3.224,0.832,3.224,2.665c0,1.69-1.404,3.055-4.004,3.055c-3.601,0-3.627-2.315-3.64-3.224H51.061L51.061,92.994z"/>
	<path style="fill-rule:evenodd;clip-rule:evenodd;fill:#fff;" d="M61.253,92.994c0,0.443-0.026,1.781,1.702,1.781
		c1.092,0,1.782-0.52,1.782-1.313c0-0.832-0.585-0.975-1.782-1.262c-2.236-0.558-3.458-1.22-3.458-2.845
		c0-1.548,1.105-2.913,3.718-2.913c0.975,0,2.132,0.221,2.834,1.105c0.533,0.676,0.533,1.431,0.533,1.741h-1.937
		c-0.026-0.324-0.13-1.429-1.521-1.429c-0.936,0-1.547,0.507-1.547,1.274c0,0.871,0.689,1.026,2.041,1.365
		c1.625,0.39,3.224,0.832,3.224,2.665c0,1.69-1.404,3.055-4.004,3.055c-3.601,0-3.628-2.315-3.64-3.224H61.253L61.253,92.994z"/>
	<polygon style="fill-rule:evenodd;clip-rule:evenodd;fill:#fff;" points="69.717,86.571 71.731,86.571 71.731,95.997 
		69.717,95.997 69.717,86.571 	"/>
	<path style="fill-rule:evenodd;clip-rule:evenodd;fill:#fff;" d="M77.425,93.995c0.287,0.391,0.767,0.754,1.704,0.754
		c0.818,0,1.377-0.286,1.755-0.871c0.311-0.468,0.637-1.195,0.637-2.691c0-0.455-0.039-1.105-0.234-1.677
		c-0.39-1.157-1.183-1.664-2.145-1.664c-0.754,0-1.352,0.311-1.729,0.793c-0.534,0.649-0.689,1.664-0.689,2.729
		C76.724,92.267,76.866,93.267,77.425,93.995L77.425,93.995z M79.129,86.403c1,0,2.379,0.234,3.302,1.274
		c1.001,1.144,1.196,2.613,1.196,3.536c0,1.365-0.416,2.821-1.184,3.679c-1.04,1.17-2.561,1.341-3.34,1.341
		c-1.236,0-2.471-0.391-3.328-1.288c-1.028-1.091-1.158-2.652-1.158-3.509C74.617,88.939,75.749,86.403,79.129,86.403L79.129,86.403
		z"/>
	<polygon style="fill-rule:evenodd;clip-rule:evenodd;fill:#fff;" points="86.642,86.598 89.554,86.598 93.077,93.995 
		93.077,86.598 94.949,86.598 94.949,95.997 92.181,95.997 88.54,88.196 88.54,95.997 86.642,95.997 86.642,86.598 	"/>
	<path style="fill-rule:evenodd;clip-rule:evenodd;fill:#fff;" d="M103.243,92.448l-1.3-4.004l-1.391,4.004H103.243
		L103.243,92.448z M103.191,86.598l3.263,9.399h-2.028l-0.676-2.027h-3.718l-0.702,2.027h-1.924l3.393-9.399H103.191L103.191,86.598
		z"/>
	<polygon style="fill-rule:evenodd;clip-rule:evenodd;fill:#fff;" points="109.146,86.61 111.199,86.61 111.199,94.398 
		115.23,94.398 115.23,95.997 109.146,95.997 109.146,86.61 	"/>
	<path style="fill-rule:evenodd;clip-rule:evenodd;fill:#fff;" d="M124.966,90.849h0.807c0.649,0,1.858,0,1.858-1.43
		c0-1.273-1.079-1.273-1.651-1.273h-1.014V90.849L124.966,90.849z M122.977,86.624h2.899c1.352,0,2.483,0.091,3.263,1.027
		c0.494,0.598,0.572,1.274,0.572,1.754c0,1.093-0.455,2.016-1.196,2.496c-0.689,0.443-1.638,0.443-2.132,0.443h-1.365v3.653h-2.041
		V86.624L122.977,86.624z"/>
	<path style="fill-rule:evenodd;clip-rule:evenodd;fill:#fff;" d="M134.95,93.995c0.285,0.391,0.767,0.754,1.703,0.754
		c0.819,0,1.378-0.286,1.755-0.871c0.312-0.468,0.637-1.195,0.637-2.691c0-0.455-0.039-1.105-0.234-1.677
		c-0.39-1.157-1.183-1.664-2.145-1.664c-0.754,0-1.352,0.311-1.729,0.793c-0.534,0.649-0.689,1.664-0.689,2.729
		C134.248,92.267,134.391,93.267,134.95,93.995L134.95,93.995z M136.653,86.403c1.001,0,2.379,0.234,3.302,1.274
		c1.001,1.144,1.196,2.613,1.196,3.536c0,1.365-0.416,2.821-1.183,3.679c-1.04,1.17-2.561,1.341-3.341,1.341
		c-1.235,0-2.47-0.391-3.328-1.288c-1.027-1.091-1.157-2.652-1.157-3.509C132.142,88.939,133.273,86.403,136.653,86.403
		L136.653,86.403z"/>
	<polygon style="fill-rule:evenodd;clip-rule:evenodd;fill:#fff;" points="145.246,86.637 146.702,93.67 148.535,86.637 
		150.81,86.637 152.461,93.67 153.983,86.637 155.906,86.637 153.514,96.023 151.278,96.023 149.575,88.847 147.742,96.023 
		145.454,96.023 143.166,86.637 145.246,86.637 	"/>
	<polygon style="fill-rule:evenodd;clip-rule:evenodd;fill:#fff;" points="158.454,86.598 164.746,86.598 164.746,88.132 
		160.47,88.132 160.47,90.368 164.474,90.368 164.474,91.901 160.47,91.901 160.47,94.437 164.89,94.437 164.89,95.997 
		158.454,95.997 158.454,86.598 	"/>
	<path style="fill-rule:evenodd;clip-rule:evenodd;fill:#fff;" d="M169.726,90.706h1.625c0.233,0,0.701,0,1.026-0.26
		c0.144-0.104,0.521-0.429,0.521-1.091c0-0.638-0.312-0.937-0.494-1.054c-0.313-0.222-0.69-0.222-1.326-0.222h-1.352V90.706
		L169.726,90.706z M167.736,86.598h3.601c1.04-0.013,2.094-0.013,2.848,0.637c0.584,0.506,0.819,1.196,0.819,1.807
		c0,1.755-1.508,2.171-1.963,2.301c1.416,0.131,1.521,0.935,1.689,2.158c0.143,1.105,0.221,1.561,0.287,1.82
		c0.104,0.416,0.182,0.52,0.285,0.676h-2.222c-0.092-0.519-0.377-2.898-0.508-3.263c-0.182-0.534-0.676-0.534-1.014-0.534h-1.767
		v3.797h-2.055V86.598L167.736,86.598z"/>
	<polygon style="fill-rule:evenodd;clip-rule:evenodd;fill:#fff;" points="184.025,88.157 181.23,88.157 181.23,86.598 
		188.849,86.598 188.849,88.157 186.052,88.157 186.052,95.997 184.025,95.997 184.025,88.157 	"/>
	<path style="fill-rule:evenodd;clip-rule:evenodd;fill:#fff;" d="M193.347,93.995c0.285,0.391,0.766,0.754,1.703,0.754
		c0.819,0,1.377-0.286,1.754-0.871c0.313-0.468,0.637-1.195,0.637-2.691c0-0.455-0.039-1.105-0.234-1.677
		c-0.389-1.157-1.182-1.664-2.145-1.664c-0.754,0-1.351,0.311-1.728,0.793c-0.534,0.649-0.69,1.664-0.69,2.729
		C192.644,92.267,192.787,93.267,193.347,93.995L193.347,93.995z M195.05,86.403c1,0,2.379,0.234,3.301,1.274
		c1.002,1.144,1.197,2.613,1.197,3.536c0,1.365-0.416,2.821-1.183,3.679c-1.041,1.17-2.561,1.341-3.342,1.341
		c-1.234,0-2.469-0.391-3.328-1.288c-1.027-1.091-1.156-2.652-1.156-3.509C190.539,88.939,191.67,86.403,195.05,86.403
		L195.05,86.403z"/>
	<path style="fill-rule:evenodd;clip-rule:evenodd;fill:#fff;" d="M204.982,93.995c0.285,0.391,0.766,0.754,1.703,0.754
		c0.819,0,1.377-0.286,1.754-0.871c0.313-0.468,0.637-1.195,0.637-2.691c0-0.455-0.039-1.105-0.235-1.677
		c-0.388-1.157-1.181-1.664-2.144-1.664c-0.754,0-1.352,0.311-1.729,0.793c-0.533,0.649-0.689,1.664-0.689,2.729
		C204.279,92.267,204.421,93.267,204.982,93.995L204.982,93.995z M206.685,86.403c1,0,2.379,0.234,3.301,1.274
		c1.002,1.144,1.197,2.613,1.197,3.536c0,1.365-0.416,2.821-1.183,3.679c-1.041,1.17-2.561,1.341-3.342,1.341
		c-1.235,0-2.469-0.391-3.328-1.288c-1.028-1.091-1.157-2.652-1.157-3.509C202.173,88.939,203.304,86.403,206.685,86.403
		L206.685,86.403z"/>
	<polygon style="fill-rule:evenodd;clip-rule:evenodd;fill:#fff;" points="214.16,86.61 216.212,86.61 216.212,94.398 
		220.244,94.398 220.244,95.997 214.16,95.997 214.16,86.61 	"/>
	<path style="fill-rule:evenodd;clip-rule:evenodd;fill:#fff;" d="M229.656,92.994c0,0.443-0.026,1.781,1.703,1.781
		c1.092,0,1.781-0.52,1.781-1.313c0-0.832-0.586-0.975-1.781-1.262c-2.236-0.558-3.459-1.22-3.459-2.845
		c0-1.548,1.105-2.913,3.719-2.913c0.974,0,2.133,0.221,2.834,1.105c0.533,0.676,0.533,1.431,0.533,1.741h-1.938
		c-0.025-0.324-0.128-1.429-1.521-1.429c-0.936,0-1.547,0.507-1.547,1.274c0,0.871,0.69,1.026,2.041,1.365
		c1.625,0.39,3.225,0.832,3.225,2.665c0,1.69-1.405,3.055-4.004,3.055c-3.602,0-3.627-2.315-3.641-3.224H229.656L229.656,92.994z"/>
	<path style="fill-rule:evenodd;clip-rule:evenodd;fill:#fff;" d="M240.693,93.995c0.285,0.391,0.766,0.754,1.703,0.754
		c0.818,0,1.377-0.286,1.754-0.871c0.312-0.468,0.637-1.195,0.637-2.691c0-0.455-0.039-1.105-0.235-1.677
		c-0.388-1.157-1.181-1.664-2.144-1.664c-0.754,0-1.352,0.311-1.729,0.793c-0.533,0.649-0.689,1.664-0.689,2.729
		C239.99,92.267,240.132,93.267,240.693,93.995L240.693,93.995z M242.396,86.403c1,0,2.379,0.234,3.301,1.274
		c1.002,1.144,1.197,2.613,1.197,3.536c0,1.365-0.416,2.821-1.183,3.679c-1.041,1.17-2.561,1.341-3.342,1.341
		c-1.235,0-2.469-0.391-3.328-1.288c-1.028-1.091-1.157-2.652-1.157-3.509C237.884,88.939,239.015,86.403,242.396,86.403
		L242.396,86.403z"/>
	<polygon style="fill-rule:evenodd;clip-rule:evenodd;fill:#fff;" points="249.871,86.61 251.923,86.61 251.923,94.398 
		255.955,94.398 255.955,95.997 249.871,95.997 249.871,86.61 	"/>
	<path style="fill-rule:evenodd;clip-rule:evenodd;fill:#fff;" d="M260.673,86.624v5.72c0,1.027,0.079,2.314,2.041,2.314
		c0.325,0,1.299-0.012,1.821-0.819c0.193-0.285,0.299-0.65,0.299-1.6v-5.615h1.962v5.863c0,2.795-2.222,3.692-4.121,3.692
		c-0.935,0-2.652-0.207-3.537-1.625c-0.455-0.715-0.48-1.444-0.48-2.315v-5.615H260.673L260.673,86.624z"/>
	<polygon style="fill-rule:evenodd;clip-rule:evenodd;fill:#fff;" points="272.336,88.157 269.539,88.157 269.539,86.598 
		277.158,86.598 277.158,88.157 274.363,88.157 274.363,95.997 272.336,95.997 272.336,88.157 	"/>
	<polygon style="fill-rule:evenodd;clip-rule:evenodd;fill:#fff;" points="279.601,86.571 281.617,86.571 281.617,95.997 
		279.601,95.997 279.601,86.571 	"/>
	<path style="fill-rule:evenodd;clip-rule:evenodd;fill:#fff;" d="M287.31,93.995c0.287,0.391,0.768,0.754,1.703,0.754
		c0.819,0,1.379-0.286,1.756-0.871c0.311-0.468,0.637-1.195,0.637-2.691c0-0.455-0.039-1.105-0.235-1.677
		c-0.39-1.157-1.183-1.664-2.144-1.664c-0.754,0-1.354,0.311-1.731,0.793c-0.531,0.649-0.687,1.664-0.687,2.729
		C286.609,92.267,286.752,93.267,287.31,93.995L287.31,93.995z M289.013,86.403c1.002,0,2.379,0.234,3.303,1.274
		c1,1.144,1.195,2.613,1.195,3.536c0,1.365-0.416,2.821-1.183,3.679c-1.039,1.17-2.561,1.341-3.34,1.341
		c-1.236,0-2.471-0.391-3.328-1.288c-1.028-1.091-1.158-2.652-1.158-3.509C284.502,88.939,285.632,86.403,289.013,86.403
		L289.013,86.403z"/>
	<polygon style="fill-rule:evenodd;clip-rule:evenodd;fill:#fff;" points="296.527,86.598 299.439,86.598 302.962,93.995 
		302.962,86.598 304.834,86.598 304.834,95.997 302.066,95.997 298.425,88.196 298.425,95.997 296.527,95.997 296.527,86.598 	"/>
	<path style="fill-rule:evenodd;clip-rule:evenodd;fill:#fff;" d="M309.734,92.994c0,0.443-0.025,1.781,1.703,1.781
		c1.094,0,1.781-0.52,1.781-1.313c0-0.832-0.584-0.975-1.781-1.262c-2.234-0.558-3.457-1.22-3.457-2.845
		c0-1.548,1.106-2.913,3.719-2.913c0.974,0,2.131,0.221,2.834,1.105c0.531,0.676,0.531,1.431,0.531,1.741h-1.935
		c-0.028-0.324-0.131-1.429-1.522-1.429c-0.936,0-1.547,0.507-1.547,1.274c0,0.871,0.69,1.026,2.041,1.365
		c1.625,0.39,3.225,0.832,3.225,2.665c0,1.69-1.405,3.055-4.006,3.055c-3.6,0-3.627-2.315-3.639-3.224H309.734L309.734,92.994z"/>
</g>
</svg>
