<?xml version="1.0" encoding="iso-8859-1"?>
<!-- Generator: Adobe Illustrator 21.1.0, SVG Export Plug-In . SVG Version: 6.00 Build 0)  -->
<svg version="1.1" id="Layer_1" xmlns="http://www.w3.org/2000/svg" xmlns:xlink="http://www.w3.org/1999/xlink" x="0px" y="0px"
	 viewBox="0 0 86.544 27.398" style="enable-background:new 0 0 86.544 27.398;" xml:space="preserve">
<g>
	<path style="fill-rule:evenodd;clip-rule:evenodd;fill:#fff;" d="M43.155,16.263c0.044-0.11,0-0.197-0.219-0.219
		c-0.789,0-1.775,0.044-2.476,0.044c-0.92,0-1.841-0.153-2.476-0.153c-0.197,0.044-0.263,0.066-0.416,0.482
		c1.709,0.263,2.016,0.46,1.885,1.468l-0.329,2.279c-0.066,0.438-0.175,0.833-0.351,0.942c-0.285,0.175-0.789,0.351-1.271,0.351
		c-1.293,0-2.586-0.482-3.506-1.468c-0.745-0.789-1.468-2.367-1.468-4.514c0-2.126,0.767-4.339,1.994-5.698
		c0.758-0.832,1.641-1.367,2.767-1.515l0.023-0.608c-1.32,0.136-2.754,0.567-3.886,1.29c-2.244,1.433-3.572,3.703-3.572,6.859
		c0,1.863,0.723,3.572,1.863,4.602c1.337,1.183,3.309,1.713,5.062,1.713c1.841,0,3.199-0.552,4.514-0.573l0.416-0.022
		c0.219-0.022,0.285-0.132,0.482-0.548c-0.526-0.109-0.811-0.175-0.811-0.548c0-0.657,0.175-1.994,0.285-2.608
		c0.132-0.833,0.219-1.096,1.381-1.249L43.155,16.263L43.155,16.263z"/>
	<path style="fill-rule:evenodd;clip-rule:evenodd;fill:#fff;" d="M45.632,22.052c0.088,0,0.175-0.066,0.329-0.219
		c0.263-0.267,2.63-2.984,3.375-3.882c0.022,0.314-0.285,2.283-0.526,3.769c0.109,0.157,0.351,0.376,0.526,0.376
		c0.373,0,2.805-2.502,3.134-3.006c0-0.153-0.109-0.329-0.153-0.351c-0.438,0.351-0.811,0.614-1.293,0.877
		c-0.153-0.109-0.219-0.745,0-2.191c0.219-1.534,0.548-3.046,0.942-4.448c-0.372,0-0.899,0.153-1.205,0.263
		c-0.263-0.11-0.833-0.154-1.315-0.154c-0.438,0-0.745,0.132-0.942,0.219c-1.709,1.052-2.52,1.775-3.134,2.498
		c-0.636,0.701-1.227,2.148-1.227,3.594c0,0.898,0.219,1.665,0.636,2.147c0.307,0.332,0.657,0.508,0.833,0.508H45.632L45.632,22.052
		z M45.982,18.224c0-0.92,0.263-2.25,0.92-3.17c0.329-0.457,0.723-0.785,1.468-0.785c0.636,0,1.161,0.088,1.424,0.219
		c-0.197,1.486-0.373,2.184-0.57,2.578c-0.614,1.202-2.126,2.838-2.476,2.838c-0.57,0-0.767-0.895-0.767-1.658V18.224L45.982,18.224
		z M55.624,13.085c-0.285,0-2.411,2.082-2.673,2.367c0.022,0.065,0.241,0.285,0.329,0.263c0.197-0.132,0.548-0.351,0.942-0.57
		c0.241-0.088,0.35,0.022,0.35,0.504c-0.044,1.95-0.679,4.514-0.986,6.096c-0.044,0.153,0.197,0.307,0.263,0.307
		c0.372,0,1.49-0.241,1.709-0.486c0.153-0.197,0.482-2.761,0.723-3.747c0.395-1.534,1.14-2.695,2.213-2.695
		c0.504,0,0.767,0.197,0.899,0.285c0.109,0.066,0.197,0.088,0.307-0.022c0.285-0.285,0.372-1.205,0.372-1.49
		c0-0.504-0.657-0.899-1.14-0.899c-0.241,0-0.548,0.088-0.745,0.329c-0.351,0.351-1.359,2.169-1.819,2.958
		c-0.066,0.132-0.175,0.132-0.175,0.022c0.022-0.504,0.11-1.709,0.066-2.301c-0.022-0.416-0.241-0.92-0.614-0.92H55.624
		L55.624,13.085z M62.11,22.03c0.132,0,0.241-0.066,0.329-0.197c0.241-0.245,2.454-2.611,3.243-3.597
		c0.132,0,0.066,0.46-0.263,3.002c-0.088,0.661,0.132,1.012,0.351,1.012c0.636,0,2.98-2.261,3.287-2.83
		c0.044-0.329-0.022-0.416-0.109-0.351c-0.307,0.241-0.855,0.701-1.205,0.854c-0.307,0.154-0.395-0.197-0.132-2.345
		c0.395-3.353,1.096-7.363,1.293-8.48c0.329-1.819,0.372-2.432,0.044-2.432c-0.526,0-2.761,0.986-3.419,1.315
		c-0.044,0.044,0.153,0.263,0.219,0.263c0.197,0,0.526-0.066,1.118-0.153c0.197-0.022,0.263,0.066,0.241,0.329
		c-0.022,0.723-0.351,3.156-0.613,4.755c-0.351-0.088-0.701-0.11-1.008-0.11c-0.241,0-0.482,0.088-0.745,0.175
		c-1.161,0.504-3.287,2.257-3.835,3.484c-0.373,0.811-0.57,1.578-0.57,2.388c0,1.271,0.57,2.918,1.753,2.918H62.11L62.11,22.03z
		 M63.053,19.966c-0.613,0-0.854-1.096-0.854-2.06c0-1.118,0.482-2.432,1.008-3.068c0.307-0.373,0.679-0.657,1.249-0.657
		c0.876,0,1.446,0.153,1.775,0.372c-0.11,1.161-0.263,2.06-0.416,2.564c-0.855,1.534-2.191,2.849-2.739,2.849H63.053L63.053,19.966z
		 M70.021,18.849c0,1.994,0.986,3.181,2.279,3.181c0.285,0,2.805-1.056,3.769-1.801c-0.066-0.329-0.132-0.351-0.307-0.285
		c-0.504,0.197-1.403,0.504-2.016,0.504c-1.249,0-1.797-0.899-1.797-2.169c0-0.416,0-0.767,0.066-1.052
		c0.898-0.197,3.287-0.657,3.922-1.161c0.175-0.132,0.438-0.679,0.438-1.161c-0.022-1.381-1.249-1.841-1.644-1.841
		c-0.438,0-2.366,0.833-2.717,1.074c-1.38,0.855-1.994,3.09-1.994,4.69V18.849L70.021,18.849z M73.44,13.962
		c1.03,0,1.271,1.14,1.271,1.621c0,0.394-1.731,1.008-2.454,1.161c-0.066,0.022-0.153-0.109-0.153-0.197
		c0.066-0.657,0.504-2.585,1.315-2.585H73.44L73.44,13.962z M86.434,19.111c-1.14,0.789-1.402,0.833-1.359,0.548
		c0.132-0.964,0.723-3.923,0.811-4.624c0.153-1.03-0.175-2.06-0.876-2.06c-0.197,0-1.03,0.504-1.666,1.052
		c-0.876,0.767-1.775,1.731-2.892,3.353c0.46-2.652,0.526-3.243,0.263-3.769c-0.132-0.263-0.329-0.438-0.482-0.438
		c-0.285,0-2.235,1.687-2.652,2.257c-0.088,0.088-0.066,0.219,0.088,0.372c0.526-0.372,1.118-0.745,1.337-0.745
		c0.132,0,0.175,0.197,0.153,0.438c-0.022,0.395-0.175,1.512-0.548,2.958c-0.329,1.249-0.679,2.674-0.745,3.134
		c-0.022,0.157,0.153,0.442,0.307,0.442c0.219,0,1.271-0.241,1.337-0.376c0.219-0.46,0.723-2.126,1.161-3.112
		c1.096-2.476,2.367-3.791,2.849-3.791c0.372,0,0.504,0.394,0.438,1.096c-0.109,1.402-0.767,4.01-1.337,5.676
		c-0.066,0.175,0.285,0.573,0.416,0.573c0.679,0,3.506-2.392,3.506-2.655L86.434,19.111L86.434,19.111z"/>
	<path style="fill-rule:evenodd;clip-rule:evenodd;fill:#fff;" d="M25.274,14.882c0.636,0,0.986,1.095,0.986,2.366
		c0,1.556-0.657,2.608-1.118,3.046c-0.307,0.307-0.789,0.614-1.512,0.614c-0.613,0-1.183-0.263-1.424-0.504
		c0.285-2.104,0.394-2.41,0.613-2.783c0.504-1.008,1.972-2.739,2.432-2.739H25.274L25.274,14.882z M23.236,27.026
		c0.066-0.044-0.022-0.11-0.175-0.132c-1.446-0.219-1.643-0.351-1.6-0.986c0.022-0.46,0.11-1.622,0.482-3.857
		c0.898,0,1.6-0.109,2.126-0.42c0.986-0.592,2.432-1.709,2.892-2.345c0.504-0.679,1.074-1.907,1.074-3.243
		c0-1.863-0.855-2.98-1.644-2.98c-0.263,0-1.95,1.578-3.528,3.462c-0.132,0.153-0.241,0.11-0.219-0.066
		c0.307-2.323,0.526-3.309,0.592-3.659c0-0.11-0.044-0.285-0.132-0.395c-0.153-0.197-0.219-0.132-0.416,0
		c-0.679,0.482-2.608,2.169-3.09,2.717c-0.109,0.132-0.153,0.394-0.109,0.657c0.022,0.11,0.066,0.132,0.132,0.066
		c0.548-0.526,0.942-0.92,1.38-1.315c0.153-0.132,0.219,0.044,0.197,0.416c-0.35,3.178-1.337,9.711-1.797,11.092
		c-0.197,0.57-0.442,0.679-1.581,0.898c-0.241,0.329-0.263,0.46-0.11,0.46c1.008,0,3.225-0.219,5.307-0.066L23.236,27.026
		L23.236,27.026z M14.799,14.137c0.57,0,0.964,0.197,1.227,0.592c0.219,0.373,0.416,1.074,0.416,2.301
		c0,1.775-0.526,3.221-1.052,3.682c-0.219,0.197-0.438,0.263-0.679,0.263c-1.358,0-1.665-1.359-1.644-2.761
		c0-1.666,0.46-3.046,0.877-3.616c0.241-0.307,0.46-0.46,0.833-0.46H14.799L14.799,14.137z M15.983,13.042
		c-0.438,0-2.871,1.183-3.331,1.6c-1.03,0.964-1.6,2.279-1.622,4.098c0,1.556,0.723,3.313,2.542,3.313
		c0.197,0,0.482-0.088,0.92-0.285c1.49-0.661,2.498-1.406,3.002-2.107c0.504-0.745,0.92-1.928,0.92-3.265
		c0-1.994-1.14-3.353-2.411-3.353H15.983L15.983,13.042z M7.064,7.979c-1.644,0-4.229-0.044-4.558-0.088
		C2.134,7.826,1.739,7.76,1.498,7.563c-0.065-0.088-0.175-0.088-0.219,0c-0.197,0.219-0.57,0.635-1.271,3.133
		c-0.022,0.132,0,0.175,0.065,0.241c0.088,0.044,0.395-0.022,0.46-0.154C1.17,9.579,1.498,9.207,1.849,9.009
		c0.46-0.285,1.315-0.416,3.681-0.372c0.219,0,0.329,0.088,0.351,0.219c0.022,0.241-0.022,0.745-0.109,1.271
		c-0.657,4.47-1.337,8.305-1.665,9.664c-0.197,0.855-0.351,1.227-1.161,1.359c-0.417,0.088-0.855,0.132-1.162,0.175
		c-0.109,0.022-0.153,0.109-0.131,0.197c0.065,0.223,0.175,0.31,0.241,0.31c0.307,0,1.183-0.113,2.213-0.113
		c1.293,0,2.279,0.135,3.353,0.157c0.57,0.022,0.745,0.022,0.898,0c0.088-0.022,0.153-0.109,0.197-0.201
		c0.044-0.197,0.044-0.285-0.022-0.285c-0.592-0.066-1.14-0.132-1.534-0.241c-0.46-0.132-0.504-0.329-0.504-0.811
		c0.088-1.162,0.263-2.389,1.534-11.023c0.066-0.372,0.153-0.592,0.285-0.635c0.197-0.044,0.635-0.066,1.578-0.066
		c2.323,0,2.63,0.219,2.388,2.169c0,0.088,0.044,0.175,0.241,0.285c0.132,0.088,0.219,0.066,0.263-0.022
		c0.088-0.46,0.701-2.148,1.03-2.761c0.088-0.175,0.132-0.439,0-0.723c-0.592,0.329-1.03,0.416-6.727,0.416H7.064L7.064,7.979z"/>
	<path style="fill-rule:evenodd;clip-rule:evenodd;fill:#fff;" d="M34.569,10.53c-0.587-0.219,1.71-0.15,2.632,0.481
		c0.909,0.65,1.062,1.675,0.723,2.349c-0.32,0.687-1.137,0.789-1.137,0.789C38.622,12.794,35.857,10.912,34.569,10.53L34.569,10.53z
		"/>
	<path style="fill-rule:evenodd;clip-rule:evenodd;fill:#fff;" d="M33.239,8.678c-0.317,0.543,1.401-0.993,1.68-2.058
		c0.269-1.096-0.27-1.964-0.948-2.274c-0.71-0.3-1.399,0.149-1.399,0.149C35.005,5.034,34.026,7.609,33.239,8.678L33.239,8.678z"/>
	<path style="fill-rule:evenodd;clip-rule:evenodd;fill:#A6CE39;" d="M32.528,9.078c-0.096,0.253,0.525-0.521,0.568-0.993
		c0.037-0.485-0.254-0.815-0.564-0.899C32.209,7.11,31.948,7.35,31.948,7.35s0.256,0.213,0.41,0.604
		C32.512,8.343,32.614,8.822,32.528,9.078L32.528,9.078z"/>
	<path style="fill-rule:evenodd;clip-rule:evenodd;fill:#fff;" d="M41.084,6.808c0.161-0.128,0.363-0.271,0.588-0.43
		c0.461-0.352,1.024-0.74,1.53-0.925c0.302-0.15,0.575-0.234,0.797-0.249c0.359,0.002,0.602,0.208,0.701,0.614
		c-0.038,0.442-0.258,0.938-0.612,1.244c-0.386,0.282-0.874,0.42-1.346,0.265c-0.672-0.162-2.036-0.188-2.036-0.188
		S40.842,7.009,41.084,6.808L41.084,6.808z"/>
	<path style="fill-rule:evenodd;clip-rule:evenodd;fill:#fff;" d="M40.999,7.494c0.137,0.019,0.315,0.06,0.505,0.106
		c0.435,0.121,0.999,0.357,1.555,0.776c0.338,0.218,0.649,0.471,0.917,0.723c0.441,0.42,0.753,0.862,0.893,1.302
		c-0.03,0.327-0.27,0.534-0.647,0.464c-0.349-0.075-0.812-0.387-1.333-1.029c-0.748-0.884-2.222-2.375-2.222-2.375
		S40.786,7.463,40.999,7.494L40.999,7.494z"/>
	<path style="fill-rule:evenodd;clip-rule:evenodd;fill:#fff;" d="M40.758,8.065c0.145,0.159,0.331,0.374,0.531,0.608
		c0.44,0.537,0.989,1.276,1.462,2.097c0.289,0.468,0.539,0.927,0.741,1.333c0.319,0.669,0.501,1.239,0.528,1.658
		c-0.104,0.202-0.376,0.121-0.729-0.292c-0.337-0.403-0.743-1.08-1.129-2.017c-0.572-1.316-1.761-3.76-1.761-3.76
		S40.531,7.82,40.758,8.065L40.758,8.065z"/>
	<path style="fill-rule:evenodd;clip-rule:evenodd;fill:#fff;" d="M40.547,8.406c0.106,0.23,0.238,0.527,0.379,0.85
		c0.312,0.723,0.679,1.665,0.946,2.588c0.18,0.554,0.324,1.068,0.429,1.51c0.183,0.73,0.268,1.271,0.212,1.554
		c-0.164,0-0.47-0.359-0.781-1c-0.278-0.606-0.551-1.429-0.72-2.341c-0.238-1.276-0.725-3.713-0.725-3.713S40.382,8.05,40.547,8.406
		L40.547,8.406z"/>
	<path style="fill-rule:evenodd;clip-rule:evenodd;fill:#fff;" d="M40.069,8.2c0.02,0.254,0.041,0.577,0.068,0.926
		c0.061,0.78,0.121,1.771,0.099,2.648c0.015,0.56,0.004,1.054-0.018,1.462c-0.044,0.67-0.153,1.069-0.336,1.129
		c-0.196-0.234-0.418-0.836-0.547-1.595c-0.123-0.705-0.159-1.52-0.015-2.233c0.226-0.996,0.703-2.964,0.703-2.964
		S40.044,7.805,40.069,8.2L40.069,8.2z"/>
	<path style="fill-rule:evenodd;clip-rule:evenodd;fill:#fff;" d="M39.666,7.597c-0.048,0.177-0.118,0.394-0.185,0.635
		C39.337,8.76,39.143,9.4,38.878,9.869c-0.126,0.334-0.268,0.597-0.406,0.79c-0.237,0.304-0.511,0.368-0.81,0.145
		c-0.243-0.384-0.408-0.988-0.37-1.544c0.05-0.515,0.279-0.976,0.72-1.179c0.62-0.285,1.779-0.928,1.779-0.928
		S39.747,7.322,39.666,7.597L39.666,7.597z"/>
	<path style="fill-rule:evenodd;clip-rule:evenodd;fill:#fff;" d="M39.547,6.983c-0.144,0.031-0.328,0.058-0.525,0.085
		c-0.437,0.058-0.995,0.084-1.497-0.063c-0.327-0.032-0.611-0.116-0.844-0.222c-0.387-0.193-0.583-0.497-0.522-0.899
		c0.24-0.374,0.678-0.725,1.142-0.855c0.427-0.121,0.864-0.048,1.187,0.341c0.458,0.553,1.407,1.529,1.412,1.534
		C39.896,6.907,39.765,6.944,39.547,6.983L39.547,6.983z"/>
	<path style="fill-rule:evenodd;clip-rule:evenodd;fill:#fff;" d="M40.415,5.796c-0.016-0.193-0.031-0.442-0.045-0.713
		c-0.008-0.304-0.008-0.656,0.015-1.033c0.023-0.376,0.074-0.781,0.158-1.192c0.075-0.471,0.186-0.92,0.318-1.312
		c0.257-0.649,0.606-1.17,1.01-1.521c0.304-0.1,0.462,0.088,0.392,0.539c-0.014,0.223-0.067,0.505-0.167,0.835
		c-0.1,0.331-0.249,0.721-0.447,1.162c-0.255,0.631-0.588,1.547-0.814,2.314c-0.226,0.765-0.369,1.379-0.369,1.379
		S40.445,6.096,40.415,5.796L40.415,5.796z"/>
	<path style="fill-rule:evenodd;clip-rule:evenodd;fill:#fff;" d="M40.945,5.486c0.065-0.242,0.16-0.552,0.264-0.887
		c0.126-0.374,0.282-0.802,0.48-1.243c0.195-0.434,0.432-0.871,0.691-1.277c0.298-0.47,0.607-0.858,0.897-1.141
		c0.527-0.335,1.051-0.331,1.448-0.107c0.105,0.156-0.072,0.299-0.408,0.575c-0.136,0.181-0.318,0.386-0.536,0.614
		c-0.232,0.242-0.499,0.519-0.812,0.81c-0.42,0.461-1.019,1.217-1.446,1.929C41.091,5.48,40.8,6.074,40.8,6.074
		S40.846,5.863,40.945,5.486L40.945,5.486z"/>
	<path style="fill-rule:evenodd;clip-rule:evenodd;fill:#fff;" d="M41.053,6.105c0.132-0.222,0.304-0.5,0.492-0.796
		C41.757,4.982,42,4.618,42.287,4.286c0.279-0.323,0.602-0.606,0.92-0.833c0.388-0.269,0.751-0.441,1.062-0.532
		c0.509-0.074,0.876,0.03,1.046,0.246c-0.018,0.234-0.28,0.522-0.713,0.779c-0.394,0.302-0.911,0.636-1.487,0.873
		c-0.408,0.221-1.034,0.628-1.526,1.043c-0.5,0.421-0.878,0.782-0.878,0.782S40.831,6.444,41.053,6.105L41.053,6.105z"/>
	<polygon style="fill-rule:evenodd;clip-rule:evenodd;fill:#fff;" points="39.9,6.905 39.9,6.905 39.9,6.905 	"/>
	<path style="fill-rule:evenodd;clip-rule:evenodd;fill:#fff;" d="M39.915,6.348c-0.09-0.098-0.188-0.238-0.302-0.39
		c-0.253-0.345-0.552-0.826-0.727-1.414c-0.137-0.314-0.23-0.645-0.284-0.947c-0.078-0.513-0.011-1.011,0.219-1.451
		c0.29-0.266,0.654-0.32,0.91-0.077c0.244,0.232,0.397,0.712,0.355,1.458c-0.018,0.532-0.015,1.299,0.003,1.931
		c0.018,0.632,0.047,1.13,0.047,1.13S40.051,6.509,39.915,6.348L39.915,6.348z"/>
</g>
</svg>
