<?xml version="1.0" encoding="iso-8859-1"?>
<!-- Generator: Adobe Illustrator 21.1.0, SVG Export Plug-In . SVG Version: 6.00 Build 0)  -->
<svg version="1.1" id="Layer_1" xmlns="http://www.w3.org/2000/svg" xmlns:xlink="http://www.w3.org/1999/xlink" x="0px" y="0px"
	 viewBox="0 0 240.988 70.396" style="enable-background:new 0 0 240.988 70.396;" xml:space="preserve">
<g>
	<path style="fill-rule:evenodd;clip-rule:evenodd;fill:#1174B0;" d="M18.081,3.298v5.285h5.62v3.237h-5.62v8.123v1.352
		c0,0.685,0.081,1.236,0.243,1.667c0.162,0.424,0.495,0.764,1.018,1.025c0.514,0.254,1.144,0.382,1.901,0.382
		c0.46,0,0.82-0.018,1.072-0.054c0.243-0.037,0.711-0.128,1.387-0.273v3.2c-0.649,0.097-1.333,0.182-2.054,0.255
		c-0.72,0.072-1.513,0.109-2.377,0.109c-1.117,0-2.126-0.079-3.027-0.236c-0.901-0.158-1.774-0.479-2.621-0.964
		c-0.846-0.486-1.432-1.151-1.756-2c-0.324-0.849-0.486-1.795-0.486-2.837v-0.801v-8.947H6.895V8.584h4.756V4.722L18.081,3.298
		L18.081,3.298z"/>
	<path style="fill-rule:evenodd;clip-rule:evenodd;fill:#1174B0;" d="M37.589,8.33c4.143,0,7.223,0.867,9.24,2.6
		c2.018,1.733,3.027,4.08,3.027,7.038c0.001,2.958-0.991,5.304-2.973,7.038c-1.981,1.733-5.079,2.6-9.294,2.6
		c-3.999,0-7.034-0.867-9.105-2.6c-2.072-1.734-3.108-4.08-3.108-7.038c0-2.934,1.036-5.274,3.108-7.019
		C30.555,9.202,33.59,8.33,37.589,8.33L37.589,8.33z M32.293,18.004c0,1.916,0.405,3.474,1.216,4.674
		c0.81,1.2,2.17,1.801,4.08,1.801c1.873,0,3.224-0.6,4.053-1.801c0.829-1.2,1.243-2.758,1.243-4.673
		c0-1.989-0.414-3.564-1.243-4.728c-0.829-1.165-2.18-1.746-4.053-1.746c-1.873-0.001-3.224,0.582-4.053,1.746
		C32.707,14.439,32.293,16.016,32.293,18.004L32.293,18.004z"/>
	<path style="fill-rule:evenodd;clip-rule:evenodd;fill:#1174B0;" d="M60.555,35.28h-6.647V10.511c0-0.558-0.027-0.987-0.081-1.291
		c-0.054-0.304-0.117-0.515-0.189-0.637l6.917,0v2.764c0.937-0.922,1.972-1.654,3.107-2.2c1.135-0.546,2.494-0.818,4.079-0.818
		c1.586,0,2.999,0.212,4.243,0.636c1.243,0.424,2.314,1.073,3.215,1.946c0.901,0.872,1.54,1.921,1.919,3.146
		c0.378,1.223,0.567,2.516,0.567,3.874c0,1.041-0.108,2.049-0.324,3.018c-0.216,0.969-0.586,1.915-1.107,2.837
		c-0.522,0.921-1.261,1.709-2.215,2.364c-0.956,0.654-1.955,1.054-2.999,1.2c-1.045,0.146-1.667,0.224-1.865,0.237
		c-0.198,0.012-0.514,0.018-0.946,0.018c-1.153,0-2.207-0.109-3.161-0.327c-0.954-0.219-1.756-0.528-2.405-0.928
		c-0.648-0.4-1.099-0.703-1.351-0.909c-0.252-0.207-0.504-0.442-0.756-0.709V35.28L60.555,35.28z M70.281,14.331
		c-0.243-0.679-0.612-1.224-1.099-1.636c-0.487-0.413-1.063-0.685-1.747-0.818c-0.684-0.134-1.216-0.2-1.612-0.2
		c-1.072-0.001-2.045,0.242-2.9,0.727c-0.865,0.485-1.478,1.267-1.829,2.346c-0.361,1.079-0.54,2.212-0.54,3.401
		c0,0.46,0.018,0.836,0.054,1.127c0.036,0.291,0.117,0.746,0.243,1.364c0.127,0.618,0.415,1.249,0.856,1.891
		c0.45,0.643,1.018,1.085,1.693,1.328c0.685,0.242,1.198,0.388,1.531,0.436c0.342,0.048,0.694,0.073,1.053,0.073
		c0.747,0,1.522-0.164,2.315-0.491c0.783-0.327,1.414-1.061,1.873-2.2c0.468-1.14,0.702-2.388,0.702-3.746
		c0-0.777-0.054-1.473-0.162-2.091C70.606,15.221,70.462,14.719,70.281,14.331L70.281,14.331z"/>
	<path style="fill-rule:evenodd;clip-rule:evenodd;fill:#1174B0;" d="M100.003,9.057l-0.379,3.564
		c-0.756-0.219-1.63-0.406-2.621-0.564c-0.991-0.158-1.882-0.237-2.675-0.237c-0.792,0-1.468,0.055-2.026,0.164
		c-0.558,0.108-1.252,0.376-2.081,0.8c-0.829,0.423-1.477,1.133-1.945,2.128c-0.469,0.994-0.702,1.976-0.702,2.946
		c0,0.363,0,0.618,0,0.764c0,1.067,0.378,2.061,1.135,2.983c0.756,0.921,1.63,1.57,2.62,1.946c0.991,0.376,2.117,0.564,3.378,0.564
		c0.792,0,1.621-0.073,2.486-0.218c0.864-0.146,1.783-0.352,2.755-0.618l0.324,3.528c-1.044,0.218-2.224,0.406-3.539,0.564
		c-1.315,0.157-2.495,0.236-3.54,0.236c-1.513,0-2.881-0.121-4.106-0.364c-1.225-0.242-2.531-0.746-3.935-1.509
		c-1.396-0.764-2.486-1.861-3.27-3.292c-0.783-1.431-1.17-2.885-1.17-4.365c0-0.412,0-0.715,0-0.909
		c0-1.407,0.469-2.849,1.405-4.328c0.937-1.48,2.162-2.51,3.674-3.091c1.514-0.583,2.846-0.964,3.999-1.146
		c1.153-0.183,2.306-0.273,3.459-0.273c1.189,0,2.296,0.055,3.323,0.163C97.599,8.602,98.742,8.791,100.003,9.057L100.003,9.057z"/>
	<path style="fill-rule:evenodd;clip-rule:evenodd;fill:#1174B0;" d="M104.65,0h6.647v11.239c1.513-1.746,2.999-2.666,4.458-2.763
		c1.459-0.098,2.404-0.145,2.836-0.145c0.973,0,1.901,0.103,2.784,0.309c0.882,0.205,1.81,0.612,2.783,1.218
		c0.973,0.606,1.612,1.467,1.918,2.583s0.46,2.352,0.46,3.709v11.202h-6.647v-9.565v-1.164c0-1.068-0.135-1.957-0.405-2.673
		c-0.27-0.715-0.747-1.2-1.45-1.455c-0.693-0.255-1.386-0.382-2.062-0.382c-0.793-0.001-1.504,0.145-2.153,0.436
		c-1.072,0.411-1.765,0.964-2.063,1.655c-0.306,0.691-0.459,1.619-0.459,2.783v1.272v9.093h-6.647V0L104.65,0z"/>
	<path style="fill-rule:evenodd;clip-rule:evenodd;fill:#1174B0;" d="M146.476,8.366v4.074c-0.288-0.025-0.568-0.042-0.837-0.055
		c-0.27-0.012-0.586-0.018-0.946-0.018c-0.937,0-1.711,0.055-2.324,0.164c-0.612,0.108-1.27,0.4-1.973,0.873
		c-0.702,0.472-1.207,1.091-1.513,1.855c-0.306,0.763-0.459,1.849-0.459,3.255v8.837h-6.647v-16.33c0-0.631-0.027-1.146-0.081-1.545
		c-0.054-0.401-0.117-0.697-0.189-0.891l6.377,0v3.273c0.793-1.066,1.676-1.873,2.648-2.418c0.973-0.546,1.873-0.86,2.702-0.946
		c0.829-0.085,1.585-0.127,2.27-0.127C145.935,8.366,146.259,8.366,146.476,8.366L146.476,8.366z"/>
	<path style="fill-rule:evenodd;clip-rule:evenodd;fill:#1174B0;" d="M161.984,8.33c4.143,0,7.223,0.867,9.24,2.6
		c2.017,1.733,3.026,4.08,3.026,7.038c0,2.958-0.991,5.304-2.973,7.038c-1.981,1.733-5.079,2.6-9.294,2.6
		c-3.999,0-7.034-0.867-9.105-2.6c-2.072-1.734-3.108-4.08-3.108-7.038c0-2.934,1.035-5.274,3.108-7.019
		C154.95,9.202,157.985,8.33,161.984,8.33L161.984,8.33z M156.688,18.004c0,1.916,0.405,3.474,1.216,4.674
		c0.81,1.2,2.17,1.801,4.079,1.801c1.873,0,3.224-0.6,4.053-1.801c0.829-1.2,1.243-2.758,1.243-4.673
		c0-1.989-0.414-3.564-1.243-4.728c-0.829-1.165-2.18-1.746-4.053-1.746c-1.873-0.001-3.224,0.582-4.053,1.746
		C157.102,14.439,156.688,16.016,156.688,18.004L156.688,18.004z"/>
	<path style="fill-rule:evenodd;clip-rule:evenodd;fill:#1174B0;" d="M198.99,11.276c1.261-1.043,2.54-1.8,3.846-2.273
		c1.297-0.473,2.665-0.709,4.106-0.709c0.793-0.001,1.919,0.115,3.378,0.345c1.459,0.23,2.522,0.958,3.188,2.182
		c0.666,1.224,1,2.746,1,4.564l0,11.965h-6.646V17.059v-0.837c0-1.066-0.118-1.921-0.352-2.563c-0.234-0.644-0.775-1.109-1.63-1.4
		c-0.54-0.219-1.153-0.327-1.828-0.327c-0.721-0.001-1.478,0.176-2.279,0.527c-0.811,0.352-1.342,0.825-1.612,1.419
		c-0.27,0.594-0.405,1.449-0.405,2.564l0.001,1.054v9.857h-6.648V17.216v-0.764c0-1.048-0.117-1.921-0.36-2.624
		c-0.234-0.709-0.702-1.2-1.396-1.479c-0.693-0.28-1.361-0.418-2.017-0.418c-0.333-0.001-0.631,0.024-0.91,0.073
		c-0.27,0.049-0.703,0.194-1.288,0.437c-0.585,0.242-1.108,0.757-1.585,1.533c-0.477,0.775-0.711,2.116-0.711,4.007l0.001,1.533
		v7.837h-6.539v-16.62c0-0.607-0.027-1.073-0.081-1.4c-0.054-0.328-0.117-0.576-0.189-0.746l6.809,0v2.836
		c0.504-0.757,1.279-1.448,2.332-2.06c1.045-0.612,2.351-0.97,3.9-1.067c1.414-0.001,2.639,0.097,3.692,0.297
		c1.045,0.193,1.846,0.503,2.414,0.915c0.559,0.418,0.91,0.71,1.053,0.867C198.378,10.536,198.631,10.833,198.99,11.276
		L198.99,11.276z"/>
	<path style="fill-rule:evenodd;clip-rule:evenodd;fill:#1174B0;" d="M240.988,19.276h-16.211c0,1.213,0.189,2.171,0.566,2.874
		c0.379,0.702,1.153,1.261,2.324,1.673c1.171,0.413,2.477,0.619,3.917,0.619c2.775-0.001,5.368-0.485,7.781-1.455v3.491
		c-1.189,0.34-2.522,0.613-3.999,0.819c-1.477,0.206-2.936,0.309-4.377,0.309c-1.549,0-2.99-0.127-4.322-0.382
		c-1.334-0.255-2.694-0.752-4.08-1.491c-1.387-0.74-2.477-1.831-3.269-3.273c-0.793-1.443-1.189-2.916-1.189-4.419
		c0.001-0.607,0.099-1.43,0.297-2.473c0.199-1.043,0.865-2.261,2-3.655c1.135-1.394,2.576-2.345,4.323-2.855
		c1.748-0.51,3.45-0.764,5.107-0.764c2.595-0.001,4.827,0.46,6.7,1.382c1.874,0.922,3.08,2.231,3.621,3.928
		C240.717,15.3,240.987,17.192,240.988,19.276L240.988,19.276z M234.233,13.821c-0.541-1.187-1.289-1.909-2.243-2.163
		c-0.954-0.255-1.684-0.382-2.188-0.382c-0.792,0-1.531,0.133-2.216,0.4c-1.009,0.46-1.729,1.157-2.161,2.091
		c-0.432,0.933-0.648,1.825-0.648,2.673h9.726c0-0.777-0.018-1.328-0.054-1.655C234.413,14.458,234.341,14.137,234.233,13.821
		L234.233,13.821z"/>
	<path style="fill-rule:evenodd;clip-rule:evenodd;fill:#0C77B2;" d="M230.17,46.89c-2.625,1.688-5.25,3.375-7.875,5.062
		c-6.233,4.396-19.268,4.992-29.438,2.438c-17.623-4.134-32.878-7.678-54.375-8.062c11.921-7.768,32.767-9.826,51.375-3.563
		C202.311,46.437,215.467,48.469,230.17,46.89L230.17,46.89z"/>
	<path style="fill-rule:evenodd;clip-rule:evenodd;fill:#37AAE1;" d="M177.391,54.43c-5.153,3.139-8.244,5.716-13.396,8.855
		c-12.254,8.206-41.978,9.124-61.516,3.711C68.607,58.182,42.285,49.494,0,53.185c23.405-14.458,63.796-18.964,99.661-8.612
		C127.874,53.753,148.896,56.796,177.391,54.43L177.391,54.43z"/>
</g>
</svg>
