<?xml version="1.0" encoding="iso-8859-1"?>
<!-- Generator: Adobe Illustrator 21.1.0, SVG Export Plug-In . SVG Version: 6.00 Build 0)  -->
<svg version="1.1" id="Layer_1" xmlns="http://www.w3.org/2000/svg" xmlns:xlink="http://www.w3.org/1999/xlink" x="0px" y="0px"
	 viewBox="0 0 214.174 63.673" style="enable-background:new 0 0 214.174 63.673;" xml:space="preserve">
<g>
	<path style="fill-rule:evenodd;clip-rule:evenodd;fill:#fff;" d="M206.023,2.025c-4.006,0-7.254,3.248-7.254,7.254
		s3.248,7.254,7.254,7.254s7.254-3.248,7.254-7.254S210.028,2.025,206.023,2.025L206.023,2.025z M206.023,1.127
		c4.501,0,8.152,3.651,8.152,8.152c0,4.501-3.65,8.152-8.152,8.152c-4.501,0-8.152-3.65-8.152-8.152
		C197.871,4.778,201.521,1.127,206.023,1.127L206.023,1.127z M202.164,14.066V4.222h4.364c0.878,0,1.545,0.09,2.001,0.266
		c0.456,0.176,0.821,0.488,1.095,0.935c0.273,0.45,0.408,0.944,0.408,1.485c0,0.699-0.225,1.286-0.678,1.765
		c-0.452,0.479-1.151,0.784-2.095,0.915c0.346,0.165,0.607,0.328,0.786,0.49c0.38,0.348,0.74,0.786,1.082,1.309l1.712,2.679h-1.638
		l-1.302-2.049c-0.38-0.589-0.695-1.043-0.942-1.354c-0.245-0.314-0.465-0.534-0.66-0.658c-0.195-0.126-0.393-0.213-0.594-0.264
		c-0.149-0.03-0.39-0.046-0.727-0.046h-1.511v4.37H202.164L202.164,14.066z M203.466,8.568h2.801c0.594,0,1.061-0.062,1.396-0.186
		c0.337-0.124,0.591-0.321,0.765-0.591c0.174-0.271,0.261-0.564,0.261-0.883c0-0.465-0.168-0.848-0.507-1.148
		c-0.337-0.301-0.871-0.449-1.602-0.449h-3.115V8.568L203.466,8.568z"/>
	<path style="fill:#fff;" d="M207.153,30.382L207.153,30.382l-0.005,0.001c0,6.532-3.085,12.458-8.053,16.743
		c-4.924,4.246-11.707,6.881-19.16,6.881v0.005h-0.001h-32.688V51.69h32.688h0.001v0.005c6.878,0,13.124-2.421,17.646-6.319
		c4.477-3.86,7.256-9.168,7.256-14.993h-0.005v-0.001H207.153L207.153,30.382z M110.157,54.006H47.343v-2.312h62.815V54.006
		L110.157,54.006z M114.205,9.131H174.8v2.321h-60.595V9.131L114.205,9.131z M0,32.76L0,32.76l0.005-0.001
		c0-6.532,3.085-12.458,8.054-16.743c4.924-4.245,11.707-6.881,19.16-6.881V9.131h0.001H97.62v2.321H27.219h-0.001v-0.005
		c-6.878,0-13.124,2.42-17.646,6.319c-4.477,3.86-7.256,9.168-7.256,14.993h0.005v0.001H0L0,32.76z"/>
	<path style="fill:#fff;" d="M43.362,17.13h-8.269c-6.521,0.017-2.573-0.064-7.619-0.064c-8.623,0-13.466,6.797-13.466,14.77
		c0,7.796,4.548,14.268,13.053,14.268c3.349,0,8.028,0.014,8.028,0.014c0.016,4.104-0.114,8.526-5.961,8.526
		c-3.13,0-5.316-2.008-5.729-5.079h-8.741c0.413,7.737,7.56,12.049,14.647,12.049c10.867,0,14.057-7.796,14.057-17.256V17.13
		L43.362,17.13z M29.246,39.751c-4.252,0-6.851-4.193-6.851-8.092c0-3.898,2.599-8.151,6.851-8.151c4.253,0,6.851,4.253,6.851,8.151
		C36.098,35.558,33.499,39.751,29.246,39.751L29.246,39.751z M76.673,17.13h-8.151c-4.832,0.048-3.024,0.002-8.092,0.002
		c-8.328,0-13.23,6.672-13.23,14.35c0,7.855,4.81,14.623,13.315,14.623c4.211,0,2.75,0.014,8.006,0.025h8.151V17.13L76.673,17.13z
		 M62.439,39.751c-4.253,0-6.851-4.253-6.851-8.15c0-3.898,2.599-8.092,6.851-8.092c4.253,0,6.91,4.194,6.91,8.092
		C69.35,35.499,66.692,39.751,62.439,39.751L62.439,39.751z M101.834,46.13h8.269V1.269h-8.269v15.81
		c-5.073-0.016-3.027,0.021-8.033,0.021c-8.328,0-13.23,6.705-13.23,14.383c0,7.855,4.811,14.623,13.315,14.623
		C98.938,46.105,97.605,46.097,101.834,46.13L101.834,46.13z M95.81,39.751c-4.253,0-6.851-4.253-6.851-8.15
		c0-3.898,2.599-8.092,6.851-8.092c4.253,0,6.851,4.194,6.851,8.092C102.661,35.499,100.062,39.751,95.81,39.751L95.81,39.751z
		 M143.296,17.13h-8.269c-5.468-0.081-2.577-0.031-7.619-0.031c-8.623,0-13.466,6.764-13.466,14.737
		c0,7.796,4.417,14.301,12.922,14.301c2.602,0,8.159-0.003,8.159-0.003c-0.047,3.992-0.558,8.51-5.961,8.51
		c-3.13,0-5.316-2.008-5.729-5.079h-8.741c0.414,7.737,7.56,12.049,14.647,12.049c10.867,0,14.057-7.796,14.057-17.256V17.13
		L143.296,17.13z M129.18,39.751c-4.253,0-6.851-4.193-6.851-8.092c0-3.898,2.599-8.151,6.851-8.151
		c4.253,0,6.851,4.253,6.851,8.151C136.031,35.558,133.432,39.751,129.18,39.751L129.18,39.751z M174.953,32.959v-1.004
		c0-8.741-4.253-15.77-13.761-15.77c-9.391,0-14.057,6.91-14.057,15.71c0,8.8,5.493,15.189,14.47,15.189
		c6.083,0,11.163-3.258,13.171-9.046l-7.619-1.24c-1.122,2.303-2.835,3.957-5.552,3.957c-4.311,0-5.729-4.134-5.729-7.796H174.953
		L174.953,32.959z M156.112,27.821c0.413-3.012,2.244-5.847,5.552-5.847c3.189,0,5.079,2.894,5.493,5.847H156.112L156.112,27.821z
		 M188.065,24.1h5.079V17.13h-5.079V1.188h-8.269V17.13h-2.835V24.1h2.835v22.03h8.269V24.1L188.065,24.1z"/>
	<path style="fill:#fff;" d="M47.499,56.352h11.367v1.455h-4.444v5.865h-2.519v-5.865h-4.404V56.352L47.499,56.352z
		 M62.466,60.994c0.005,0.323,0.065,0.571,0.182,0.747c0.117,0.176,0.312,0.299,0.59,0.369c0.278,0.072,0.68,0.107,1.204,0.107
		h3.336c0.551,0,0.964-0.035,1.239-0.103c0.276-0.069,0.466-0.188,0.572-0.362c0.106-0.172,0.159-0.429,0.159-0.768v-1.868
		c0-0.359-0.063-0.631-0.189-0.816c-0.129-0.186-0.335-0.315-0.615-0.385c-0.283-0.072-0.688-0.107-1.211-0.107h-3.248
		c-0.534,0-0.941,0.037-1.225,0.113c-0.283,0.073-0.483,0.204-0.599,0.39c-0.117,0.185-0.182,0.457-0.195,0.816V60.994
		L62.466,60.994z M72.267,61.171c0,0.475-0.061,0.867-0.185,1.178c-0.124,0.311-0.329,0.564-0.615,0.757
		c-0.288,0.195-0.675,0.339-1.169,0.429c-0.491,0.092-1.105,0.137-1.841,0.137h-4.627c-0.706,0-1.305-0.047-1.796-0.143
		c-0.491-0.093-0.89-0.242-1.202-0.443c-0.309-0.202-0.533-0.459-0.675-0.772c-0.142-0.313-0.212-0.694-0.212-1.144v-2.223
		c0-0.508,0.068-0.928,0.207-1.258c0.139-0.331,0.36-0.594,0.66-0.791c0.301-0.197,0.693-0.336,1.176-0.42
		c0.486-0.084,1.098-0.126,1.841-0.126h4.627c0.91,0,1.639,0.075,2.188,0.225c0.546,0.151,0.953,0.415,1.221,0.793
		c0.265,0.378,0.4,0.903,0.4,1.578V61.171L72.267,61.171z M76.367,60.994c0.005,0.323,0.066,0.571,0.182,0.747
		c0.116,0.176,0.311,0.299,0.589,0.369c0.279,0.072,0.681,0.107,1.204,0.107h3.336c0.552,0,0.964-0.035,1.239-0.103
		c0.276-0.069,0.465-0.188,0.572-0.362c0.106-0.172,0.159-0.429,0.159-0.768v-1.868c0-0.359-0.063-0.631-0.189-0.816
		c-0.129-0.186-0.334-0.315-0.615-0.385c-0.283-0.072-0.688-0.107-1.211-0.107h-3.248c-0.533,0-0.941,0.037-1.224,0.113
		c-0.283,0.073-0.483,0.204-0.599,0.39c-0.117,0.185-0.182,0.457-0.195,0.816V60.994L76.367,60.994z M86.169,61.171
		c0,0.475-0.061,0.867-0.185,1.178c-0.124,0.311-0.329,0.564-0.614,0.757c-0.289,0.195-0.676,0.339-1.169,0.429
		c-0.49,0.092-1.105,0.137-1.841,0.137h-4.627c-0.705,0-1.305-0.047-1.796-0.143c-0.491-0.093-0.89-0.242-1.201-0.443
		c-0.309-0.202-0.534-0.459-0.676-0.772c-0.141-0.313-0.212-0.694-0.212-1.144v-2.223c0-0.508,0.068-0.928,0.207-1.258
		c0.139-0.331,0.359-0.594,0.66-0.791c0.301-0.197,0.693-0.336,1.176-0.42c0.486-0.084,1.098-0.126,1.841-0.126h4.627
		c0.91,0,1.639,0.075,2.188,0.225c0.546,0.151,0.953,0.415,1.221,0.793c0.266,0.378,0.4,0.903,0.4,1.578V61.171L86.169,61.171z
		 M87.81,63.673v-7.32h2.519v5.865h6.511v1.455H87.81L87.81,63.673z M106.702,56.352c0.845,0,1.533,0.074,2.064,0.221
		c0.529,0.147,0.918,0.373,1.164,0.677c0.248,0.304,0.372,0.694,0.372,1.169h-2.519c-0.025-0.243-0.121-0.419-0.289-0.524
		c-0.169-0.107-0.503-0.16-1.004-0.16h-4.231c-0.812,0-1.217,0.253-1.217,0.758c0,0.306,0.101,0.506,0.304,0.603
		c0.202,0.097,0.506,0.146,0.913,0.146h4.595c0.668,0,1.207,0.023,1.617,0.069c0.41,0.046,0.759,0.14,1.047,0.285
		c0.288,0.144,0.506,0.364,0.653,0.657c0.147,0.295,0.22,0.693,0.22,1.195c0,0.519-0.124,0.942-0.369,1.269
		c-0.246,0.329-0.627,0.569-1.149,0.724c-0.518,0.154-1.196,0.232-2.031,0.232h-5.089c-0.888,0-1.591-0.074-2.107-0.222
		c-0.516-0.147-0.885-0.372-1.108-0.677c-0.222-0.304-0.334-0.698-0.334-1.179h2.578c0,0.183,0.122,0.344,0.364,0.485
		c0.243,0.139,0.536,0.209,0.883,0.209h4.219c0.562,0,0.976-0.065,1.242-0.193c0.266-0.128,0.397-0.337,0.397-0.627
		c0-0.19-0.045-0.346-0.134-0.468c-0.088-0.119-0.261-0.213-0.514-0.278c-0.255-0.065-0.612-0.098-1.067-0.098h-3.733
		c-0.751,0-1.373-0.03-1.862-0.09c-0.488-0.06-0.882-0.169-1.183-0.323c-0.301-0.156-0.521-0.378-0.66-0.666
		c-0.139-0.289-0.209-0.664-0.209-1.125c0-0.369,0.073-0.686,0.22-0.949c0.147-0.264,0.374-0.478,0.683-0.641
		c0.311-0.164,0.708-0.285,1.197-0.362c0.488-0.077,1.087-0.116,1.803-0.116H106.702L106.702,56.352z"/>
	<path style="fill:#fff;" d="M157.069,7.329h-4.689c-0.982,0-1.748-0.079-2.302-0.237c-0.554-0.16-0.949-0.425-1.184-0.798
		c-0.236-0.373-0.354-0.89-0.354-1.55V2.666c0.012-0.714,0.141-1.26,0.392-1.64c0.248-0.382,0.658-0.647,1.232-0.798
		C150.738,0.075,151.557,0,152.622,0h4.143c0.901,0,1.647,0.07,2.239,0.209c0.59,0.141,1.047,0.395,1.371,0.763
		c0.327,0.367,0.488,0.88,0.488,1.538h-2.613c0-0.383-0.147-0.656-0.443-0.815c-0.296-0.16-0.784-0.239-1.469-0.239h-3.23
		c-0.597,0-1.035,0.028-1.313,0.084c-0.278,0.054-0.471,0.171-0.577,0.346c-0.106,0.174-0.159,0.457-0.159,0.846v1.814
		c0,0.364,0.068,0.643,0.205,0.835c0.134,0.192,0.346,0.322,0.63,0.39c0.286,0.069,0.686,0.103,1.199,0.103h3.233
		c0.503,0,0.89-0.028,1.161-0.083c0.271-0.054,0.468-0.16,0.592-0.313c0.124-0.155,0.187-0.382,0.187-0.68h2.613
		c-0.005,0.671-0.111,1.186-0.316,1.543c-0.208,0.358-0.579,0.611-1.118,0.763C158.905,7.253,158.113,7.329,157.069,7.329
		L157.069,7.329z M164.958,4.661c0.005,0.323,0.066,0.571,0.182,0.747c0.117,0.176,0.312,0.299,0.59,0.369
		c0.278,0.072,0.68,0.107,1.204,0.107h3.336c0.551,0,0.964-0.035,1.239-0.104c0.276-0.069,0.465-0.188,0.572-0.362
		c0.107-0.172,0.16-0.429,0.16-0.768V2.782c0-0.359-0.063-0.631-0.19-0.815c-0.129-0.187-0.334-0.315-0.615-0.385
		c-0.283-0.072-0.688-0.107-1.211-0.107h-3.248c-0.534,0-0.941,0.037-1.224,0.113c-0.283,0.074-0.483,0.204-0.599,0.39
		c-0.116,0.185-0.182,0.457-0.195,0.816V4.661L164.958,4.661z M174.76,4.838c0,0.475-0.061,0.867-0.185,1.178
		c-0.124,0.311-0.329,0.564-0.615,0.757c-0.288,0.195-0.675,0.339-1.169,0.429c-0.49,0.092-1.105,0.137-1.841,0.137h-4.626
		c-0.706,0-1.306-0.047-1.796-0.142c-0.491-0.093-0.89-0.243-1.202-0.443c-0.309-0.202-0.534-0.459-0.676-0.772
		c-0.141-0.313-0.212-0.694-0.212-1.144V2.615c0-0.508,0.068-0.928,0.207-1.259c0.139-0.33,0.359-0.594,0.66-0.79
		c0.301-0.197,0.693-0.336,1.176-0.42c0.486-0.084,1.098-0.126,1.842-0.126h4.626c0.911,0,1.639,0.076,2.188,0.225
		c0.547,0.151,0.954,0.415,1.222,0.793c0.265,0.378,0.4,0.903,0.4,1.578V4.838L174.76,4.838z"/>
</g>
</svg>
