<?xml version="1.0" encoding="iso-8859-1"?>
<!-- Generator: Adobe Illustrator 21.1.0, SVG Export Plug-In . SVG Version: 6.00 Build 0)  -->
<svg version="1.1" id="Layer_1" xmlns="http://www.w3.org/2000/svg" xmlns:xlink="http://www.w3.org/1999/xlink" x="0px" y="0px"
	 viewBox="0 0 296.161 57.534" style="enable-background:new 0 0 296.161 57.534;" xml:space="preserve">
<g>
	<path style="fill-rule:evenodd;clip-rule:evenodd;fill:#fff;stroke:#fff;stroke-width:0.9998;stroke-miterlimit:10;" d="
		M15.308,6.697v10.724h5.94v7.877h-5.94v9.999c0,1.206,0.117,2.004,0.343,2.393c0.353,0.595,0.969,0.903,1.857,0.903
		c0.797,0,1.911-0.236,3.342-0.698l0.797,7.463c-2.672,0.58-5.162,0.871-7.48,0.871c-2.69,0-4.673-0.344-5.941-1.033
		c-1.277-0.689-2.22-1.737-2.825-3.143c-0.617-1.402-0.915-3.686-0.915-6.837v-9.917H0.5v-7.877h3.985v-5.182L15.308,6.697
		L15.308,6.697z"/>
	<path style="fill-rule:evenodd;clip-rule:evenodd;fill:#fff;stroke:#fff;stroke-width:0.9998;stroke-miterlimit:10;" d="
		M118.169,0.5L118.169,0.5c11.657,0,21.194,10.319,21.194,22.931v9.928c0,12.612-9.537,22.931-21.194,22.931v0
		c-11.657,0-21.194-10.318-21.194-22.93V23.43C96.975,10.819,106.512,0.5,118.169,0.5L118.169,0.5z"/>
	<path style="fill-rule:evenodd;clip-rule:evenodd;fill:#fff;stroke:#fff;stroke-width:0.9998;stroke-miterlimit:10;" d="
		M25.07,31.583c0-4.291,1.45-7.841,4.347-10.621c2.907-2.792,6.82-4.184,11.756-4.184h0.068v7.436
		c-1.533,0.024-2.806,0.629-3.807,1.81c-1.024,1.214-1.541,3.061-1.541,5.532c0,2.52,0.508,4.375,1.531,5.572
		c1.011,1.199,2.284,1.806,3.817,1.81v7.29h-0.041c-4.529,0-8.187-1.151-10.985-3.45C26.782,39.935,25.07,36.203,25.07,31.583
		L25.07,31.583z M41.24,16.777c5.609,0.012,9.852,1.653,12.72,4.907c2.318,2.638,3.478,5.889,3.478,9.747
		c0,4.327-1.44,7.878-4.311,10.648c-2.863,2.756-6.825,4.143-11.887,4.148v-7.291h0.014c1.557,0,2.835-0.598,3.831-1.782
		c1.005-1.188,1.503-3.079,1.503-5.708c0-2.435-0.507-4.254-1.513-5.451c-1.004-1.188-2.255-1.783-3.74-1.783l-0.095,0V16.777
		L41.24,16.777z"/>
	<path style="fill-rule:evenodd;clip-rule:evenodd;fill:#fff;" d="M62.691,56.317V17.421h10.107v4.164
		c1.404-1.755,2.681-2.943,3.849-3.559c0.507-0.266,1.031-0.493,1.571-0.674v7.36c-1.327,0.033-2.433,0.577-3.319,1.62
		c-0.924,1.079-1.376,2.834-1.376,5.251c0,2.23,0.461,3.886,1.403,4.965c0.877,1.012,1.976,1.552,3.292,1.613v7.563
		c-0.323-0.099-0.638-0.211-0.946-0.338c-1.367-0.571-2.599-1.411-3.678-2.526v13.458H62.691L62.691,56.317z M78.218,17.352
		c1.141-0.384,2.358-0.574,3.654-0.574c3.768,0,6.684,1.447,8.749,4.327c2.056,2.883,3.088,6.451,3.088,10.696
		c0,4.683-1.123,8.261-3.368,10.732c-2.247,2.463-5.09,3.695-8.514,3.695c-1.291,0-2.496-0.169-3.609-0.505V38.16
		c0.085,0.007,0.172,0.007,0.258,0.007c1.259,0,2.31-0.514,3.161-1.556c0.852-1.034,1.276-2.789,1.276-5.264
		c0-2.281-0.443-3.955-1.33-5.025c-0.879-1.079-1.966-1.613-3.233-1.613l-0.132,0.003V17.352L78.218,17.352z"/>
	<path style="fill:none;stroke:#fff;stroke-width:0.9998;stroke-miterlimit:10;" d="M62.691,56.317V17.421h10.107v4.164
		c1.404-1.755,2.681-2.943,3.849-3.559c0.507-0.266,1.031-0.493,1.571-0.674v7.36c-1.327,0.033-2.433,0.577-3.319,1.62
		c-0.924,1.079-1.376,2.834-1.376,5.251c0,2.23,0.461,3.886,1.403,4.965c0.877,1.012,1.976,1.552,3.292,1.613v7.563
		c-0.323-0.099-0.638-0.211-0.946-0.338c-1.367-0.571-2.599-1.411-3.678-2.526v13.458H62.691L62.691,56.317z M78.218,17.352
		c1.141-0.384,2.358-0.574,3.654-0.574c3.768,0,6.684,1.447,8.749,4.327c2.056,2.883,3.088,6.451,3.088,10.696
		c0,4.683-1.123,8.261-3.368,10.732c-2.247,2.463-5.09,3.695-8.514,3.695c-1.291,0-2.496-0.169-3.609-0.505V38.16
		c0.085,0.007,0.172,0.007,0.258,0.007c1.259,0,2.31-0.514,3.161-1.556c0.852-1.034,1.276-2.789,1.276-5.264
		c0-2.281-0.443-3.955-1.33-5.025c-0.879-1.079-1.966-1.613-3.233-1.613l-0.132,0.003V17.352L78.218,17.352z"/>
	<path style="fill-rule:evenodd;clip-rule:evenodd;fill:#333333;" d="M100.597,34.272l11.438-0.716
		c0.245,1.858,0.751,3.269,1.513,4.248c1.232,1.574,3.007,2.354,5.307,2.354c1.712,0,3.034-0.399,3.967-1.203
		c0.923-0.807,1.385-1.741,1.385-2.801c0-1.003-0.434-1.91-1.322-2.707c-0.888-0.795-2.935-1.547-6.158-2.254
		c-5.272-1.188-9.03-2.752-11.276-4.719c-2.264-1.964-3.395-4.463-3.395-7.506c0-2.003,0.578-3.895,1.738-5.671
		c1.159-1.774,2.899-3.169,5.226-4.191c2.327-1.015,5.514-1.523,9.563-1.523c4.973,0,8.767,0.925,11.375,2.771
		c2.609,1.849,4.156,4.792,4.655,8.823l-11.33,0.659c-0.298-1.746-0.932-3.024-1.902-3.819c-0.96-0.789-2.291-1.187-3.984-1.187
		c-1.404,0-2.454,0.29-3.16,0.888c-0.707,0.586-1.061,1.311-1.061,2.163c0,0.616,0.29,1.169,0.87,1.664
		c0.57,0.517,1.911,0.988,4.039,1.432c5.253,1.133,9.012,2.281,11.283,3.442c2.275,1.16,3.932,2.589,4.964,4.312
		c1.032,1.71,1.558,3.632,1.558,5.759c0,2.49-0.697,4.789-2.073,6.892c-1.377,2.109-3.307,3.704-5.788,4.789
		c-2.472,1.088-5.597,1.631-9.365,1.631c-6.611,0-11.193-1.269-13.738-3.822C102.373,41.436,100.934,38.203,100.597,34.272
		L100.597,34.272z"/>
	<path style="fill-rule:evenodd;clip-rule:evenodd;fill:#fff;stroke:#fff;stroke-width:0.9998;stroke-miterlimit:10;" d="
		M157.341,6.697v10.724h5.943v7.877h-5.943v9.999c0,1.206,0.118,2.004,0.345,2.393c0.353,0.595,0.97,0.903,1.858,0.903
		c0.794,0,1.909-0.236,3.342-0.698l0.794,7.463c-2.671,0.58-5.16,0.871-7.479,0.871c-2.691,0-4.673-0.344-5.943-1.033
		c-1.274-0.689-2.217-1.737-2.824-3.143c-0.616-1.402-0.914-3.686-0.914-6.837v-9.917h-3.986v-7.877h3.986v-5.182L157.341,6.697
		L157.341,6.697z"/>
	<path style="fill-rule:evenodd;clip-rule:evenodd;fill:#fff;stroke:#fff;stroke-width:0.9998;stroke-miterlimit:10;" d="
		M168.535,17.421h10.108v4.608c0.979-1.991,1.982-3.369,3.015-4.122c1.034-0.749,2.309-1.13,3.832-1.13
		c1.592,0,3.333,0.499,5.224,1.483l-3.342,7.699c-1.266-0.535-2.281-0.798-3.024-0.798c-1.411,0-2.508,0.589-3.288,1.75
		c-1.112,1.646-1.674,4.725-1.674,9.237v9.445h-10.851V17.421L168.535,17.421z"/>
	<path style="fill-rule:evenodd;clip-rule:evenodd;fill:#fff;stroke:#fff;stroke-width:0.9998;stroke-miterlimit:10;" d="
		M192.1,31.583c0-4.291,1.45-7.841,4.347-10.621c2.908-2.792,6.821-4.184,11.754-4.184h0.07v7.436
		c-1.534,0.024-2.807,0.629-3.81,1.81c-1.021,1.214-1.538,3.061-1.538,5.532c0,2.52,0.508,4.375,1.529,5.572
		c1.012,1.199,2.285,1.806,3.819,1.81v7.29h-0.042c-4.53,0-8.186-1.151-10.987-3.45C193.811,39.935,192.1,36.203,192.1,31.583
		L192.1,31.583z M208.271,16.777c5.608,0.012,9.85,1.653,12.718,4.907c2.321,2.638,3.478,5.889,3.478,9.747
		c0,4.327-1.438,7.878-4.31,10.648c-2.864,2.756-6.825,4.143-11.886,4.148v-7.291h0.012c1.559,0,2.834-0.598,3.831-1.782
		c1.006-1.188,1.502-3.079,1.502-5.708c0-2.435-0.504-4.254-1.51-5.451c-1.007-1.188-2.254-1.783-3.742-1.783l-0.093,0V16.777
		L208.271,16.777z"/>
	<path style="fill-rule:evenodd;clip-rule:evenodd;fill:#fff;stroke:#fff;stroke-width:0.9998;stroke-miterlimit:10;" d="
		M229.667,17.421h10.063v4.581c1.501-1.873,3.024-3.205,4.562-4.012c1.541-0.804,3.414-1.211,5.626-1.211
		c2.989,0,5.324,0.895,7.016,2.671c1.686,1.774,2.529,4.521,2.529,8.234v17.912h-10.85V30.099c0-1.768-0.327-3.015-0.979-3.749
		c-0.662-0.743-1.574-1.106-2.762-1.106c-1.302,0-2.372,0.498-3.178,1.487c-0.817,0.984-1.224,2.77-1.224,5.333v13.53h-10.803
		V17.421L229.667,17.421z"/>
	<path style="fill-rule:evenodd;clip-rule:evenodd;fill:#fff;" d="M280.093,43.784c-1.238,0.444-2.541,0.671-3.913,0.671
		c-3.768,0-6.811-1.65-9.128-4.937c-1.641-2.336-2.465-5.424-2.465-9.255c0-4.393,1.061-7.735,3.178-10.034
		c2.131-2.299,4.901-3.451,8.334-3.451c1.519,0,2.846,0.175,3.994,0.532v7.306c-0.066-0.003-0.133-0.003-0.199-0.003
		c-1.378,0-2.484,0.496-3.297,1.493c-0.824,0.997-1.241,2.662-1.241,4.973c0,2.036,0.434,3.55,1.304,4.526
		c0.868,0.979,2.01,1.477,3.424,1.477h0.009V43.784L280.093,43.784z M280.093,57.033c-5.607-0.013-9.47-0.861-11.566-2.556
		c-2.109-1.692-3.17-3.965-3.17-6.808c0-0.363,0.018-0.834,0.054-1.441l10.479,1.197c0.264,0.976,0.671,1.647,1.224,2.019
		c0.792,0.54,1.783,0.822,2.979,0.825V57.033L280.093,57.033z M285.518,17.421h10.116v26.608l0.027,1.248
		c0,1.767-0.38,3.451-1.132,5.055c-0.753,1.601-1.747,2.897-2.998,3.886c-1.249,0.994-2.834,1.71-4.744,2.145
		c-1.922,0.444-4.122,0.671-6.593,0.671h-0.1v-6.765h0.019c1.555,0,2.715-0.417,3.486-1.251c0.767-0.834,1.148-2.281,1.148-4.357
		v-4.264c-1.057,1.248-2.118,2.164-3.178,2.735c-0.481,0.253-0.973,0.471-1.475,0.652v-6.702c1.336-0.003,2.466-0.519,3.369-1.532
		c0.913-1.016,1.366-2.553,1.366-4.599c0-2.058-0.48-3.622-1.429-4.71c-0.907-1.033-2.009-1.577-3.306-1.626v-7.306
		c0.514,0.157,0.988,0.351,1.43,0.58c1.431,0.743,2.761,1.976,3.994,3.696L285.518,17.421L285.518,17.421z"/>
	<path style="fill:none;stroke:#fff;stroke-width:0.9998;stroke-miterlimit:10;" d="M280.093,43.784
		c-1.238,0.444-2.541,0.671-3.913,0.671c-3.768,0-6.811-1.65-9.128-4.937c-1.641-2.336-2.465-5.424-2.465-9.255
		c0-4.393,1.061-7.735,3.178-10.034c2.131-2.299,4.901-3.451,8.334-3.451c1.519,0,2.846,0.175,3.994,0.532v7.306l-0.199-0.003
		c-1.378,0-2.484,0.496-3.297,1.493c-0.824,0.997-1.241,2.662-1.241,4.973c0,2.036,0.434,3.55,1.304,4.526
		c0.868,0.979,2.01,1.477,3.424,1.477h0.009V43.784L280.093,43.784z M280.093,57.033c-5.607-0.013-9.47-0.861-11.566-2.556
		c-2.109-1.692-3.17-3.965-3.17-6.808c0-0.363,0.018-0.834,0.054-1.441l10.479,1.197c0.264,0.976,0.671,1.647,1.224,2.019
		c0.792,0.54,1.783,0.822,2.979,0.825V57.033L280.093,57.033z M285.518,17.421h10.116v26.608l0.027,1.248
		c0,1.767-0.38,3.451-1.132,5.055c-0.753,1.601-1.747,2.897-2.998,3.886c-1.249,0.994-2.834,1.71-4.744,2.145
		c-1.922,0.444-4.122,0.671-6.593,0.671h-0.1v-6.765h0.019c1.555,0,2.715-0.417,3.486-1.251c0.767-0.834,1.148-2.281,1.148-4.357
		v-4.264c-1.057,1.248-2.118,2.164-3.178,2.735c-0.481,0.253-0.973,0.471-1.475,0.652v-6.702c1.336-0.003,2.466-0.519,3.369-1.532
		c0.913-1.016,1.366-2.553,1.366-4.599c0-2.058-0.48-3.622-1.429-4.71c-0.907-1.033-2.009-1.577-3.306-1.626v-7.306
		c0.514,0.157,0.988,0.351,1.43,0.58c1.431,0.743,2.761,1.976,3.994,3.696L285.518,17.421L285.518,17.421z"/>
</g>
</svg>
