<?xml version="1.0" encoding="iso-8859-1"?>
<!-- Generator: Adobe Illustrator 21.1.0, SVG Export Plug-In . SVG Version: 6.00 Build 0)  -->
<svg version="1.1" id="Layer_1" xmlns="http://www.w3.org/2000/svg" xmlns:xlink="http://www.w3.org/1999/xlink" x="0px" y="0px"
	 viewBox="0 0 375.426 121.991" style="enable-background:new 0 0 375.426 121.991;" xml:space="preserve">
<path style="fill-rule:evenodd;clip-rule:evenodd;" d="M353.937,91.965l1.563-7.436h19.891l-7.793,37.057h-25.132
	c-1.319,0.277-2.668,0.405-4.025,0.405c-1.528,0-3.042-0.184-4.461-0.618l-0.045,0.213h-30.15c-1.522,0.255-3.065,0.405-4.607,0.405
	c-2.388,0-4.844-0.32-6.919-1.589c-0.643-0.393-1.223-0.852-1.737-1.367c-0.974,0.662-2.031,1.208-3.141,1.65
	c-2.494,0.992-5.244,1.306-7.912,1.306c-2.257,0-4.675-0.18-6.885-0.883l-0.1,0.478h-14.236c-1.188,0.277-2.41,0.405-3.645,0.405
	c-1.573,0-3.097-0.247-4.496-0.77l-0.076,0.365h-13.818c-1.107,0.27-2.246,0.405-3.401,0.405c-1.803,0-3.514-0.323-5.049-0.967
	l-0.118,0.562h-44l7.793-37.057h20.666l-1.397,6.644h5.947c1.177-0.276,2.387-0.405,3.611-0.405c2.946,0,5.718,0.861,7.831,2.776
	c2.48-1.768,5.341-2.746,8.458-2.776l1.313-6.24h19.958l-1.397,6.644h21.936c1.566-0.299,3.179-0.405,4.756-0.405
	c1.97,0,4.149,0.103,6.073,0.662l0.055-0.257h2.457l0.264-1.253l22.036-10.198l-2.408,11.45h6.53
	c0.777-0.214,1.58-0.343,2.397-0.387l1.316-6.257h19.891l-1.411,6.709c0.187-0.036,0.373-0.07,0.561-0.101
	c1.522-0.254,3.065-0.369,4.607-0.369c1.971,0,4.037,0.081,5.975,0.454C352.317,91.387,353.147,91.634,353.937,91.965"/>
<path style="fill-rule:evenodd;clip-rule:evenodd;fill:#757777;" d="M305.557,105.779h-0.333l-0.215,1.023l0.355-0.107
	L305.557,105.779z M356.034,97.674l2.085-9.918h13.295l-6.435,30.603h-21.278l-0.147-0.418c-1.644,0.576-3.372,0.823-5.113,0.823
	c-2.453,0-4.964-0.558-6.708-2.389l-0.417,1.984h-13.295l2.557-12.159l-0.775-0.356c-0.088-0.041-0.211-0.096-0.33-0.14
	c-0.685,0.862-1.248,3.217-1.457,4.213l-1.775,8.443h-12.73c-1.429,0.252-2.883,0.405-4.332,0.405c-1.745,0-3.716-0.186-5.235-1.115
	c-1.379-0.844-2.3-2.13-2.724-3.669c-0.131,0.174-0.269,0.344-0.411,0.512c-1.239,1.462-2.852,2.49-4.622,3.195
	c-2.098,0.835-4.476,1.078-6.718,1.078c-2.774,0-6.259-0.283-8.52-2.063c-0.22-0.173-0.427-0.354-0.622-0.543l-0.463,2.202h-12.012
	c-1.054,0.281-2.147,0.405-3.249,0.405c-2.585,0-5.001-0.836-6.575-2.971c-0.02-0.028-0.041-0.055-0.06-0.083l-0.557,2.649H235.8
	c-0.968,0.27-1.969,0.405-2.989,0.405c-2.96,0-5.542-1.089-7.148-3.443l-0.638,3.038H187.62l6.436-30.603h14.069l-1.397,6.644h10.32
	c1.043-0.279,2.122-0.405,3.214-0.405c2.589,0,5.015,0.831,6.592,2.971c0.316,0.428,0.569,0.88,0.768,1.35
	c0.354-0.414,0.735-0.809,1.148-1.181c2.237-2.015,4.907-3.14,7.925-3.14c0.818,0,1.63,0.08,2.42,0.262l1.367-6.501h13.362
	l-1.397,6.644h22.454l-0.348,1.653c0.84-0.542,1.754-0.965,2.72-1.281c1.853-0.604,3.903-0.777,5.843-0.777
	c1.755,0,3.891,0.077,5.559,0.656c1.043,0.362,1.992,0.897,2.794,1.622l0.394-1.873h2.457l0.469-2.231l14.729-6.817l-1.903,9.047
	h10.982c0.822-0.273,1.686-0.405,2.575-0.405c0.657,0,1.298,0.081,1.922,0.229l1.361-6.469h13.295l-1.855,8.823
	c0.598-0.45,1.243-0.838,1.918-1.173c1.118-0.555,2.368-0.88,3.595-1.085c1.346-0.225,2.711-0.325,4.075-0.325
	c1.758,0,3.635,0.063,5.365,0.396c1.719,0.331,3.287,1.089,4.49,2.38C355.602,97.053,355.833,97.356,356.034,97.674z"/>
<path style="fill-rule:evenodd;clip-rule:evenodd;fill:#FFFFFF;" d="M360.739,90.984h6.699l-5.078,24.148h-6.699L360.739,90.984z
	 M346.64,106.801c-0.989,0.332-2.011,0.624-3.069,0.882c-1.434,0.365-2.374,0.725-2.808,1.079c-0.452,0.365-0.725,0.781-0.824,1.248
	c-0.112,0.534-0.019,0.973,0.275,1.31c0.3,0.337,0.802,0.506,1.515,0.506c0.747,0,1.481-0.185,2.203-0.551
	c0.717-0.365,1.264-0.809,1.645-1.338c0.38-0.529,0.659-1.214,0.837-2.057L346.64,106.801z M341.588,103.294l-6.254-0.675
	c0.478-1.124,1.011-2.007,1.6-2.648c0.59-0.646,1.358-1.203,2.316-1.675c0.684-0.343,1.581-0.607,2.691-0.792
	c1.111-0.186,2.292-0.281,3.543-0.281c2.003,0,3.584,0.113,4.754,0.337c1.165,0.225,2.081,0.697,2.739,1.411
	c0.468,0.495,0.769,1.197,0.904,2.102c0.141,0.905,0.122,1.771-0.052,2.597l-1.626,7.735c-0.174,0.826-0.26,1.473-0.251,1.939
	c0.003,0.467,0.108,1.063,0.303,1.788h-6.267c-0.158-0.45-0.25-0.787-0.279-1.023c-0.023-0.236-0.025-0.601,0.001-1.101
	c-1.052,0.843-2.049,1.444-2.994,1.804c-1.285,0.483-2.711,0.725-4.276,0.725c-2.081,0-3.562-0.484-4.435-1.456
	c-0.879-0.967-1.167-2.164-0.869-3.581c0.281-1.332,0.898-2.428,1.859-3.288c0.961-0.86,2.532-1.501,4.712-1.917
	c2.614-0.506,4.316-0.86,5.105-1.068c0.789-0.203,1.635-0.467,2.536-0.798c0.174-0.826,0.126-1.4-0.146-1.731
	c-0.267-0.332-0.828-0.494-1.68-0.494c-1.094,0-1.95,0.174-2.574,0.528C342.463,102.012,342.012,102.529,341.588,103.294z
	 M325.678,97.627h6.699l-3.681,17.504h-6.699L325.678,97.627z M327.075,90.984h6.699l-0.958,4.553h-6.699L327.075,90.984z
	 M310.569,97.627h6.272l-0.6,2.856c0.867-1.242,1.669-2.097,2.407-2.563c0.744-0.467,1.583-0.697,2.525-0.697
	c0.993,0,2.011,0.309,3.054,0.927l-3.077,4.761c-0.721-0.332-1.316-0.495-1.776-0.495c-0.875,0-1.637,0.365-2.272,1.09
	c-0.905,1.023-1.656,2.94-2.246,5.745l-1.236,5.88h-6.733L310.569,97.627z M305.038,90.984l-1.398,6.644h3.669l-1.035,4.924h-3.67
	l-1.302,6.194c-0.156,0.742-0.188,1.237-0.098,1.478c0.141,0.371,0.489,0.556,1.039,0.556c0.494,0,1.214-0.14,2.166-0.427
	l-0.481,4.637c-1.733,0.365-3.313,0.545-4.75,0.545c-1.666,0-2.85-0.214-3.551-0.641c-0.695-0.427-1.142-1.079-1.34-1.95
	c-0.193-0.872-0.086-2.288,0.325-4.238l1.295-6.155h-2.458l1.036-4.924h2.457l0.675-3.209L305.038,90.984z M271.161,110.275
	l6.759-0.607c0.109,0.786,0.373,1.349,0.795,1.686c0.423,0.337,1.044,0.506,1.869,0.506c0.898,0,1.633-0.191,2.209-0.579
	c0.447-0.281,0.713-0.641,0.802-1.068c0.102-0.483-0.071-0.86-0.521-1.124c-0.32-0.186-1.231-0.416-2.728-0.691
	c-2.237-0.405-3.769-0.781-4.604-1.13c-0.831-0.343-1.464-0.933-1.915-1.754c-0.443-0.826-0.554-1.765-0.332-2.822
	c0.242-1.152,0.783-2.147,1.625-2.979c0.844-0.838,1.895-1.461,3.154-1.872c1.259-0.41,2.874-0.618,4.843-0.618
	c2.076,0,3.58,0.157,4.5,0.478c0.926,0.32,1.647,0.815,2.168,1.484c0.52,0.674,0.88,1.579,1.076,2.726l-6.456,0.607
	c-0.046-0.557-0.234-0.967-0.561-1.231c-0.448-0.348-1.046-0.523-1.792-0.523c-0.751,0-1.33,0.135-1.729,0.405
	c-0.399,0.27-0.641,0.596-0.722,0.978c-0.091,0.433,0.06,0.753,0.446,0.972c0.385,0.225,1.297,0.422,2.725,0.596
	c2.175,0.253,3.749,0.607,4.743,1.057c0.989,0.45,1.684,1.09,2.08,1.928c0.402,0.837,0.495,1.754,0.285,2.754
	c-0.213,1.012-0.722,1.996-1.535,2.951c-0.807,0.956-1.926,1.714-3.353,2.282c-1.426,0.568-3.27,0.849-5.525,0.849
	c-3.187,0-5.364-0.455-6.523-1.372C271.785,113.254,271.188,111.956,271.161,110.275z M267.244,115.131h-6.256l0.594-2.822
	c-1.176,1.164-2.287,1.99-3.334,2.484c-1.052,0.495-2.265,0.742-3.646,0.742c-1.84,0-3.161-0.551-3.977-1.658
	c-0.811-1.102-0.975-2.805-0.492-5.104l2.344-11.147h6.733l-2.029,9.646c-0.23,1.096-0.193,1.877,0.113,2.344
	c0.307,0.461,0.825,0.692,1.555,0.692c0.792,0,1.507-0.309,2.146-0.922c0.635-0.618,1.12-1.726,1.456-3.322l1.774-8.437h6.699
	L267.244,115.131z M239.929,106.312c0.29-1.377,0.214-2.406-0.222-3.08c-0.435-0.68-1.099-1.017-1.985-1.017
	c-0.774,0-1.494,0.326-2.158,0.978c-0.658,0.646-1.151,1.737-1.474,3.271c-0.301,1.433-0.252,2.479,0.152,3.148
	c0.398,0.669,1.001,1,1.798,1c0.853,0,1.631-0.337,2.344-1.006C239.092,108.931,239.609,107.835,239.929,106.312z M249.869,90.984
	l-5.078,24.148h-6.273l0.545-2.591c-1.108,1.102-2.067,1.849-2.872,2.237c-1.065,0.506-2.196,0.759-3.38,0.759
	c-2.373,0-4-0.905-4.875-2.721c-0.869-1.816-1.033-4.025-0.489-6.616c0.612-2.906,1.774-5.126,3.484-6.667
	c1.71-1.54,3.628-2.31,5.765-2.31c1.044,0,1.949,0.174,2.724,0.523c0.778,0.354,1.42,0.877,1.929,1.579l1.754-8.341H249.869z
	 M207.638,97.627h6.239l-0.599,2.85c1.177-1.169,2.289-2.001,3.348-2.501c1.059-0.5,2.268-0.753,3.637-0.753
	c1.853,0,3.178,0.551,3.994,1.658c0.812,1.101,0.974,2.81,0.488,5.12l-2.34,11.13h-6.733l2.025-9.629
	c0.232-1.102,0.193-1.877-0.116-2.333c-0.307-0.456-0.826-0.686-1.556-0.686c-0.802,0-1.524,0.309-2.152,0.922
	c-0.629,0.618-1.113,1.72-1.449,3.316l-1.767,8.409h-6.699L207.638,97.627z M196.675,90.984h7.473l-5.078,24.148h-7.473
	L196.675,90.984z"/>
<polygon style="fill-rule:evenodd;clip-rule:evenodd;" points="76.429,4.519 77.56,5.35 78.638,6.253 79.602,7.18 80.44,8.073 
	81.207,8.973 81.938,9.912 82.618,10.885 83.252,11.888 83.837,12.932 84.371,14.003 84.844,15.094 85.262,16.204 85.625,17.342 
	85.932,18.501 86.176,19.665 86.364,20.825 86.496,21.998 86.575,23.177 86.584,23.62 101.301,0 135.104,0 140.87,32.875 148.637,0 
	180.078,0 188.102,0 212.728,0 213.658,0.007 214.615,0.029 215.57,0.065 216.506,0.118 217.442,0.185 218.372,0.271 219.288,0.37 
	220.194,0.488 221.092,0.621 221.991,0.774 222.881,0.944 223.758,1.133 224.625,1.338 225.492,1.566 226.353,1.814 227.191,2.08 
	228.021,2.364 228.853,2.674 229.679,3.008 230.482,3.36 231.276,3.733 232.074,4.138 232.854,4.564 233.602,5.004 234.347,5.47 
	235.088,5.969 235.808,6.489 236.502,7.027 237.188,7.592 237.855,8.184 238.5,8.795 239.148,9.454 240.187,10.598 241.2,11.838 
	242.144,13.124 242.255,13.292 245.385,0 348.004,0 349.323,0.019 350.7,0.083 352.067,0.192 353.412,0.352 354.745,0.56 
	356.072,0.825 357.391,1.149 358.68,1.535 359.955,1.982 361.218,2.505 362.46,3.101 363.664,3.772 364.836,4.518 365.968,5.349 
	367.046,6.253 368.01,7.18 368.848,8.073 369.615,8.973 370.346,9.912 371.026,10.885 371.66,11.888 372.245,12.932 372.779,14.003 
	373.252,15.094 373.67,16.204 374.033,17.342 374.34,18.501 374.584,19.665 374.772,20.825 374.904,21.998 374.983,23.177 
	375.007,24.35 374.981,25.57 374.902,26.79 374.768,28.011 374.577,29.226 374.33,30.434 374.023,31.631 373.662,32.806 
	373.243,33.966 372.771,35.103 372.242,36.217 371.661,37.307 371.026,38.367 370.351,39.387 369.629,40.378 368.864,41.337 
	368.028,42.295 367.087,43.269 366.058,44.219 364.981,45.104 363.864,45.925 362.918,46.546 363.068,46.818 363.554,47.725 
	364.038,48.648 364.528,49.604 365.02,50.587 365.507,51.585 365.997,52.604 366.493,53.659 366.992,54.738 367.489,55.838 
	367.991,56.964 368.498,58.123 369.005,59.303 375.426,74.487 333.924,74.487 331.043,67.56 330.742,66.847 330.436,66.126 
	330.121,65.398 329.933,64.964 327.731,74.487 227.844,74.487 229.218,68.655 229.213,68.657 227.972,69.386 226.7,70.053 
	225.399,70.656 224.125,71.174 222.986,71.588 221.937,71.948 220.886,72.285 219.827,72.604 218.768,72.897 217.71,73.167 
	216.653,73.412 215.593,73.634 214.531,73.831 213.467,74.004 212.409,74.149 211.349,74.27 210.281,74.365 209.218,74.433 
	208.161,74.474 207.167,74.487 170.502,74.487 162.859,74.487 108.827,74.487 108.005,65.594 103.755,65.594 99.095,74.487 
	45.516,74.487 42.634,67.558 42.333,66.845 42.028,66.127 41.712,65.395 41.525,64.963 39.322,74.487 0,74.487 17.429,0 59.596,0 
	60.914,0.019 62.291,0.083 63.658,0.192 65.004,0.352 66.337,0.56 67.664,0.825 68.983,1.149 70.273,1.535 71.546,1.982 
	72.809,2.504 74.053,3.102 75.257,3.772 "/>
<path style="fill-rule:evenodd;clip-rule:evenodd;fill:#757777;" d="M337.026,26.992l0.678-0.039l0.624-0.044l0.564-0.048
	l0.501-0.051l0.436-0.053l0.367-0.053l0.292-0.05l0.203-0.043l0.097-0.024l0.32-0.103l0.253-0.1l0.195-0.095l0.108-0.063
	l-0.092-0.01l-0.395-0.031l-0.433-0.027l-0.466-0.018l-0.507-0.012l-0.562-0.003h-5.391l-0.228,0.98l0.167-0.003l0.897-0.018
	l0.844-0.025l0.789-0.03L337.026,26.992z M203.275,47.366h1.247l0.704-0.021l0.583-0.054l0.541-0.087l0.498-0.115l0.462-0.143
	l0.436-0.169l0.41-0.198l0.391-0.226l0.383-0.261l0.377-0.3l0.368-0.34l0.364-0.388l0.365-0.443l0.359-0.498l0.355-0.56l0.361-0.647
	l0.373-0.738l0.364-0.77l0.335-0.762l0.309-0.758l0.284-0.757l0.258-0.749l0.23-0.743l0.206-0.741l0.182-0.739l0.156-0.732
	l0.131-0.729l0.106-0.725l0.083-0.725l0.059-0.721l0.036-0.72l0.012-0.724l-0.005-0.349l-0.017-0.322l-0.026-0.304l-0.036-0.291
	l-0.042-0.263l-0.048-0.232l-0.055-0.219l-0.061-0.205l-0.064-0.185l-0.065-0.16l-0.069-0.15l-0.074-0.138l-0.072-0.122
	l-0.075-0.111l-0.078-0.103l-0.08-0.095l-0.04-0.042l-0.009-0.009l-0.034-0.026l-0.067-0.044l-0.094-0.053l-0.127-0.061l-0.17-0.069
	l-0.215-0.074l-0.255-0.074l-0.293-0.069l-0.334-0.064l-0.38-0.056l-0.423-0.047l-0.462-0.035l-0.502-0.022l-0.574-0.007h-1.839
	L203.275,47.366z M184.085,5.039h28.625l0.872,0.006l0.879,0.02l0.87,0.034l0.854,0.048l0.846,0.061l0.837,0.077l0.823,0.09
	l0.81,0.105l0.8,0.118l0.794,0.135l0.782,0.15l0.769,0.166l0.756,0.179l0.75,0.197l0.739,0.213l0.721,0.229l0.711,0.243l0.705,0.263
	l0.694,0.28l0.676,0.296l0.665,0.313l0.659,0.334l0.644,0.352l0.621,0.366l0.612,0.383l0.603,0.406l0.587,0.423l0.566,0.438
	l0.555,0.457l0.539,0.478l0.521,0.493l0.515,0.524l0.884,0.973l0.847,1.036L238.005,16l0.73,1.112l0.672,1.147l0.613,1.186
	l0.554,1.22l0.491,1.25l0.431,1.275l0.372,1.306l0.312,1.331l0.253,1.357l0.196,1.378l0.137,1.403l0.082,1.424l0.024,1.264
	l6.503-27.614h58.374l-4.816,20.166h-28.976l-0.362,1.747h28.901l-1.098,4.614l-3.591,14.772h-29.25l-0.382,1.75h29.284
	l-5.095,21.361l2.509,0.001l5.445-22.462l9.889-41.948h37.761l1.202,0.017l1.212,0.057l1.187,0.095l1.159,0.137l1.136,0.177
	l1.113,0.222l1.09,0.268l1.057,0.316l1.032,0.362l1.007,0.417l0.979,0.47l0.94,0.524l0.906,0.577l0.868,0.637l0.822,0.689
	l0.746,0.718l0.668,0.711l0.616,0.723l0.581,0.747l0.539,0.772l0.501,0.793l0.46,0.821l0.418,0.84l0.371,0.857l0.329,0.873
	l0.285,0.893l0.241,0.911l0.193,0.921l0.15,0.925l0.106,0.939l0.063,0.948l0.019,0.952l-0.021,1.005l-0.065,0.999l-0.109,0.993
	l-0.155,0.983l-0.199,0.974l-0.247,0.962l-0.291,0.946l-0.336,0.931l-0.38,0.912l-0.425,0.896l-0.468,0.877l-0.512,0.856l-0.55,0.83
	l-0.588,0.808l-0.629,0.787l-0.68,0.78l-0.751,0.777l-0.816,0.753l-0.86,0.706l-0.901,0.661l-0.941,0.618l-0.978,0.574l-1.015,0.532
	l-1.05,0.489l-1.08,0.449l-0.092,0.034l0.081,0.122l0.452,0.708l0.455,0.735l0.45,0.755l0.455,0.779l0.457,0.809l0.46,0.833
	l0.461,0.861l0.463,0.883l0.467,0.912l0.471,0.941l0.469,0.962l0.475,0.987l0.478,1.018l0.483,1.045l0.484,1.07l0.49,1.097
	l0.492,1.128l0.496,1.153l3.454,8.168h-30.54l-1.594-3.834l-0.309-0.732l-0.315-0.74l-0.323-0.748l-0.33-0.76l-0.338-0.767
	l-0.344-0.778l-0.352-0.786l-0.359-0.797l-0.365-0.803l-0.371-0.811l-0.38-0.822l-0.385-0.829l-0.393-0.836l-0.399-0.848
	l-0.403-0.846l-0.394-0.816l-0.378-0.761l-0.359-0.708l-0.346-0.662l-0.327-0.609l-0.24-0.43l-4.559,19.723h-27.697h-1.266h-60.555
	l4.461-18.944l-0.008,0.016l-0.316,0.604l-0.327,0.603l-0.342,0.603l-0.349,0.593l-0.371,0.605l-0.725,1.125l-0.756,1.097
	l-0.779,1.054l-0.803,1.017l-0.825,0.972l-0.853,0.933l-0.878,0.888l-0.904,0.845l-0.93,0.8l-0.956,0.752l-0.979,0.704l-1.008,0.657
	l-1.034,0.607l-1.056,0.555l-1.079,0.501l-1.073,0.437l-1.007,0.366l-0.961,0.329l-0.959,0.308l-0.959,0.288l-0.957,0.265
	l-0.955,0.244l-0.951,0.221l-0.951,0.2l-0.947,0.176l-0.947,0.153l-0.943,0.129l-0.94,0.108l-0.94,0.083l-0.938,0.06l-0.931,0.036
	l-0.897,0.012h-37.936L184.085,5.039z M48.618,26.992l0.679-0.039l0.624-0.044l0.564-0.048l0.501-0.051l0.435-0.053l0.367-0.053
	l0.292-0.051l0.203-0.043l0.096-0.024l0.321-0.103l0.253-0.1l0.194-0.095l0.108-0.063l-0.092-0.01l-0.395-0.031l-0.434-0.027
	l-0.466-0.018l-0.508-0.012L50.8,26.123h-5.39l-0.228,0.98L45.35,27.1l0.897-0.018l0.844-0.025l0.789-0.03L48.618,26.992z
	 M71.638,42.403l-0.978,0.574l-1.016,0.532l-1.049,0.489l-1.08,0.449l-0.093,0.034l0.081,0.122l0.452,0.708l0.454,0.735l0.451,0.755
	l0.455,0.779l0.457,0.809l0.46,0.833l0.461,0.861l0.463,0.883l0.467,0.912l0.471,0.941l0.47,0.962l0.474,0.987l0.031,0.067
	l31.027-49.797h26.773l9.268,52.842l12.484-52.842h29.11l-15.219,64.409h-24.346h-4.762h-23.986l-0.823-8.893h-11.893l-4.659,8.893
	h-16.63h-15.45H48.878l-1.596-3.836l-0.308-0.732l-0.314-0.738l-0.324-0.749l-0.33-0.76l-0.337-0.766l-0.344-0.778l-0.352-0.786
	l-0.359-0.797l-0.365-0.803l-0.371-0.811L43.5,57.071l-0.385-0.829l-0.393-0.836l-0.4-0.848l-0.403-0.846l-0.395-0.816l-0.377-0.761
	l-0.359-0.708l-0.347-0.662l-0.326-0.609l-0.24-0.43l-4.561,19.723H6.354l15.07-64.409h38.135l1.202,0.017l1.212,0.057l1.188,0.095
	l1.159,0.137l1.136,0.177l1.112,0.222l1.09,0.268l1.058,0.316l1.032,0.362l1.006,0.416l0.979,0.47l0.941,0.525l0.906,0.578
	l0.867,0.636l0.822,0.689l0.746,0.718l0.668,0.711l0.616,0.723l0.581,0.747l0.539,0.772l0.502,0.793l0.46,0.821l0.418,0.84
	l0.372,0.857l0.329,0.873l0.285,0.893l0.241,0.911l0.193,0.921l0.15,0.925l0.106,0.939l0.063,0.948l0.02,0.952l-0.022,1.005
	l-0.065,0.999l-0.109,0.993l-0.154,0.983l-0.199,0.974l-0.247,0.96l-0.289,0.946l-0.337,0.933l-0.38,0.912l-0.425,0.896
	l-0.468,0.877l-0.512,0.856l-0.549,0.83l-0.589,0.808l-0.629,0.787l-0.68,0.78l-0.751,0.777l-0.817,0.753l-0.861,0.706l-0.899,0.661
	L71.638,42.403z"/>
<path style="fill-rule:evenodd;clip-rule:evenodd;fill:#FFFFFF;" d="M327.238,32.165h3.516c5.889,0,9.697-0.241,11.428-0.734
	c1.73-0.493,3.014-1.328,3.865-2.505c0.836-1.176,1.269-2.301,1.269-3.389c0-1.392-0.502-2.479-1.521-3.264
	c-1.004-0.798-3.195-1.189-6.572-1.189l-9.405,0L327.238,32.165z M313.828,10.078h34.103c5.874,0,10.186,1.392,12.907,4.187
	c2.735,2.796,4.088,6.149,4.088,10.082c0,4.25-1.438,7.957-4.326,11.132s-7.506,5.212-13.855,6.097
	c3.753,2.771,8.247,10.386,13.479,22.833h-19.577c-1.632-3.935-3.559-8.222-5.777-12.877c-2.232-4.655-3.893-7.362-5.009-8.096
	c-1.116-0.747-2.47-1.114-4.047-1.114h-0.99l-5.107,22.087h-18.6L313.828,10.078z M301.945,10.078l-2.836,11.676h-29.918
	l-2.01,8.639h29.967l-2.693,11.006H264.53l-2.54,10.626h30l-2.944,12.384h-48.475l12.795-54.332H301.945z M196.953,52.405h7.646
	c5.066,0,8.846-2.378,11.33-7.122c2.471-4.744,3.713-9.475,3.713-14.193c0-2.783-0.712-4.997-2.15-6.616
	c-1.424-1.619-3.991-2.429-7.703-2.429l-5.889,0L196.953,52.405z M188.092,10.078h24.599c8.749,0,15.126,2.1,19.13,6.3
	c4.005,4.199,6.014,9.69,6.014,16.458c0,6.501-1.716,12.497-5.149,18.013c-3.432,5.503-7.493,9.146-12.181,10.918
	c-4.688,1.757-9.154,2.643-13.41,2.643h-31.563L188.092,10.078z M175.366,10.078L162.528,64.41h-18.753l12.837-54.332H175.366z
	 M116.007,43.993l-1.828-19.797h-0.167l-10.298,19.797H116.007z M136.17,64.41h-18.153l-0.824-8.893H97.657l-4.659,8.893H73.044
	l33.852-54.332h19.744L136.17,64.41z M38.83,32.165h3.516c5.889,0,9.697-0.241,11.428-0.734c1.731-0.493,3.014-1.328,3.866-2.505
	c0.837-1.176,1.27-2.301,1.27-3.389c0-1.392-0.503-2.479-1.522-3.264c-1.004-0.798-3.196-1.189-6.572-1.189l-9.404,0L38.83,32.165z
	 M25.42,10.078h34.103c5.875,0,10.186,1.392,12.907,4.187c2.735,2.796,4.088,6.149,4.088,10.082c0,4.25-1.437,7.957-4.326,11.132
	c-2.889,3.175-7.507,5.212-13.856,6.097c3.754,2.771,8.247,10.386,13.479,22.833H52.239c-1.632-3.935-3.558-8.222-5.777-12.877
	c-2.232-4.655-3.893-7.362-5.009-8.096c-1.117-0.747-2.47-1.114-4.047-1.114h-0.991L31.309,64.41H12.708L25.42,10.078z"/>
<g>
</g>
<g>
</g>
<g>
</g>
<g>
</g>
<g>
</g>
<g>
</g>
</svg>
