<?xml version="1.0" encoding="iso-8859-1"?>
<!-- Generator: Adobe Illustrator 21.1.0, SVG Export Plug-In . SVG Version: 6.00 Build 0)  -->
<svg version="1.1" id="Layer_1" xmlns="http://www.w3.org/2000/svg" xmlns:xlink="http://www.w3.org/1999/xlink" x="0px" y="0px"
	 viewBox="0 0 450.566 106.492" style="enable-background:new 0 0 450.566 106.492;" xml:space="preserve">
<g>
	<polygon style="fill-rule:evenodd;clip-rule:evenodd;fill:#333;" points="277.267,103.446 258.267,81.446 235.274,56.295 
		261.267,56.446 219.267,27.446 200.179,14.529 230.267,47.446 205.066,47.705 277.267,103.446 	"/>
	<polygon style="fill-rule:evenodd;clip-rule:evenodd; fill:#333;" points="177.836,106.224 231.567,106.075 198.586,79.51 201.999,59.308 
		177.836,106.224 	"/>
	<polygon style="fill-rule:evenodd;clip-rule:evenodd; fill: #333;" points="219.267,27.446 261.267,56.446 232.406,0 219.267,27.446 	"/>
	<polygon style="fill-rule:evenodd;clip-rule:evenodd;  fill: #333;" points="258.267,81.446 277.267,103.446 281.267,106.446 287.386,106.385 
		262.537,58.5 258.267,81.446 	"/>
	<path style="fill: #333;" d="M0,55.109h21.547l8.249,34.561l8.107-34.561H59.45v51.272H44.09V70.47l-9.885,35.912h-9.173L15.36,70.47v35.912H0V55.109
		L0,55.109z M65.566,67.803c0-0.759,0.048-1.458,0.142-2.11c0.095-0.64,0.308-1.458,0.64-2.453c0.522-1.814,1.138-3.177,1.849-4.101
		c0.711-0.925,1.778-1.754,3.2-2.501c1.422-0.735,2.868-1.244,4.338-1.529h3.769h22.258c1.849,0,3.437,0.284,4.765,0.853
		c1.327,0.569,2.833,1.802,4.516,3.698c1.683,1.896,2.525,4.551,2.525,7.965v38.756h-15.36V86.541H80.926v19.841h-15.36V67.803
		L65.566,67.803z M80.926,75.661h17.281v-7.182H80.926V75.661L80.926,75.661z M119.683,55.109h15.36v25.103l17.352-25.103h17.494
		l-15.076,20.765h1.067c2.513,0,4.848,0.498,7.005,1.493c2.157,0.996,3.781,2.394,4.871,4.195c0.853,1.138,1.422,2.489,1.706,4.054
		c0.285,1.564,0.427,3.864,0.427,6.898v13.867h-15.36V86.186h-19.485v20.196h-15.36V55.109L119.683,55.109z"/>
	<path  style="fill: #333;" d="M295.334,54.58h15.552v38.448h25.92v13.464h-41.472V54.58L295.334,54.58z M339.902,91.876V69.124
		c0-4.272,1.296-7.764,3.888-10.476c2.592-2.712,6.024-4.068,10.296-4.068h22.248c10.56,0,15.84,4.464,15.84,13.392v25.776
		c0,3.408-1.296,6.384-3.888,8.928c-2.592,2.544-5.616,3.816-9.072,3.816h-28.368c-3.12,0-5.724-1.38-7.812-4.14
		C340.946,99.592,339.902,96.1,339.902,91.876L339.902,91.876z M355.454,93.028h21.096V68.116h-21.096V93.028L355.454,93.028z
		 M398.366,54.58h19.872l16.704,25.848V54.58h15.624v51.912h-15.624l-21.024-33.48v33.48h-15.552V54.58L398.366,54.58z"/>
</g>
</svg>
