<?xml version="1.0" encoding="iso-8859-1"?>
<!-- Generator: Adobe Illustrator 21.1.0, SVG Export Plug-In . SVG Version: 6.00 Build 0)  -->
<svg version="1.1" id="Layer_1" xmlns="http://www.w3.org/2000/svg" xmlns:xlink="http://www.w3.org/1999/xlink" x="0px" y="0px"
	 viewBox="0 0 2722.404 679.561" style="enable-background:new 0 0 2722.404 679.561;" xml:space="preserve">
<g>
	<path style="fill-rule:evenodd;clip-rule:evenodd;fill:#FFE500;" d="M153.381,12.54l2415.875,0.875
		c77.358,0.026,140.622,62.453,140.602,138.735l-0.132,376.224c-0.032,76.282-63.344,138.661-140.708,138.636l-2415.876-0.875
		C75.79,666.109,12.514,603.681,12.541,527.399l0.138-376.228C12.705,74.894,76.018,12.514,153.381,12.54L153.381,12.54z"/>
	<path d="M153.392,0l2415.869,0.87c42.128,0.016,80.401,17.009,108.122,44.369c27.795,27.419,45.038,65.268,45.021,106.918
		l-0.132,376.223c-0.016,41.645-17.284,79.484-45.09,106.886c-27.753,27.339-66.037,44.305-108.159,44.295l-2415.875-0.875
		c-42.122-0.01-80.4-17.009-108.121-44.363C17.231,606.898-0.011,569.055,0,527.409l0.144-376.233
		c0.01-41.645,17.284-79.478,45.084-106.881C72.986,16.956,111.275-0.005,153.392,0L153.392,0z M2569.261,25.961L153.392,25.092
		c-35.242-0.011-67.298,14.199-90.551,37.107c-23.189,22.855-37.595,54.36-37.611,88.977l-0.138,376.233
		c-0.011,34.633,14.369,66.143,37.537,89.004c23.242,22.928,55.288,37.177,90.519,37.193l2415.875,0.864
		c35.241,0.01,67.298-14.205,90.551-37.108c23.189-22.861,37.595-54.36,37.611-88.982l0.133-376.223
		c0.011-34.632-14.369-66.148-37.537-89.009C2636.539,40.214,2604.488,25.972,2569.261,25.961L2569.261,25.961z"/>
	<path d="M2361.038,397.573l87.487,0.026l0.037-90.392c0.011-32.342,16.601-48.927,48.938-48.917
		c6.223,0.006,12.859,0.43,20.735,0.848l0.027-84.174c-6.218-0.833-11.608-0.833-15.753-0.833
		c-15.763-0.005-28.192,5.38-40.637,18.647c-7.469,7.457-11.619,13.675-19.919,28.595l0.016-41.046l-80.851-0.033L2361.038,397.573
		L2361.038,397.573z M2160.819,262.742c4.155-29.449,15.36-41.051,39.396-41.04c23.222,0.01,34.415,12.041,38.55,41.066
		L2160.819,262.742L2160.819,262.742z M2234.179,332.42c-7.049,12.441-16.589,18.244-31.928,18.239
		c-25.304-0.011-37.728-13.277-41.449-43.977l164.194,0.064c-0.403-26.121-1.229-36.075-5.375-51
		c-2.48-9.123-5.798-18.244-10.352-26.545c-19.891-37.324-55.547-54.752-111.937-54.773c-50.995-0.016-81.685,12.413-102.844,42.677
		c-13.69,19.065-20.332,41.041-20.342,68.407c-0.027,77.947,43.086,117.842,127.669,117.869
		c46.028,0.016,78.789-12.477,99.11-36.933c7.882-9.535,11.2-16.585,17.004-34.002L2234.179,332.42L2234.179,332.42z
		 M2053.815,335.68h-7.049l-4.564-0.005c-22.802-0.006-30.265-4.574-30.259-19.913l0.031-87.907l41.052,0.016l0.016-47.681
		l-41.052-0.017l0.026-70.908l-87.487-0.031l-0.026,70.907l-30.69-0.011l-0.015,47.682l30.689,0.011l-0.043,110.29
		c-0.015,44.782,20.709,63.105,72.541,63.121c6.636,0,14.507-0.408,21.556-1.234c15.345-1.241,21.149-2.545,35.253-7.935
		L2053.815,335.68L2053.815,335.68z M1649.129,328.07c2.475,18.238,4.553,25.701,10.765,36.074
		c4.559,8.29,10.362,14.931,16.998,19.494c18.233,12.446,48.504,18.742,89.963,18.758c40.219,0.011,60.959-4.538,81.694-18.292
		c20.74-13.664,29.454-29.835,29.464-54.297c0.01-31.107-15.323-51.418-47.665-62.623c-10.781-3.737-22.797-7.055-35.65-9.97
		c-2.911-0.827-12.854-2.904-29.857-6.228c-18.244-3.742-24.461-8.305-24.455-17.835c0-10.373,8.3-16.585,21.975-16.58
		c15.349,0.005,25.707,7.892,29.019,21.986l79.192,0.027c-2.899-15.339-4.961-21.149-10.352-30.275
		c-3.307-5.385-7.043-9.949-10.77-13.267c-16.172-13.696-46.442-20.75-87.074-20.766c-71.311-0.026-106.982,22.77-106.998,67.966
		c-0.011,38.968,24.445,58.055,89.952,70.102c37.309,7.061,46.017,11.211,46.013,22.818c-0.006,14.104-9.128,21.149-27.371,21.138
		c-19.898-0.006-28.6-7.882-29.841-28.198L1649.129,328.07L1649.129,328.07z M1523.088,298.573l-0.005,7.881
		c-0.006,22.389-1.665,28.617-10.373,36.074c-7.887,6.631-19.076,10.363-30.275,10.358c-15.345-0.006-26.12-7.887-26.115-19.082
		c0-5.39,3.318-11.607,7.876-15.344c5.814-4.139,10.373-5.793,28.622-10.352c7.881-1.658,16.172-4.145,21.154-5.798
		C1516.038,301.482,1518.943,300.237,1523.088,298.573L1523.088,298.573z M1533.005,397.276l85.833,0.031v-6.228
		c-7.463-5.809-9.535-10.367-9.53-18.662l0.047-122.734c0.006-19.485-0.831-24.461-6.211-34.828
		c-4.145-8.296-8.698-14.926-14.094-19.496c-9.943-9.122-24.455-14.517-48.095-17.846c-16.161-2.078-31.087-3.328-45.185-3.334
		c-29.862-0.01-63.032,4.537-80.862,11.587c-7.458,2.894-14.512,7.871-20.735,14.088c-10.786,11.189-14.523,20.725-16.606,44.358
		l85.415,0.033c3.742-16.59,12.037-22.389,31.934-22.378c19.495,0.005,29.03,6.641,29.024,19.494c0,5.391-1.664,9.949-4.574,12.435
		c-4.558,4.146-9.943,5.391-25.288,7.039l-22.807,2.067c-36.487,3.721-51.832,6.62-65.936,13.245
		c-7.463,2.904-13.68,7.05-18.657,11.608c-12.864,11.601-19.495,28.606-19.505,48.085c-0.016,43.537,27.753,66.837,80.83,66.852
		c26.952,0.011,50.586-6.264,63.445-17.04c4.564-3.731,10.367-9.944,16.595-17.825L1533.005,397.276L1533.005,397.276z
		 M949.194,397.064l86.247,0.026l0.037-118.17c0.011-25.299,11.21-39.393,31.113-39.382c19.903,0.005,29.433,14.109,29.422,42.721
		l-0.037,114.858l85.828,0.026l0.043-116.925c0.005-26.957,10.797-40.632,31.531-40.626c19.479,0.005,29.014,13.283,29.004,39.815
		l-0.042,117.763l86.247,0.031l0.053-150.105c0.015-46.017-28.998-72.154-79.998-72.174c-17.83-0.006-36.487,4.128-51.005,10.765
		c-10.362,4.552-16.59,9.938-28.616,23.624c-9.112-12.859-13.256-17.422-18.238-21.992c-11.195-8.708-24.461-12.439-45.191-12.451
		c-17.406-0.005-28.611,2.476-43.95,9.939c-9.954,4.558-16.59,7.87-19.5,9.943c-2.899,2.486-7.463,7.039-13.267,14.507l0.011-29.437
		l-79.616-0.033L949.194,397.064L949.194,397.064z M826.083,286.721c-0.016,33.176-12.451,50.582-36.09,50.571
		c-24.048-0.011-36.069-17.422-36.058-51.016c0.011-33.583,12.88-50.575,37.749-50.565
		C813.67,235.716,826.094,254.373,826.083,286.721L826.083,286.721z M668.865,484.927l86.247,0.027l0.048-121.138
		c11.189,19.499,19.06,27.783,31.081,32.358c9.949,3.8,20.73,5.878,31.51,5.883c31.102,0.011,47.269-6.683,65.936-28.245
		c20.327-22.797,29.873-50.152,29.883-84.578c0.027-70.065-37.272-115.691-94.907-115.711c-16.58-0.006-33.175,4.547-43.956,11.178
		c-11.2,7.463-17.836,16.993-28.208,40.627l0.016-45.614l-77.539-0.027L668.865,484.927L668.865,484.927z M472.821,287.421
		c0.011-40.633,10.384-57.631,34.844-57.62c26.12,0.005,37.309,16.187,37.299,53.915c-0.011,20.73-0.843,29.03-4.574,38.559
		c-5.401,14.921-16.182,22.384-30.694,22.378C484.403,344.648,472.806,326.808,472.821,287.421L472.821,287.421z M384.497,289.048
		c2.465,71.73,46.813,112.866,121.028,112.898c82.107,0.026,127.727-41.078,127.754-114.875
		c0.011-33.175-10.341-61.791-29.825-82.118c-21.551-22.808-46.839-31.113-91.621-31.129c-63.44-0.022-98.692,18.212-117.365,61.325
		c-6.222,14.512-9.965,32.755-9.97,50.167V289.048L384.497,289.048z M364.165,335.071l-7.055-0.006h-4.558
		c-22.807-0.01-30.27-4.574-30.264-19.918l0.031-87.9l41.057,0.015l0.016-47.682l-41.057-0.015l0.027-70.909l-87.488-0.026
		l-0.027,70.903l-30.684-0.011l-0.016,47.681l30.684,0.011l-0.038,110.295c-0.021,44.776,20.709,63.1,72.54,63.116
		c6.631,0.006,14.512-0.407,21.562-1.235c15.333-1.24,21.143-2.55,35.247-7.935L364.165,335.071L364.165,335.071z"/>
	<path d="M2427.759,566.181l21.451-101.883l-21.413-0.011l-21.308,101.889L2427.759,566.181L2427.759,566.181z M2361.34,553.477
		c-6.996,0-10.055-5.459-10.055-13.128c0.006-13.416,13.124-28.607,27.547-29.338l5.247-0.292l-5.109,22.41
		C2376.632,544.047,2370.224,553.477,2361.34,553.477L2361.34,553.477z M2375.174,556.132c-0.429,3.69-1.171,7.225-1.755,10.034
		l19.966,0.005c0.436-5.454,1.601-14.009,3.059-22.707c2.48-14.162,8.03-42.322,9.344-46.743c-8.158-1.924-13.41-2.666-23.448-2.672
		c-8.157,0-20.985,3.244-30.307,10.76c-17.777,14.151-19.818,29.337-19.824,39.069c0,13.123,9.748,24.36,21.403,24.365
		C2364.102,568.248,2370.075,564.396,2375.174,556.132L2375.174,556.132z M2314.141,566.139l9.333-44.236
		c0.875-3.981,1.463-7.67,1.463-10.909c0-9.884-6.556-16.372-19.812-16.378c-10.182,0-16.018,3.243-23.894,12.233l1.907-11.353
		l-22.435-0.011c-0.594,6.191-1.612,12.388-2.778,18.584l-9.34,52.049l21.408,0.01l7.887-38.199
		c0.577-2.651,4.081-15.774,15.297-15.768c6.705,0,8.306,4.87,8.306,9.588c-0.006,2.507-0.588,4.861-0.88,6.487l-8.029,37.898
		L2314.141,566.139L2314.141,566.139z M2218.883,524.229c-0.005,16.516-10.352,28.012-19.531,28.012
		c-8.74-0.005-11.062-8.412-11.062-15.201c0.006-12.382,6.859-27.715,19.68-27.71C2216.7,509.33,2218.889,515.818,2218.883,524.229
		L2218.883,524.229z M2195.557,567.888c9.477,0.005,16.897-1.611,23.459-5.613c14.279-8.55,21.715-23.741,21.721-39.52
		c0.005-16.214-9.027-29.051-29.417-29.056c-12.239-0.006-22.288,3.089-29.724,9.429c-10.49,8.99-15.589,21.663-15.594,35.094
		C2165.991,555.03,2176.332,567.883,2195.557,567.888L2195.557,567.888z M2146.613,566.081l14.889-70.627l-21.705-0.011
		l-14.878,70.626L2146.613,566.081L2146.613,566.081z M2163.542,485.42l4.087-19.165l-21.556-0.006l-3.939,19.161L2163.542,485.42
		L2163.542,485.42z M2087.621,567.851c16.749,0.005,28.707-9.747,28.712-27.292c0-10.617-8.157-14.755-15.588-17.708
		c-5.677-2.205-11.211-3.535-11.211-7.664c0-5.02,8.158-5.751,13.696-5.751c4.951,0,12.09,2.072,15.732,3.254l4.368-15.191
		c-5.237-2.66-14.411-3.842-20.391-3.842c-21.843-0.006-33.068,7.955-33.074,23.438c-0.005,8.692,7.283,14.008,13.251,17.401
		c5.825,3.249,12.816,3.986,12.816,9.445c0,6.053-8.014,6.779-13.399,6.779c-6.849-0.005-13.547-0.742-19.373-3.551l-4.691,17.4
		C2064.898,566.515,2076.113,567.846,2087.621,567.851L2087.621,567.851z M2024.107,567.824
		c16.754,0.006,28.701-9.742,28.706-27.286c0.005-10.622-8.151-14.756-15.577-17.708c-5.682-2.211-11.221-3.535-11.215-7.67
		c0-5.014,8.157-5.751,13.696-5.746c4.95,0,12.09,2.072,15.731,3.255l4.373-15.191c-5.242-2.661-14.417-3.838-20.39-3.843
		c-21.848-0.005-33.07,7.95-33.08,23.433c-0.005,8.698,7.282,14.014,13.256,17.401c5.825,3.254,12.816,3.99,12.811,9.455
		c-0.006,6.042-8.014,6.774-13.405,6.769c-6.843,0-13.543-0.737-19.367-3.55l-4.696,17.406
		C2001.384,566.494,2012.605,567.824,2024.107,567.824L2024.107,567.824z M1952.891,527.372c0.148-1.028,0.297-2.358,0.44-3.238
		c2.332-8.109,7.876-16.219,17.342-16.214c4.516,0,6.552,2.209,6.552,4.865c-0.006,2.656-0.875,5.757-2.91,7.374
		C1971.104,522.952,1964.981,525.464,1952.891,527.372L1952.891,527.372z M1951.286,540.204c19.081-1.177,30.45-5.443,36.859-11.496
		c6.413-6.038,8.157-13.998,8.162-19.749c0-12.091-9.753-15.345-22.569-15.345c-20.395-0.01-36.858,13.405-41.968,37.734
		c-0.874,3.831-1.171,7.224-1.171,10.468c-0.011,16.813,10.484,25.982,30.434,25.988c8.454,0.006,18.212-1.018,22.151-3.545
		l3.503-18.583c-4.235,3.832-11.661,5.745-19.818,5.74C1957.837,551.41,1951.719,549.49,1951.286,540.204L1951.286,540.204z
		 M1915.9,510.396l15.732,0.011l2.921-14.301l-15.732-0.005c1.601-7.23,3.355-14.598,13.113-14.593c1.897,0,3.35,0.292,5.242,0.885
		l4.669-17.104c-4.664-1.181-9.471-1.923-12.672-1.923c-7.866-0.006-16.172,2.798-22.723,10.028
		c-6.128,6.631-7.145,15.328-8.9,22.696l-13.839-0.005l-2.91,14.305l13.839,0.006l-11.688,55.59l21.128,0.005L1915.9,510.396
		L1915.9,510.396z M1851.947,524.092c-0.005,16.52-10.352,28.017-19.531,28.017c-8.74-0.006-11.062-8.417-11.062-15.201
		c0.006-12.382,6.854-27.711,19.675-27.705C1849.768,509.203,1851.952,515.68,1851.947,524.092L1851.947,524.092z M1828.62,567.755
		c9.471,0.005,16.903-1.611,23.453-5.607c14.279-8.555,21.72-23.746,21.726-39.525c0.005-16.214-9.026-29.052-29.417-29.056
		c-12.239-0.006-22.289,3.09-29.719,9.429c-10.495,8.99-15.594,21.663-15.599,35.094
		C1799.059,554.897,1809.396,567.751,1828.62,567.755L1828.62,567.755z M1797.756,516.109l4.532-20.205
		c-1.028-0.584-3.207-1.023-4.521-1.023c-12.673-0.005-19.087,7.654-23.02,18.127l3.355-17.698l-20.973-0.005
		c-1.028,6.933-2.635,13.415-3.651,19.166l-9.197,51.462l21.705,0.01l6.276-29.931c2.046-9.731,5.688-20.793,19.086-20.788
		C1793.399,515.224,1795.143,515.516,1797.756,516.109L1797.756,516.109z M1708.324,508.408c6.991,0.005,10.049,5.47,10.044,13.134
		c-0.005,13.41-13.118,28.6-27.54,29.337l-5.099,0.28l4.96-22.409C1693.165,517.848,1699.583,508.408,1708.324,508.408
		L1708.324,508.408z M1685.14,567.856c0.737,0,1.452,0,2.184,0c8.306,0.006,21.408-2.225,30.89-9.742
		c17.628-14.151,19.379-30.376,19.383-40.113c0.006-13.118-9.747-24.328-21.402-24.334c-10.485-0.005-16.172,2.793-21.122,9.43
		l3.499-15.191l-18.355-0.006c-2.195,11.651-3.207,16.374-4.087,20.794l-18.122,85.547l21.583,0.005L1685.14,567.856
		L1685.14,567.856z"/>
	<polygon points="235.616,526.768 615.114,526.917 1570.446,527.271 1570.446,543.994 615.114,543.639 235.616,543.496 
		235.616,526.768 	"/>
</g>
</svg>
