<?xml version="1.0" encoding="iso-8859-1"?>
<!-- Generator: Adobe Illustrator 21.1.0, SVG Export Plug-In . SVG Version: 6.00 Build 0)  -->
<svg version="1.1" id="Layer_1" xmlns="http://www.w3.org/2000/svg" xmlns:xlink="http://www.w3.org/1999/xlink" x="0px" y="0px"
	 viewBox="0 0 3778.862 2540.094" style="enable-background:new 0 0 3778.862 2540.094;" xml:space="preserve">
<path d="M2410.95,369.196c0,0-40.484,59.909-31.673,61.431c19.973,3.454,20.561-35.286,84.533-68.289
	c64.036-32.986,187.05-24.503,262.718-63.777c75.753-39.313,132.619-81.872,154.202-148.07c2.973-9.038-7.57-6.773-24.553,10.748
	c-17.004,17.556-47.106,39.448-197.04,51.735C2507.094,225.43,2410.95,369.196,2410.95,369.196z"/>
<g>
	<path d="M2505.937,1257.939c280.621-59.06,552.791-121.751,536.063-130.598c0,0-1010.614,130.149-1871.485,332.044
		c-6.756,35.562-20.076,78.796-27.058,117.296C1493.178,1477.391,1883.578,1389.022,2505.937,1257.939z"/>
	<path d="M728.486,1595.893c-316.353,81.801-552.894,166.578-620.062,221.214c-67.182,54.672-136.646,238.633-96.678,225.638
		c24.036-7.743,96.162-130.495,650.889-309.098C694.637,1646.559,707.717,1631.766,728.486,1595.893z"/>
</g>
<g>
	<path d="M1537.208,851.214c-0.832,5.461-2.229,11.335-3.974,17.486C1534.859,862.892,1536.221,857.017,1537.208,851.214z"/>
	<path d="M1449.512,921.23c2.403-35.838,7.966-75.201,20.235-102.779C1454.679,852.389,1450.273,891.716,1449.512,921.23z"/>
</g>
<path d="M3198.467,824.775"/>
<g>
	<path d="M3724.667,367.539c0,0,35.147,55.068,22.446,91.908c-9.642,28.099-21.306,39.812-69.689,66.077
		c-74.821,40.92-93.327,39.674-93.327,39.674l-6.601,2.56c-2.747-31.347,28.719-130.982-41.385-148.952
		c0,0-33.92-10.091-78.398,25.055c-17.469,13.858-85.707,116.57-85.707,116.57l17.124-145.978c0,0-41.713-7.223-77.983,48.176
		c-17.833,27.164-44.979,363.805-44.979,363.805l-45.549,51.629l-35.129,39.78c0,0,38.516-338.199,56.798-418.305
		c5.944-26.094-18.282-47.692-24.831-43.061c-15.673,11.163-33.644,21.081-54.137,56.331c-2.661,4.491-5.737,52.426-8.277,74.196
		c0,0-30.792-124.791-63.744-119.54c-33.004,5.324-89.491,76.652-131.394,163.189c-6.739,13.791-64.056,167.958-110.192,262.166
		c-15.707,32.833-32.71,60.861-42.767,69.121c0,0,35.579-257.466,37.324-427.845c0,0-0.415-44.89-28.027-41.609
		c-22.757,2.696-74.441,30.274-84.929,48.245c-10.592,17.971-78.19,317.012-78.19,317.012l26.714-307.678
		c0,0,0.605-47.484-52.444-30.516c-48.158,15.411-63.624,33.555-63.624,33.555l-97.491,356.375c0,0,18.887-282.588,20.805-333.114
		c0.933-26.714-22.861-37.706-45.013-29.032c-25.937,10.195-56.487,28.583-61.55,46.415
		c-4.078,14.478-52.547,151.577-123.705,287.565c-29.393,55.882-64.643,115.257-100.187,161.705c0,0-45.584-107.447-40.953-233.484
		c4.596-126.072,55.156-172.137,55.156-172.137s37.618,180.984,57.144,158.903c14.256-16.28,65.196-96.524,58.06-114.877
		c-8.329-21.666-11.508-41.436-11.508-41.436s-5.547-26.505-4.959-52.148c0.639-25.677-31.552-26.751-76.998-12.061
		c-45.601,14.651-115.531,90.128-159.992,173.833c-21.358,40.089-50.474,93.344-75.028,137.857
		c-24.675,44.717-47.778,86.225-47.778,86.225s59.563-172.729,12.355-313.936c-47.242-141.28-105.215-215.928-105.215-215.928
		s-21.496-17.761,101.932-94.69c123.463-77.015,221.196-205.819,203.934-271.551C2105.551,11.957,2037.452,0,2037.452,0
		s74.562,67.961-5.858,126.193c-85.655,61.999-345.125,195.726-296.984,263.98c52.979,75.289,69.654,96.161,91.789,129.271
		c22.049,33.106,43.717,93.033,43.717,93.033s-88.541,54.774-147.24,147.98c-58.716,93.137-63.14,145.462-135.818,270.186
		c-9.642,16.485-19.37,32.002-28.788,46.309c-32.14,47.551-65.3,88.677-67.771,91.787c-3.283,4.251-40.486-118.02-30.066-127.037
		c10.35-8.953,159.508-156.832,161.461-222.287c1.987-65.557,3.421-206.524-72.764-161.046
		c-76.203,45.378-131.688,114.46-142.453,129.288c-12.597,17.277-91.029,129.424-71.469,294.617l-81.007,56.917l-81.819,57.474
		l199.199-671.695c0,0,52.063-161.718-38.05-82.493c-39.259,34.559-47.916,33.626-61.844,71.71
		c-13.996,38.153-67.719,206.595-67.719,206.595L999.777,949.912c0,0-35.613-93.932,10.195-227.4
		c45.67-133.327,100.308-303.842,79.987-347.959c-7.672-16.519-55.709-12.13-79.987-2.506
		C974.376,385.959,763.565,486.334,639.1,617.106c-124.482,130.807-226.104,297.211-235.003,398.848
		c-8.864,101.569,8.899,415.3,317.565,410.183c0,0,21.582-1.207,21.582-13.925c0-12.755-3.871-15.243-27.958-30.516
		c-24.122-15.243-280.69-208.291-194.344-555.021c1.642-6.635,40.607-170.172,443.222-373.38c0,0-58.388,219.73-82.493,297.211
		c-24.122,77.48-31.725,149.812-10.16,241.29c21.53,91.48,66.008,104.164,77.464,94.036
		c11.405-10.227,231.115-273.087,231.115-273.087l-144.751,478.783c0,0-169.91,144.736-275.229,351.02
		c-19.889,38.914-37.479,80.002-51.199,122.752c-2.765,8.607-5.08,16.934-7.655,25.438c-76.67,255.909-50.526,442.22,34.369,642.594
		c25.228,59.63,50.888,90.528,74.855,102.209c59.321,28.753,112.317-85.793,120.646-145.131
		c28.304-203.556,84.169-467.102,132.465-707.083c8.415-41.815,16.813-82.286,25.055-121.026
		c35.63-167.161,52.807-256.775,78.76-335.501l96.057-59.785l79.987-49.834c0,0,57.558,153.788,101.155,154.652
		c24.865,0.516,33.851-15.796,33.851-15.796c13.564-15.966,62.811-94.07,101.915-157.311
		c35.613-57.645,66.423-108.725,66.423-108.725s41.367,251.556,96.697,243.331c40.417-5.977,169.167-212.781,233.05-319.636
		c21.168-35.425,34.68-59.029,34.68-59.029s-20.753,241.156,90.493,327.621c19.094,14.794,51.286-9.296,85.569-76.376
		c18.8-36.631,60.064-122.441,98.338-202.586c48.054-100.772,93.811-197.815,93.811-197.815L2334.471,1146
		c0,0,30.844,1.624,62.5-14.927c31.881-16.729,42.629-32.695,48.383-67.978c5.771-35.285,7.448-46.931,7.448-46.931l116.585-385.162
		c0,0,7.517-8.985,3.421,19.731c-4.043,28.652-44.391,470.007-44.391,470.007s60.531-3.421,83.806-31.311
		c11.232-13.584,17.763-26.163,18.835-50.459c0.95-20.561,7.465-47.208,7.465-47.208l99.876-390.828c0,0,6.947-23.708,8.312,4.907
		c0.968,21.634-26.524,485.211-26.524,485.211s80.938-12.996,113.682-80.076c11.681-23.844,28.183-69.082,39.95-103.157
		c13.461-39.398,23.621-72.574,23.621-72.574s-3.542,223.667,77.81,236.523c36.339,5.737,149.71-218.002,149.71-218.002
		s-29.272,201.376,14.774,195.812c6.065-0.827,61.584-84.67,95.452-136.578c15.033-23.086,25.66-39.672,25.66-39.672
		s-8.45,48.588-41.108,299.972c-39.536,303.363-208.997,839.443-208.841,841.588c0.242,3.869,12.407,67.181,97.82-153.998
		c88.022-228.298,209.619-846.491,209.619-846.491s62.673,24.708,137.096-109.414c36.771-66.148,87.348-213.956,99.772-250.764
		c0,0,79.555-28.684,119.972-47.69C3746.646,573.009,3839.697,437.952,3724.667,367.539z M829.538,2478.655
		c0,0-86.277-18.452-76.203-425.061c10.143-406.554,271.895-701.897,271.895-701.897
		C952.725,1533.861,829.538,2478.655,829.538,2478.655z M1449.513,921.23c0.76-29.514,5.167-68.842,20.234-102.779
		c28.39-64.142,44.806-86.331,51.199-96.766c0,0,23.483,87.363,16.26,129.528c-0.985,5.804-2.35,11.679-3.974,17.487
		c-11.75,41.471-41.644,97.492-84.532,140.758C1448.701,1009.457,1446.334,968.366,1449.513,921.23z M1814.666,1092.851
		c-13.599,20.977-18.385,13.996-26.144-1.452c-7.655-15.482-23.362-70.019-26.801-90.755
		c-26.213-162.774,11.646-243.919,28.166-264.689c5.478-6.808,20.545-27.613,37.79-4.735
		c25.073,33.315,41.177,135.956,44.685,195.02C1876.008,985.3,1828.334,1071.975,1814.666,1092.851z M3111.811,819.798
		c0,0-27.406,45.722-62.984,88.504c-11.042,13.238-27.561,28.477-27.561,28.477s-4.752-13.614-5.996-18.245
		c-4.372-16.383-5.754-22.327-5.754-22.327c-27.82-131.325-3.162-210.949,11.163-258.673c14.273-47.728,49.264-94.243,58.405-97.146
		c0,0,38.309,58.82,50.629,143.038C3136.227,727.491,3111.811,819.798,3111.811,819.798z M3410.368,902.013
		c-37.6,58.958-57.697,96.042-89.18,84.428l24.935-180.295c32.468-32.207,43.545-50.18,79.123-88.644
		c39.052-42.473,64.591-45.927,64.591-45.927S3447.986,843.091,3410.368,902.013z M3499.842,586.489
		c-43.786,24.606-112.334,115.912-150.384,161.251c0,0,12.994-96.005,17.176-115.013l89.145-113.594
		c0,0,30.153-28.237,42.612,11.886C3501.051,539.592,3499.842,586.489,3499.842,586.489z"/>
</g>
<g>
</g>
<g>
</g>
<g>
</g>
<g>
</g>
<g>
</g>
<g>
</g>
</svg>
