<?xml version="1.0" encoding="iso-8859-1"?>
<!-- Generator: Adobe Illustrator 21.1.0, SVG Export Plug-In . SVG Version: 6.00 Build 0)  -->
<svg version="1.1" id="Layer_1" xmlns="http://www.w3.org/2000/svg" xmlns:xlink="http://www.w3.org/1999/xlink" x="0px" y="0px"
	 viewBox="0 0 384 368" style="enable-background:new 0 0 384 368;" xml:space="preserve">
<g>
	<g>
		<defs>
			<rect id="SVGID_1_" width="384" height="368"/>
		</defs>
		<clipPath id="SVGID_2_">
			<use xlink:href="#SVGID_1_"  style="overflow:visible;"/>
		</clipPath>
		<path style="clip-path:url(#SVGID_2_);" d="M140,281.793V356c0,5.184,3.328,9.777,8.258,11.406
			c1.23,0.403,2.496,0.594,3.742,0.594c3.742,0,7.359-1.762,9.664-4.895l43.406-59.074L140,281.793z M140,281.793"/>
		<path style="clip-path:url(#SVGID_2_);" d="M378.961,2.223c-3.68-2.606-8.512-2.957-12.512-0.864l-360,188
			c-4.258,2.227-6.769,6.77-6.418,11.551c0.367,4.801,3.555,8.899,8.082,10.449l100.078,34.207L321.328,63.328l-164.93,198.703
			l167.731,57.328c1.246,0.418,2.559,0.641,3.871,0.641c2.176,0,4.336-0.594,6.238-1.742c3.043-1.86,5.106-4.977,5.633-8.481l44-296
			C384.527,9.297,382.641,4.848,378.961,2.223L378.961,2.223z M378.961,2.223"/>
	</g>
</g>
</svg>
