<svg width="18" height="24" viewBox="0 0 18 24" fill="none" xmlns="http://www.w3.org/2000/svg">
<path d="M4.45809 15.63C4.45809 15.248 4.2033 15.0201 3.7539 15.0201C3.5703 15.0201 3.44603 15.039 3.38086 15.057V16.2826C3.4579 16.3006 3.55265 16.3067 3.68317 16.3067C4.16208 16.3067 4.45809 16.0548 4.45809 15.63Z" fill="black"/>
<path d="M7.24044 15.033C7.03896 15.033 6.90884 15.0511 6.83203 15.0698V17.7839C6.90907 17.8028 7.03334 17.8028 7.14575 17.8028C7.96234 17.8088 8.49502 17.3411 8.49502 16.3502C8.50081 15.4886 8.01542 15.033 7.24044 15.033Z" fill="black"/>
<path d="M12.4112 0.832397H3.53124C2.23396 0.832397 1.178 1.93156 1.178 3.28027V12.3324H0.948255C0.424517 12.3324 0 12.7738 0 13.3188V19.3012C0 19.8462 0.424517 20.2874 0.948255 20.2874H1.178V21.3845C1.178 22.7348 2.23396 23.8324 3.53124 23.8324H15.6474C16.9441 23.8324 18 22.7346 18 21.3845V6.62606L12.4112 0.832397ZM2.4876 14.3985C2.76549 14.3495 3.15602 14.3127 3.70635 14.3127C4.26253 14.3127 4.65885 14.4232 4.92533 14.6449C5.17967 14.8541 5.3514 15.199 5.3514 15.605C5.3514 16.0111 5.22134 16.3563 4.98466 16.5901C4.67679 16.8915 4.22138 17.0269 3.6887 17.0269C3.57022 17.0269 3.46389 17.0208 3.38077 17.0087V18.4922H2.4876V14.3985ZM15.6474 22.3332H3.53124C3.02882 22.3332 2.61973 21.9077 2.61973 21.3845V20.2874H13.9148C14.4386 20.2874 14.8631 19.8462 14.8631 19.3012V16.31V13.3188C14.8631 12.7738 14.4386 12.3324 13.9148 12.3324H2.61973V3.28027C2.61973 2.75851 3.02882 2.33293 3.53124 2.33293L11.8721 2.32387V5.53131C11.8721 6.46816 12.6027 7.22886 13.5039 7.22886L16.524 7.2198L16.558 21.3845C16.558 21.9077 16.1499 22.3332 15.6474 22.3332ZM5.9273 18.4734V14.3985C6.25873 14.3435 6.69064 14.3127 7.14628 14.3127C7.90354 14.3127 8.39478 14.4541 8.77946 14.7556C9.19371 15.0758 9.45389 15.5864 9.45389 16.3195C9.45389 17.1133 9.176 17.6613 8.79109 17.9996C8.37105 18.3627 7.73204 18.5351 6.95104 18.5351C6.48348 18.5351 6.15211 18.5041 5.9273 18.4734ZM12.3853 16.0607V16.8238H10.9532V18.4922H10.0479V14.3435H12.4856V15.1126H10.9532V16.0607H12.3853Z" fill="black"/>
</svg>