<?xml version="1.0" encoding="iso-8859-1"?>
<!-- Generator: Adobe Illustrator 21.1.0, SVG Export Plug-In . SVG Version: 6.00 Build 0)  -->
<svg version="1.1" id="Capa_1" xmlns="http://www.w3.org/2000/svg" xmlns:xlink="http://www.w3.org/1999/xlink" x="0px" y="0px"
	 viewBox="15 205 384 384" style="enable-background:new 15 205 384 384;" xml:space="preserve">
<path d="M368.188,457.052c-23.51,0-46.594-3.677-68.469-10.906c-10.719-3.656-23.896-0.302-30.438,6.417l-43.177,32.594
	c-50.073-26.729-80.917-57.563-107.281-107.26l31.635-42.052c8.219-8.208,11.167-20.198,7.635-31.448
	c-7.26-21.99-10.948-45.063-10.948-68.583c0-16.99-13.823-30.813-30.813-30.813H45.813C28.823,205,15,218.823,15,235.813
	C15,430.563,173.438,589,368.188,589c16.99,0,30.813-13.823,30.813-30.813v-70.323C399,470.875,385.177,457.052,368.188,457.052z"/>
</svg>
