<?xml version="1.0" encoding="iso-8859-1"?>
<!-- Generator: Adobe Illustrator 21.1.0, SVG Export Plug-In . SVG Version: 6.00 Build 0)  -->
<svg version="1.1" id="Layer_1" xmlns="http://www.w3.org/2000/svg" xmlns:xlink="http://www.w3.org/1999/xlink" x="0px" y="0px"
	 viewBox="0 0 113.959 113.956" style="enable-background:new 0 0 113.959 113.956;" xml:space="preserve">
<g>
	<g>
		<path style="fill:#FFFFFF;" d="M113.929,55.12c-0.957-29.937-25.157-54.137-55.09-55.09C42.55-0.489,27.311,5.714,16.046,17.339
			C5.222,28.518-0.47,43.257,0.03,58.839c0.953,29.933,25.153,54.133,55.086,55.086c0.625,0.023,1.242,0.031,1.863,0.031
			c15.563,0,30.098-6.16,40.93-17.34C108.737,85.436,114.425,70.698,113.929,55.12L113.929,55.12z M89.288,88.268
			c-8.551,8.829-20.023,13.688-32.309,13.688c-0.492,0-0.984-0.008-1.48-0.023c-23.625-0.754-42.723-19.852-43.477-43.477
			C11.628,46.151,16.12,34.515,24.667,25.69c8.551-8.828,20.023-13.691,32.312-13.691c0.489,0,0.981,0.008,1.477,0.023
			c23.625,0.754,42.723,19.852,43.477,43.477C102.327,67.808,97.835,79.444,89.288,88.268L89.288,88.268z M89.288,88.268"/>
	</g>
	<path style="fill:#FFFFFF;" d="M75.667,53.667L50.401,35.55c-2.695-1.934-6.449-0.004-6.449,3.312v36.235
		c0,3.316,3.754,5.242,6.449,3.308l25.266-18.117C77.933,58.663,77.933,55.292,75.667,53.667L75.667,53.667z M75.667,53.667"/>
</g>
</svg>
