<svg width="22" height="18" viewBox="0 0 22 18" fill="none" xmlns="http://www.w3.org/2000/svg">
<g clip-path="url(#clip0)">
<path d="M21.3756 3.52271C21.3342 3.52125 20.4845 3.49418 19.2372 3.52017V1.10357C19.2372 0.747381 18.9152 0.464878 18.5363 0.494276C16.0493 0.690534 12.8852 1.72889 11 3.6232C9.11476 1.72889 5.95071 0.690534 3.46368 0.494276C3.08544 0.465311 2.76278 0.746569 2.76278 1.10357V3.58551C2.05419 3.56034 1.38394 3.54237 0.666245 3.5225C0.304333 3.51172 0 3.78729 0 4.13368V15.2692C0 15.5911 0.263828 15.8578 0.603568 15.8794C3.17745 16.043 7.48911 16.0615 10.7462 17.3744C11.0365 17.4915 11.297 17.357 11.254 17.3744C14.5109 16.0617 18.8216 16.0433 21.3964 15.8794C21.7362 15.8578 22 15.5911 22 15.2692V4.13368C22 3.8044 21.7239 3.53414 21.3756 3.52271ZM17.9431 1.79131V12.2714C16.077 12.6658 13.7124 13.5076 11.647 15.2923C11.647 14.754 11.647 5.07291 11.647 4.78169C13.0627 3.11244 15.744 2.10619 17.9431 1.79131ZM4.05694 1.79131C6.25596 2.10619 8.93727 3.11244 10.353 4.78169V15.2923C8.28758 13.5076 5.92298 12.6658 4.05694 12.2714V1.79131ZM1.29422 14.694V4.7635C1.75748 4.77638 2.25294 4.791 2.76278 4.80941V12.7697C2.76278 13.0641 2.98455 13.3164 3.29049 13.3707C4.76798 13.6327 6.68926 14.2016 8.48008 15.4263C5.92522 14.8849 3.25107 14.7978 1.29422 14.694ZM20.7058 14.694C18.7521 14.7978 16.0757 14.8847 13.5199 15.4263C15.3105 14.2016 17.232 13.6327 18.7095 13.3707C19.0154 13.3164 19.2372 13.0641 19.2372 12.7697V4.74363C19.8328 4.73096 20.3399 4.73074 20.7058 4.73388V14.694Z" fill="black"/>
<path d="M8.67509 6.19019C8.17401 5.86026 7.30994 5.45524 6.38789 5.30809C6.03566 5.25162 5.70154 5.47619 5.64195 5.8091C5.58243 6.14195 5.8199 6.45748 6.17213 6.51373C6.88404 6.62753 7.56684 6.95107 7.93522 7.19367C8.22838 7.38652 8.63166 7.31863 8.83619 7.04138C9.04032 6.76434 8.96825 6.38325 8.67509 6.19019Z" fill="black"/>
<path d="M8.61017 9.63356C8.14915 9.36752 7.24726 8.90056 6.38789 8.76332C6.03566 8.70685 5.70154 8.93147 5.64195 9.26433C5.58243 9.5974 5.8199 9.91293 6.17213 9.96923C6.84175 10.076 7.6286 10.5 7.93568 10.6773C8.24116 10.8535 8.63928 10.7621 8.82524 10.4743C9.01144 10.186 8.91519 9.80974 8.61017 9.63356Z" fill="black"/>
<path d="M14.0649 7.19368C14.4333 6.95107 15.1161 6.62753 15.828 6.51373C16.1802 6.45748 16.4177 6.14195 16.3582 5.8091C16.2986 5.47597 15.9645 5.2514 15.6123 5.30809C14.6902 5.45524 13.8261 5.86026 13.3251 6.19019C13.0319 6.38325 12.9598 6.76435 13.1639 7.04138C13.3685 7.31863 13.772 7.38652 14.0649 7.19368Z" fill="black"/>
<path d="M15.6123 8.76332C14.753 8.90056 13.8511 9.36752 13.39 9.63356C13.085 9.80974 12.9888 10.186 13.175 10.4743C13.3612 10.7623 13.7595 10.8532 14.0645 10.6773C14.3716 10.5 15.1585 10.0762 15.8281 9.96923C16.1803 9.91293 16.4178 9.5974 16.3583 9.26433C16.2987 8.93147 15.9646 8.70685 15.6123 8.76332Z" fill="black"/>
</g>
<defs>
<clipPath id="clip0">
<rect width="22" height="17" fill="white" transform="translate(0 0.457458)"/>
</clipPath>
</defs>
</svg>