<svg width="23" height="23" viewBox="0 0 23 23" fill="none" xmlns="http://www.w3.org/2000/svg">
<path fill-rule="evenodd" clip-rule="evenodd" d="M20.0943 10.8376C19.6343 6.66759 16.3243 3.35758 12.1543 2.89758V0.837585H10.1543V2.89758C5.9843 3.35758 2.6743 6.66759 2.2143 10.8376H0.154297V12.8376H2.2143C2.6743 17.0076 5.9843 20.3176 10.1543 20.7776V22.8376H12.1543V20.7776C16.3243 20.3176 19.6343 17.0076 20.0943 12.8376H22.1543V10.8376H20.0943ZM11.1543 7.83759C8.9443 7.83759 7.1543 9.62759 7.1543 11.8376C7.1543 14.0476 8.9443 15.8376 11.1543 15.8376C13.3643 15.8376 15.1543 14.0476 15.1543 11.8376C15.1543 9.62759 13.3643 7.83759 11.1543 7.83759ZM4.1543 11.8376C4.1543 15.7076 7.2843 18.8376 11.1543 18.8376C15.0243 18.8376 18.1543 15.7076 18.1543 11.8376C18.1543 7.96758 15.0243 4.83759 11.1543 4.83759C7.2843 4.83759 4.1543 7.96758 4.1543 11.8376Z" fill="white" fill-opacity="1"/>
</svg>