<?xml version="1.0" encoding="iso-8859-1"?>
<!-- Generator: Adobe Illustrator 21.1.0, SVG Export Plug-In . SVG Version: 6.00 Build 0)  -->
<svg version="1.1" id="Layer_1" xmlns="http://www.w3.org/2000/svg" xmlns:xlink="http://www.w3.org/1999/xlink" x="0px" y="0px"
	 viewBox="0 0 14 12" style="enable-background:new 0 0 14 12;" xml:space="preserve">
<path style="fill:#FFFFFF;" d="M13.712,9.959c-0.161,0.653-0.634,1.168-1.234,1.343C11.382,11.628,7,11.628,7,11.628
	s-4.382,0-5.478-0.314c-0.588-0.176-1.072-0.703-1.234-1.356C0,8.766,0,6.293,0,6.293s0-2.486,0.288-3.666
	C0.45,1.974,0.922,1.46,1.522,1.284C2.629,0.957,7,0.957,7,0.957s4.382,0,5.478,0.314c0.6,0.176,1.073,0.69,1.234,1.343
	C14,3.807,14,6.28,14,6.28S14.012,8.766,13.712,9.959z M5.605,4.008v4.57l3.644-2.285L5.605,4.008z"/>
</svg>
