<?xml version="1.0" encoding="iso-8859-1"?>
<!-- Generator: Adobe Illustrator 21.1.0, SVG Export Plug-In . SVG Version: 6.00 Build 0)  -->
<svg version="1.1" id="Capa_1" xmlns="http://www.w3.org/2000/svg" xmlns:xlink="http://www.w3.org/1999/xlink" x="0px" y="0px"
	 viewBox="15 205 373.12 373.12" style="enable-background:new 15 205 373.12 373.12;" xml:space="preserve">
<path d="M281.667,439.667h-16.96l-5.867-5.867c20.907-24.213,33.493-55.68,33.493-90.133c0-76.587-62.08-138.667-138.667-138.667
	S15,267.08,15,343.667s62.08,138.667,138.667,138.667c34.453,0,65.92-12.587,90.133-33.387l5.867,5.867v16.853L356.333,578.12
	l31.787-31.787L281.667,439.667z M153.667,439.667c-53.013,0-96-42.987-96-96s42.987-96,96-96s96,42.987,96,96
	S206.68,439.667,153.667,439.667z"/>
</svg>
